<?xml version="1.0" encoding="UTF-8" standalone="no"?>
<svg
   width="302.63666"
   zoomAndPan="magnify"
   viewBox="0 0 226.97749 26.249999"
   height="35"
   preserveAspectRatio="xMidYMid"
   version="1.0"
   id="svg146"
   xmlns="http://www.w3.org/2000/svg"
   xmlns:svg="http://www.w3.org/2000/svg">
  <defs
     id="defs2">
    <g
       id="g1" />
    <clipPath
       id="6955944a60">
      <path
         d="M 0.976562,93 H 33 v 40 H 0.976562 Z m 0,0"
         clip-rule="nonzero"
         id="path1" />
    </clipPath>
    <clipPath
       id="88a5eed1d6">
      <path
         d="m 136,52.179688 h 83 v 82.281252 h -83 z m 0,0"
         clip-rule="nonzero"
         id="path2" />
    </clipPath>
  </defs>
  <path
     fill="#de3030"
     d="M 43.040064,0.47379492 H 20.995466 c -0.09001,0 -0.162516,0.07376 -0.162516,0.165016 V 6.6318809 c 0,0.09001 0.07251,0.163766 0.162516,0.163766 h 7.46696 c 0.09001,0 0.163766,0.07376 0.163766,0.163765 V 25.601187 c 0,0.09126 0.07251,0.165016 0.163766,0.165016 h 6.454364 c 0.09001,0 0.163766,-0.07376 0.163766,-0.165016 V 6.9594119 c 0,-0.09001 0.07376,-0.163765 0.163765,-0.163765 h 7.468211 c 0.09001,0 0.163766,-0.07376 0.163766,-0.163766 V 0.63881092 c 0,-0.09126 -0.07376,-0.165016 -0.163766,-0.165016 z m 0,0"
     fill-opacity="1"
     fill-rule="nonzero"
     id="path3"
     style="stroke-width:0.32003" />
  <path
     fill="#de3030"
     d="m 17.205105,0.60005692 c -0.0175,-0.07376 -0.08376,-0.126262 -0.158765,-0.126262 h -6.879405 c -0.106261,0 -0.1837683,0.100009 -0.158765,0.203769 L 16.058746,25.639941 c 0.0175,0.07376 0.08376,0.126262 0.158765,0.126262 h 6.876904 c 0.10626,0 0.183768,-0.10001 0.158766,-0.203769 z m 0,0"
     fill-opacity="1"
     fill-rule="nonzero"
     id="path4"
     style="stroke-width:0.32003" />
  <g
     clip-path="url(#6955944a60)"
     id="g5"
     transform="matrix(0.32003047,0,0,0.32003047,-0.31281325,-16.69909)">
    <path
       fill="#de3030"
       d="M 32.308594,93.183594 H 10.816406 c -0.238281,0 -0.441406,0.160156 -0.5,0.390625 L 0.992188,132.05469 c -0.078126,0.32422 0.164062,0.63672 0.496093,0.63672 h 21.496094 c 0.238281,0 0.441406,-0.16407 0.496094,-0.39454 l 9.328125,-38.480464 c 0.07813,-0.324218 -0.167969,-0.632812 -0.5,-0.632812 z m 0,0"
       fill-opacity="1"
       fill-rule="nonzero"
       id="path5" />
  </g>
  <path
     fill="#de3030"
     d="m 81.988772,0.47379492 h -6.878155 c -0.07626,0 -0.142513,0.0525 -0.160015,0.126262 L 68.902526,25.562434 c -0.025,0.103759 0.0525,0.203769 0.158766,0.203769 h 6.879404 c 0.07501,0 0.141264,-0.0525 0.158765,-0.126262 L 82.147537,0.67756392 c 0.025,-0.10376 -0.0525,-0.203769 -0.158765,-0.203769 z m 0,0"
     fill-opacity="1"
     fill-rule="nonzero"
     id="path6"
     style="stroke-width:0.32003" />
  <path
     fill="#de3030"
     d="M 92.15224,25.562434 89.166955,13.247511 c -0.0175,-0.07376 -0.08251,-0.125012 -0.158765,-0.125012 h -6.876904 c -0.10626,0 -0.183768,0.09876 -0.158765,0.202519 l 2.984034,12.314923 c 0.01875,0.07376 0.08376,0.126262 0.158765,0.126262 h 6.878155 c 0.105009,0 0.183767,-0.10001 0.158765,-0.203769 z m 0,0"
     fill-opacity="1"
     fill-rule="nonzero"
     id="path7"
     style="stroke-width:0.32003" />
  <g
     clip-path="url(#88a5eed1d6)"
     id="g8"
     transform="matrix(0.32003047,0,0,0.32003047,-0.31281325,-16.69909)">
    <path
       fill="#de3030"
       d="m 193.50391,109.33984 c -4.26563,4.28125 -10.05469,6.6836 -16.08985,6.6836 -6.03906,0 -11.82812,-2.40235 -16.09375,-6.67969 -4.26953,-4.28125 -6.66797,-10.082031 -6.67187,-16.132812 -0.004,-3 0.58203,-5.972657 1.72656,-8.742188 1.14062,-2.773438 2.81641,-5.292969 4.93359,-7.414062 2.11328,-2.121094 4.625,-3.804688 7.38672,-4.953126 2.76172,-1.148437 5.72656,-1.738281 8.71875,-1.738281 2.98828,0 5.95313,0.589844 8.71485,1.738281 2.76171,1.148438 5.27343,2.832032 7.38671,4.953126 2.11329,2.125 3.78907,4.640624 4.9336,7.414062 1.14062,2.773438 1.72656,5.742188 1.71875,8.742188 0,6.050781 -2.39453,11.851562 -6.66406,16.128902 z m 12.84765,-45.140621 c -7.67578,-7.695313 -18.08594,-12.019531 -28.9375,-12.019531 -5.375,0 -10.69922,1.058593 -15.66406,3.121093 -4.96875,2.0625 -9.48047,5.085938 -13.28125,8.894531 -3.80078,3.808594 -6.81641,8.332032 -8.875,13.3125 -2.05469,4.976563 -3.11328,10.3125 -3.11328,15.703126 0.008,10.875002 4.32422,21.304692 12,28.992192 7.67578,7.68749 18.08203,12.0039 28.93359,11.99999 10.84766,0 21.25,-4.3164 28.92578,-12.0039 7.67578,-7.6875 11.99219,-18.11328 12,-28.988282 0,-10.882813 -4.3125,-21.320313 -11.98828,-29.011719 z m 0,0"
       fill-opacity="1"
       fill-rule="nonzero"
       id="path8" />
  </g>
  <g
     fill="#ffffff"
     fill-opacity="1"
     id="g11"
     transform="matrix(0.32003047,0,0,0.32003047,-0.31281325,-16.69909)">
    <g
       transform="translate(310.00086,87.418145)"
       id="g10">
      <g
         id="g9">
        <path
           d="M 6.609375,-23.15625 H 15.71875 L 21.671875,0 H 18.6875 L 16.875,-6.78125 H 5.453125 L 3.640625,0 H 0.65625 Z m 9.59375,13.5625 -2.8125,-10.75 H 8.9375 l -2.8125,10.75 z m 0,0"
           id="path9" />
      </g>
    </g>
  </g>
  <g
     fill="#ffffff"
     fill-opacity="1"
     id="g14"
     transform="matrix(0.32003047,0,0,0.32003047,-0.31281325,-16.69909)">
    <g
       transform="translate(332.32707,87.418145)"
       id="g13">
      <g
         id="g12">
        <path
           d="m 2.3125,-16.546875 h 8.109375 c 1.582031,0 2.800781,0.402344 3.65625,1.203125 0.863281,0.792969 1.296875,1.773438 1.296875,2.9375 0,0.75 -0.117188,1.359375 -0.34375,1.828125 -0.230469,0.460937 -0.496094,0.824219 -0.796875,1.09375 -0.292969,0.261719 -0.574219,0.445313 -0.84375,0.546875 -0.261719,0.09375 -0.421875,0.140625 -0.484375,0.140625 v 0.03125 c 0.03906,0 0.222656,0.054687 0.546875,0.15625 0.332031,0.09375 0.691406,0.289063 1.078125,0.578125 0.382812,0.28125 0.734375,0.683594 1.046875,1.203125 0.3125,0.523437 0.46875,1.199219 0.46875,2.03125 0,1.417969 -0.480469,2.574219 -1.4375,3.46875 C 13.648438,-0.441406 12.265625,0 10.453125,0 H 2.3125 Z m 8.109375,14.0625 c 0.988281,0 1.726563,-0.222656 2.21875,-0.671875 0.5,-0.457031 0.75,-1.0625 0.75,-1.8125 0,-0.75 -0.25,-1.347656 -0.75,-1.796875 C 12.148438,-7.210938 11.410156,-7.4375 10.421875,-7.4375 H 4.96875 v 4.953125 z M 10.25,-9.765625 c 0.84375,0 1.46875,-0.191406 1.875,-0.578125 0.40625,-0.382812 0.609375,-0.90625 0.609375,-1.5625 0,-0.664062 -0.203125,-1.191406 -0.609375,-1.578125 C 11.71875,-13.867188 11.09375,-14.0625 10.25,-14.0625 H 4.96875 v 4.296875 z m 0,0"
           id="path11" />
      </g>
    </g>
  </g>
  <g
     fill="#ffffff"
     fill-opacity="1"
     id="g17"
     transform="matrix(0.32003047,0,0,0.32003047,-0.31281325,-16.69909)">
    <g
       transform="translate(349.69191,87.418145)"
       id="g16">
      <g
         id="g15">
        <path
           d="m 5.953125,-14.0625 h -5.78125 v -2.484375 h 14.21875 V -14.0625 H 8.59375 V 0 H 5.953125 Z m 0,0"
           id="path14" />
      </g>
    </g>
  </g>
  <g
     fill="#ffffff"
     fill-opacity="1"
     id="g20"
     transform="matrix(0.32003047,0,0,0.32003047,-0.31281325,-16.69909)">
    <g
       transform="translate(364.2453,87.418145)"
       id="g19">
      <g
         id="g18">
        <path
           d="m 9.921875,0.328125 c -1.230469,0 -2.375,-0.214844 -3.4375,-0.640625 C 5.421875,-0.738281 4.507812,-1.332031 3.75,-2.09375 2.988281,-2.851562 2.394531,-3.765625 1.96875,-4.828125 c -0.429688,-1.0625 -0.640625,-2.207031 -0.640625,-3.4375 0,-1.238281 0.210937,-2.382813 0.640625,-3.4375 0.425781,-1.0625 1.019531,-1.972656 1.78125,-2.734375 0.757812,-0.757812 1.671875,-1.351562 2.734375,-1.78125 1.0625,-0.4375 2.207031,-0.65625 3.4375,-0.65625 1.238281,0 2.382813,0.21875 3.4375,0.65625 1.0625,0.429688 1.972656,1.023438 2.734375,1.78125 0.757812,0.761719 1.351562,1.671875 1.78125,2.734375 0.4375,1.054687 0.65625,2.199219 0.65625,3.4375 0,1.230469 -0.21875,2.375 -0.65625,3.4375 -0.429688,1.0625 -1.023438,1.976563 -1.78125,2.734375 -0.761719,0.761719 -1.671875,1.355469 -2.734375,1.78125 -1.054687,0.425781 -2.199219,0.640625 -3.4375,0.640625 z m 0,-2.484375 c 0.863281,0 1.65625,-0.144531 2.375,-0.4375 0.726563,-0.300781 1.359375,-0.71875 1.890625,-1.25 0.53125,-0.539062 0.941406,-1.1875 1.234375,-1.9375 0.300781,-0.75 0.453125,-1.578125 0.453125,-2.484375 0,-0.90625 -0.152344,-1.734375 -0.453125,-2.484375 -0.292969,-0.75 -0.703125,-1.394531 -1.234375,-1.9375 -0.53125,-0.539062 -1.164062,-0.957031 -1.890625,-1.25 -0.71875,-0.300781 -1.511719,-0.453125 -2.375,-0.453125 -0.855469,0 -1.648437,0.152344 -2.375,0.453125 -0.730469,0.292969 -1.359375,0.710938 -1.890625,1.25 -0.53125,0.542969 -0.949219,1.1875 -1.25,1.9375 -0.292969,0.75 -0.4375,1.578125 -0.4375,2.484375 0,0.90625 0.144531,1.734375 0.4375,2.484375 0.300781,0.75 0.71875,1.398438 1.25,1.9375 0.53125,0.53125 1.160156,0.949219 1.890625,1.25 0.726563,0.292969 1.519531,0.4375 2.375,0.4375 z m 0,0"
           id="path17" />
      </g>
    </g>
  </g>
  <g
     fill="#ffffff"
     fill-opacity="1"
     id="g23"
     transform="matrix(0.32003047,0,0,0.32003047,-0.31281325,-16.69909)">
    <g
       transform="translate(384.09083,87.418145)"
       id="g22">
      <g
         id="g21">
        <path
           d="M 2.3125,-16.546875 H 6.28125 L 11.25,-6.28125 h 0.828125 L 17.03125,-16.546875 H 21 V 0 h -2.640625 v -13.234375 l 0.03125,-0.328125 h -0.0625 l -4.9375,10.25 H 9.921875 L 5,-13.5625 H 4.921875 l 0.046875,0.328125 V 0 H 2.3125 Z m 0,0"
           id="path20" />
      </g>
    </g>
  </g>
  <g
     fill="#ffffff"
     fill-opacity="1"
     id="g26"
     transform="matrix(0.32003047,0,0,0.32003047,-0.31281325,-16.69909)">
    <g
       transform="translate(407.40932,87.418145)"
       id="g25">
      <g
         id="g24">
        <path
           d="m 9.265625,0.328125 c -1.085937,0 -2.105469,-0.214844 -3.0625,-0.640625 -0.960937,-0.425781 -1.804687,-1.019531 -2.53125,-1.78125 -0.730469,-0.757812 -1.304687,-1.671875 -1.71875,-2.734375 -0.417969,-1.0625 -0.625,-2.207031 -0.625,-3.4375 0,-1.238281 0.207031,-2.382813 0.625,-3.4375 0.414063,-1.0625 0.988281,-1.972656 1.71875,-2.734375 0.726563,-0.757812 1.570313,-1.351562 2.53125,-1.78125 0.957031,-0.4375 1.976563,-0.65625 3.0625,-0.65625 1.070313,0 1.984375,0.15625 2.734375,0.46875 0.75,0.3125 1.359375,0.65625 1.828125,1.03125 0.476563,0.375 0.820313,0.726562 1.03125,1.046875 0.21875,0.3125 0.328125,0.46875 0.328125,0.46875 h 0.03125 v -2.6875 h 2.640625 V 0 H 15.21875 V -2.640625 H 15.1875 c 0,0 -0.109375,0.164063 -0.328125,0.484375 -0.210937,0.3125 -0.554687,0.652344 -1.03125,1.015625 C 13.359375,-0.773438 12.75,-0.4375 12,-0.125 11.25,0.175781 10.335938,0.328125 9.265625,0.328125 Z M 9.59375,-2.15625 c 0.789062,0 1.523438,-0.144531 2.203125,-0.4375 0.6875,-0.300781 1.285156,-0.71875 1.796875,-1.25 0.507812,-0.539062 0.90625,-1.1875 1.1875,-1.9375 0.289062,-0.75 0.4375,-1.578125 0.4375,-2.484375 0,-0.90625 -0.148438,-1.734375 -0.4375,-2.484375 -0.28125,-0.75 -0.679688,-1.394531 -1.1875,-1.9375 -0.511719,-0.539062 -1.109375,-0.957031 -1.796875,-1.25 -0.679687,-0.300781 -1.414063,-0.453125 -2.203125,-0.453125 -0.792969,0 -1.53125,0.152344 -2.21875,0.453125 -0.6875,0.292969 -1.289062,0.710938 -1.796875,1.25 -0.5,0.542969 -0.898437,1.1875 -1.1875,1.9375 -0.28125,0.75 -0.421875,1.578125 -0.421875,2.484375 0,0.90625 0.140625,1.734375 0.421875,2.484375 0.289063,0.75 0.6875,1.398438 1.1875,1.9375 0.507813,0.53125 1.109375,0.949219 1.796875,1.25 0.6875,0.292969 1.425781,0.4375 2.21875,0.4375 z m 0,0"
           id="path23" />
      </g>
    </g>
  </g>
  <g
     fill="#ffffff"
     fill-opacity="1"
     id="g29"
     transform="matrix(0.32003047,0,0,0.32003047,-0.31281325,-16.69909)">
    <g
       transform="translate(427.58561,87.418145)"
       id="g28">
      <g
         id="g27">
        <path
           d="m 5.953125,-14.0625 h -5.78125 v -2.484375 h 14.21875 V -14.0625 H 8.59375 V 0 H 5.953125 Z m 0,0"
           id="path26" />
      </g>
    </g>
  </g>
  <g
     fill="#ffffff"
     fill-opacity="1"
     id="g32"
     transform="matrix(0.32003047,0,0,0.32003047,-0.31281325,-16.69909)">
    <g
       transform="translate(442.139,87.418145)"
       id="g31">
      <g
         id="g30">
        <path
           d="m 2.3125,-16.546875 h 2.65625 v 12.40625 l -0.046875,0.34375 H 5 l 8.890625,-12.75 H 16.875 V 0 H 14.21875 V -12.40625 L 14.25,-12.734375 H 14.1875 L 5.296875,0 H 2.3125 Z m 0,0"
           id="path29" />
      </g>
    </g>
  </g>
  <g
     fill="#ffffff"
     fill-opacity="1"
     id="g35"
     transform="matrix(0.32003047,0,0,0.32003047,-0.31281325,-16.69909)">
    <g
       transform="translate(461.32301,87.418145)"
       id="g34">
      <g
         id="g33">
        <path
           d="M 7.9375,0.328125 C 7.101562,0.328125 6.363281,0.25 5.71875,0.09375 5.082031,-0.0507812 4.515625,-0.25 4.015625,-0.5 3.523438,-0.757812 3.097656,-1.054688 2.734375,-1.390625 2.367188,-1.722656 2.0625,-2.050781 1.8125,-2.375 1.238281,-3.175781 0.851562,-4.09375 0.65625,-5.125 H 3.3125 c 0.125,0.574219 0.375,1.070312 0.75,1.484375 0.3125,0.375 0.769531,0.71875 1.375,1.03125 0.601562,0.304687 1.4375,0.453125 2.5,0.453125 1.414062,0 2.457031,-0.269531 3.125,-0.8125 0.675781,-0.550781 1.015625,-1.160156 1.015625,-1.828125 0,-0.65625 -0.3125,-1.234375 -0.9375,-1.734375 -0.617187,-0.5 -1.625,-0.75 -3.03125,-0.75 H 6.125 v -2.484375 h 1.984375 c 1.320313,0 2.257813,-0.21875 2.8125,-0.65625 0.550781,-0.4375 0.828125,-0.988281 0.828125,-1.65625 0,-0.570313 -0.308594,-1.097656 -0.921875,-1.578125 -0.605469,-0.488281 -1.570313,-0.734375 -2.890625,-0.734375 -0.886719,0 -1.59375,0.136719 -2.125,0.40625 -0.523438,0.261719 -0.9375,0.546875 -1.25,0.859375 -0.355469,0.375 -0.609375,0.78125 -0.765625,1.21875 H 1.15625 c 0.195312,-0.925781 0.582031,-1.753906 1.15625,-2.484375 0.238281,-0.3125 0.523438,-0.613281 0.859375,-0.90625 0.332031,-0.300781 0.726563,-0.566406 1.1875,-0.796875 0.46875,-0.226562 0.992187,-0.414062 1.578125,-0.5625 0.582031,-0.144531 1.25,-0.21875 2,-0.21875 1.082031,0 2.023438,0.132812 2.828125,0.390625 0.800781,0.25 1.472656,0.585937 2.015625,1 0.539062,0.417969 0.941406,0.90625 1.203125,1.46875 0.269531,0.5625 0.40625,1.15625 0.40625,1.78125 0,0.699219 -0.136719,1.28125 -0.40625,1.75 -0.261719,0.460937 -0.5625,0.828125 -0.90625,1.109375 -0.34375,0.273438 -0.667969,0.464844 -0.96875,0.578125 -0.292969,0.105469 -0.46875,0.171875 -0.53125,0.203125 v 0.03125 c 0.03906,0 0.226563,0.058594 0.5625,0.171875 0.332031,0.105469 0.691406,0.308594 1.078125,0.609375 0.382812,0.292969 0.726562,0.695312 1.03125,1.203125 0.3125,0.5 0.46875,1.152344 0.46875,1.953125 0,0.65625 -0.148438,1.28125 -0.4375,1.875 C 14,-2.15625 13.570312,-1.625 13,-1.15625 12.425781,-0.695312 11.71875,-0.332031 10.875,-0.0625 10.039062,0.195312 9.0625,0.328125 7.9375,0.328125 Z m 0,0"
           id="path32" />
      </g>
    </g>
  </g>
  <g
     fill="#ffffff"
     fill-opacity="1"
     id="g38"
     transform="matrix(0.32003047,0,0,0.32003047,-0.31281325,-16.69909)">
    <g
       transform="translate(477.36481,87.418145)"
       id="g37">
      <g
         id="g36">
        <path
           d="m 9.265625,0.328125 c -1.085937,0 -2.105469,-0.214844 -3.0625,-0.640625 -0.960937,-0.425781 -1.804687,-1.019531 -2.53125,-1.78125 -0.730469,-0.757812 -1.304687,-1.671875 -1.71875,-2.734375 -0.417969,-1.0625 -0.625,-2.207031 -0.625,-3.4375 0,-1.238281 0.207031,-2.382813 0.625,-3.4375 0.414063,-1.0625 0.988281,-1.972656 1.71875,-2.734375 0.726563,-0.757812 1.570313,-1.351562 2.53125,-1.78125 0.957031,-0.4375 1.976563,-0.65625 3.0625,-0.65625 1.070313,0 1.984375,0.15625 2.734375,0.46875 0.75,0.3125 1.359375,0.65625 1.828125,1.03125 0.476563,0.375 0.820313,0.726562 1.03125,1.046875 0.21875,0.3125 0.328125,0.46875 0.328125,0.46875 h 0.03125 v -2.6875 h 2.640625 V 0 H 15.21875 V -2.640625 H 15.1875 c 0,0 -0.109375,0.164063 -0.328125,0.484375 -0.210937,0.3125 -0.554687,0.652344 -1.03125,1.015625 C 13.359375,-0.773438 12.75,-0.4375 12,-0.125 11.25,0.175781 10.335938,0.328125 9.265625,0.328125 Z M 9.59375,-2.15625 c 0.789062,0 1.523438,-0.144531 2.203125,-0.4375 0.6875,-0.300781 1.285156,-0.71875 1.796875,-1.25 0.507812,-0.539062 0.90625,-1.1875 1.1875,-1.9375 0.289062,-0.75 0.4375,-1.578125 0.4375,-2.484375 0,-0.90625 -0.148438,-1.734375 -0.4375,-2.484375 -0.28125,-0.75 -0.679688,-1.394531 -1.1875,-1.9375 -0.511719,-0.539062 -1.109375,-0.957031 -1.796875,-1.25 -0.679687,-0.300781 -1.414063,-0.453125 -2.203125,-0.453125 -0.792969,0 -1.53125,0.152344 -2.21875,0.453125 -0.6875,0.292969 -1.289062,0.710938 -1.796875,1.25 -0.5,0.542969 -0.898437,1.1875 -1.1875,1.9375 -0.28125,0.75 -0.421875,1.578125 -0.421875,2.484375 0,0.90625 0.140625,1.734375 0.421875,2.484375 0.289063,0.75 0.6875,1.398438 1.1875,1.9375 0.507813,0.53125 1.109375,0.949219 1.796875,1.25 0.6875,0.292969 1.425781,0.4375 2.21875,0.4375 z m 0,0"
           id="path35" />
      </g>
    </g>
  </g>
  <g
     fill="#ffffff"
     fill-opacity="1"
     id="g41"
     transform="matrix(0.32003047,0,0,0.32003047,-0.31281325,-16.69909)">
    <g
       transform="translate(497.54109,87.418145)"
       id="g40">
      <g
         id="g39">
        <path
           d="M 15.875,0 H 2.3125 v -16.546875 h 2.65625 v 14.0625 h 8.59375 v -14.0625 h 2.640625 v 14.0625 h 2.328125 v 6.28125 H 15.875 Z m 0,0"
           id="path38" />
      </g>
    </g>
  </g>
  <g
     fill="#ffffff"
     fill-opacity="1"
     id="g44"
     transform="matrix(0.32003047,0,0,0.32003047,-0.31281325,-16.69909)">
    <g
       transform="translate(516.55972,87.418145)"
       id="g43">
      <g
         id="g42">
        <path
           d="m 2.3125,-16.546875 h 2.65625 v 12.40625 l -0.046875,0.34375 H 5 l 8.890625,-12.75 H 16.875 V 0 H 14.21875 V -12.40625 L 14.25,-12.734375 H 14.1875 L 5.296875,0 H 2.3125 Z m 0,0"
           id="path41" />
      </g>
    </g>
  </g>
  <g
     fill="#ffffff"
     fill-opacity="1"
     id="g47"
     transform="matrix(0.32003047,0,0,0.32003047,-0.31281325,-16.69909)">
    <g
       transform="translate(535.74373,87.418145)"
       id="g46">
      <g
         id="g45">
        <path
           d="m 4.96875,-5.953125 c -0.625,-0.257813 -1.179688,-0.613281 -1.65625,-1.0625 -0.429688,-0.375 -0.8125,-0.875 -1.15625,-1.5 -0.335938,-0.625 -0.5,-1.425781 -0.5,-2.40625 0,-0.789063 0.144531,-1.523437 0.4375,-2.203125 0.300781,-0.6875 0.734375,-1.28125 1.296875,-1.78125 0.5625,-0.507812 1.234375,-0.910156 2.015625,-1.203125 0.78125,-0.289063 1.671875,-0.4375 2.671875,-0.4375 h 7.46875 V 0 H 12.90625 V -5.296875 H 7.609375 L 4.703125,0 H 1.65625 Z m 7.9375,-1.8125 V -14.0625 H 8.109375 c -1.261719,0 -2.214844,0.292969 -2.859375,0.875 -0.636719,0.585938 -0.953125,1.339844 -0.953125,2.265625 0,0.929687 0.316406,1.6875 0.953125,2.28125 0.644531,0.585937 1.597656,0.875 2.859375,0.875 z m 0,0"
           id="path44" />
      </g>
    </g>
  </g>
  <g
     fill="#ffffff"
     fill-opacity="1"
     id="g50"
     transform="matrix(0.32003047,0,0,0.32003047,-0.31281325,-16.69909)">
    <g
       transform="translate(553.6047,87.418145)"
       id="g49">
      <g
         id="g48" />
    </g>
  </g>
  <g
     fill="#ffffff"
     fill-opacity="1"
     id="g53"
     transform="matrix(0.32003047,0,0,0.32003047,-0.31281325,-16.69909)">
    <g
       transform="translate(562.86595,87.418145)"
       id="g52">
      <g
         id="g51">
        <path
           d="m 5.953125,-14.0625 h -5.78125 v -2.484375 h 14.21875 V -14.0625 H 8.59375 V 0 H 5.953125 Z m 0,0"
           id="path50" />
      </g>
    </g>
  </g>
  <g
     fill="#ffffff"
     fill-opacity="1"
     id="g56"
     transform="matrix(0.32003047,0,0,0.32003047,-0.31281325,-16.69909)">
    <g
       transform="translate(577.41934,87.418145)"
       id="g55">
      <g
         id="g54">
        <path
           d="m 9.921875,0.328125 c -1.230469,0 -2.375,-0.214844 -3.4375,-0.640625 C 5.421875,-0.738281 4.507812,-1.332031 3.75,-2.09375 2.988281,-2.851562 2.394531,-3.765625 1.96875,-4.828125 c -0.429688,-1.0625 -0.640625,-2.207031 -0.640625,-3.4375 0,-1.238281 0.210937,-2.382813 0.640625,-3.4375 0.425781,-1.0625 1.019531,-1.972656 1.78125,-2.734375 0.757812,-0.757812 1.671875,-1.351562 2.734375,-1.78125 1.0625,-0.4375 2.207031,-0.65625 3.4375,-0.65625 1.238281,0 2.382813,0.21875 3.4375,0.65625 1.0625,0.429688 1.972656,1.023438 2.734375,1.78125 0.757812,0.761719 1.351562,1.671875 1.78125,2.734375 0.4375,1.054687 0.65625,2.199219 0.65625,3.4375 0,1.230469 -0.21875,2.375 -0.65625,3.4375 -0.429688,1.0625 -1.023438,1.976563 -1.78125,2.734375 -0.761719,0.761719 -1.671875,1.355469 -2.734375,1.78125 -1.054687,0.425781 -2.199219,0.640625 -3.4375,0.640625 z m 0,-2.484375 c 0.863281,0 1.65625,-0.144531 2.375,-0.4375 0.726563,-0.300781 1.359375,-0.71875 1.890625,-1.25 0.53125,-0.539062 0.941406,-1.1875 1.234375,-1.9375 0.300781,-0.75 0.453125,-1.578125 0.453125,-2.484375 0,-0.90625 -0.152344,-1.734375 -0.453125,-2.484375 -0.292969,-0.75 -0.703125,-1.394531 -1.234375,-1.9375 -0.53125,-0.539062 -1.164062,-0.957031 -1.890625,-1.25 -0.71875,-0.300781 -1.511719,-0.453125 -2.375,-0.453125 -0.855469,0 -1.648437,0.152344 -2.375,0.453125 -0.730469,0.292969 -1.359375,0.710938 -1.890625,1.25 -0.53125,0.542969 -0.949219,1.1875 -1.25,1.9375 -0.292969,0.75 -0.4375,1.578125 -0.4375,2.484375 0,0.90625 0.144531,1.734375 0.4375,2.484375 0.300781,0.75 0.71875,1.398438 1.25,1.9375 0.53125,0.53125 1.160156,0.949219 1.890625,1.25 0.726563,0.292969 1.519531,0.4375 2.375,0.4375 z m 0,0"
           id="path53" />
      </g>
    </g>
  </g>
  <g
     fill="#ffffff"
     fill-opacity="1"
     id="g59"
     transform="matrix(0.32003047,0,0,0.32003047,-0.31281325,-16.69909)">
    <g
       transform="translate(597.26488,87.418145)"
       id="g58">
      <g
         id="g57">
        <path
           d="m 2.3125,-16.546875 h 2.65625 v 2.65625 H 5 c 0,0 0.101562,-0.160156 0.3125,-0.484375 0.207031,-0.320312 0.546875,-0.660156 1.015625,-1.015625 0.476563,-0.363281 1.09375,-0.703125 1.84375,-1.015625 0.75,-0.3125 1.664063,-0.46875 2.75,-0.46875 1.070313,0 2.085937,0.21875 3.046875,0.65625 0.96875,0.429688 1.8125,1.023438 2.53125,1.78125 0.726562,0.761719 1.300781,1.671875 1.71875,2.734375 0.425781,1.054687 0.640625,2.199219 0.640625,3.4375 0,1.230469 -0.214844,2.375 -0.640625,3.4375 -0.417969,1.0625 -0.992188,1.976563 -1.71875,2.734375 -0.71875,0.761719 -1.5625,1.355469 -2.53125,1.78125 -0.960938,0.425781 -1.976562,0.640625 -3.046875,0.640625 -1.085937,0 -2,-0.152344 -2.75,-0.453125 -0.75,-0.3125 -1.367187,-0.648438 -1.84375,-1.015625 C 5.859375,-1.503906 5.519531,-1.84375 5.3125,-2.15625 5.101562,-2.476562 5,-2.640625 5,-2.640625 H 4.96875 V 6.28125 H 2.3125 Z m 8.265625,14.390625 c 0.800781,0 1.539063,-0.144531 2.21875,-0.4375 0.6875,-0.300781 1.28125,-0.71875 1.78125,-1.25 0.507813,-0.539062 0.90625,-1.1875 1.1875,-1.9375 0.289063,-0.75 0.4375,-1.578125 0.4375,-2.484375 0,-0.90625 -0.148437,-1.734375 -0.4375,-2.484375 -0.28125,-0.75 -0.679687,-1.394531 -1.1875,-1.9375 -0.5,-0.539062 -1.09375,-0.957031 -1.78125,-1.25 -0.679687,-0.300781 -1.417969,-0.453125 -2.21875,-0.453125 -0.792969,0 -1.53125,0.152344 -2.21875,0.453125 -0.679687,0.292969 -1.273437,0.710938 -1.78125,1.25 -0.5,0.542969 -0.898437,1.1875 -1.1875,1.9375 -0.28125,0.75 -0.421875,1.578125 -0.421875,2.484375 0,0.90625 0.140625,1.734375 0.421875,2.484375 0.289063,0.75 0.6875,1.398438 1.1875,1.9375 0.507813,0.53125 1.101563,0.949219 1.78125,1.25 0.6875,0.292969 1.425781,0.4375 2.21875,0.4375 z m 0,0"
           id="path56" />
      </g>
    </g>
  </g>
  <g
     fill="#ffffff"
     fill-opacity="1"
     id="g62"
     transform="matrix(0.32003047,0,0,0.32003047,-0.31281325,-16.69909)">
    <g
       transform="translate(617.44116,87.418145)"
       id="g61">
      <g
         id="g60">
        <path
           d="M 2.3125,-16.546875 H 13.734375 V -14.0625 H 4.96875 V 0 H 2.3125 Z m 0,0"
           id="path59" />
      </g>
    </g>
  </g>
  <g
     fill="#ffffff"
     fill-opacity="1"
     id="g65"
     transform="matrix(0.32003047,0,0,0.32003047,-0.31281325,-16.69909)">
    <g
       transform="translate(631.4984,87.418145)"
       id="g64">
      <g
         id="g63">
        <path
           d="m 9.921875,0.328125 c -1.230469,0 -2.375,-0.214844 -3.4375,-0.640625 C 5.421875,-0.738281 4.507812,-1.332031 3.75,-2.09375 2.988281,-2.851562 2.394531,-3.765625 1.96875,-4.828125 c -0.429688,-1.0625 -0.640625,-2.207031 -0.640625,-3.4375 0,-1.238281 0.210937,-2.382813 0.640625,-3.4375 0.425781,-1.0625 1.019531,-1.972656 1.78125,-2.734375 0.757812,-0.757812 1.671875,-1.351562 2.734375,-1.78125 1.0625,-0.4375 2.207031,-0.65625 3.4375,-0.65625 1.238281,0 2.382813,0.21875 3.4375,0.65625 1.0625,0.429688 1.972656,1.023438 2.734375,1.78125 0.757812,0.761719 1.351562,1.671875 1.78125,2.734375 0.4375,1.054687 0.65625,2.199219 0.65625,3.4375 0,1.230469 -0.21875,2.375 -0.65625,3.4375 -0.429688,1.0625 -1.023438,1.976563 -1.78125,2.734375 -0.761719,0.761719 -1.671875,1.355469 -2.734375,1.78125 -1.054687,0.425781 -2.199219,0.640625 -3.4375,0.640625 z m 0,-2.484375 c 0.863281,0 1.65625,-0.144531 2.375,-0.4375 0.726563,-0.300781 1.359375,-0.71875 1.890625,-1.25 0.53125,-0.539062 0.941406,-1.1875 1.234375,-1.9375 0.300781,-0.75 0.453125,-1.578125 0.453125,-2.484375 0,-0.90625 -0.152344,-1.734375 -0.453125,-2.484375 -0.292969,-0.75 -0.703125,-1.394531 -1.234375,-1.9375 -0.53125,-0.539062 -1.164062,-0.957031 -1.890625,-1.25 -0.71875,-0.300781 -1.511719,-0.453125 -2.375,-0.453125 -0.855469,0 -1.648437,0.152344 -2.375,0.453125 -0.730469,0.292969 -1.359375,0.710938 -1.890625,1.25 -0.53125,0.542969 -0.949219,1.1875 -1.25,1.9375 -0.292969,0.75 -0.4375,1.578125 -0.4375,2.484375 0,0.90625 0.144531,1.734375 0.4375,2.484375 0.300781,0.75 0.71875,1.398438 1.25,1.9375 0.53125,0.53125 1.160156,0.949219 1.890625,1.25 0.726563,0.292969 1.519531,0.4375 2.375,0.4375 z m 0,0"
           id="path62" />
      </g>
    </g>
  </g>
  <g
     fill="#ffffff"
     fill-opacity="1"
     id="g68"
     transform="matrix(0.32003047,0,0,0.32003047,-0.31281325,-16.69909)">
    <g
       transform="translate(651.34391,87.418145)"
       id="g67">
      <g
         id="g66">
        <path
           d="m 2.3125,-16.546875 h 8.109375 c 1.582031,0 2.800781,0.402344 3.65625,1.203125 0.863281,0.792969 1.296875,1.773438 1.296875,2.9375 0,0.75 -0.117188,1.359375 -0.34375,1.828125 -0.230469,0.460937 -0.496094,0.824219 -0.796875,1.09375 -0.292969,0.261719 -0.574219,0.445313 -0.84375,0.546875 -0.261719,0.09375 -0.421875,0.140625 -0.484375,0.140625 v 0.03125 c 0.03906,0 0.222656,0.054687 0.546875,0.15625 0.332031,0.09375 0.691406,0.289063 1.078125,0.578125 0.382812,0.28125 0.734375,0.683594 1.046875,1.203125 0.3125,0.523437 0.46875,1.199219 0.46875,2.03125 0,1.417969 -0.480469,2.574219 -1.4375,3.46875 C 13.648438,-0.441406 12.265625,0 10.453125,0 H 2.3125 Z m 8.109375,14.0625 c 0.988281,0 1.726563,-0.222656 2.21875,-0.671875 0.5,-0.457031 0.75,-1.0625 0.75,-1.8125 0,-0.75 -0.25,-1.347656 -0.75,-1.796875 C 12.148438,-7.210938 11.410156,-7.4375 10.421875,-7.4375 H 4.96875 v 4.953125 z M 10.25,-9.765625 c 0.84375,0 1.46875,-0.191406 1.875,-0.578125 0.40625,-0.382812 0.609375,-0.90625 0.609375,-1.5625 0,-0.664062 -0.203125,-1.191406 -0.609375,-1.578125 C 11.71875,-13.867188 11.09375,-14.0625 10.25,-14.0625 H 4.96875 v 4.296875 z m 0,0"
           id="path65" />
      </g>
    </g>
  </g>
  <g
     fill="#ffffff"
     fill-opacity="1"
     id="g71"
     transform="matrix(0.32003047,0,0,0.32003047,-0.31281325,-16.69909)">
    <g
       transform="translate(668.70874,87.418145)"
       id="g70">
      <g
         id="g69">
        <path
           d="m 4.96875,-16.546875 h 6.9375 L 16.546875,0 h -2.8125 l -3.8125,-14.0625 H 6.953125 L 3.140625,0 h -2.8125 z m 0,0"
           id="path68" />
      </g>
    </g>
  </g>
  <g
     fill="#ffffff"
     fill-opacity="1"
     id="g74"
     transform="matrix(0.32003047,0,0,0.32003047,-0.31281325,-16.69909)">
    <g
       transform="translate(685.57744,87.418145)"
       id="g73">
      <g
         id="g72">
        <path
           d="m 2.3125,-16.546875 h 2.65625 v 12.40625 l -0.046875,0.34375 H 5 l 8.890625,-12.75 H 16.875 V 0 H 14.21875 V -12.40625 L 14.25,-12.734375 H 14.1875 L 5.296875,0 H 2.3125 Z m 0,0"
           id="path71" />
      </g>
    </g>
  </g>
  <g
     fill="#ffffff"
     fill-opacity="1"
     id="g77"
     transform="matrix(0.32003047,0,0,0.32003047,-0.31281325,-16.69909)">
    <g
       transform="translate(704.76146,87.418145)"
       id="g76">
      <g
         id="g75">
        <path
           d="M 1.65625,2.8125 C 2.976562,2.65625 3.640625,1.9375 3.640625,0.65625 V 0.171875 C 3.597656,0.210938 3.53125,0.242188 3.4375,0.265625 3.257812,0.304688 3.109375,0.328125 2.984375,0.328125 2.554688,0.328125 2.195312,0.175781 1.90625,-0.125 1.625,-0.4375 1.484375,-0.859375 1.484375,-1.390625 c 0,-0.632813 0.1875,-1.140625 0.5625,-1.515625 0.375,-0.375 0.847656,-0.5625 1.421875,-0.5625 0.570312,0 1.046875,0.230469 1.421875,0.6875 0.375,0.449219 0.5625,1.210938 0.5625,2.28125 0,1.5 -0.34375,2.625 -1.03125,3.375 C 3.742188,3.625 2.820312,4.046875 1.65625,4.140625 Z m 0,0"
           id="path74" />
      </g>
    </g>
  </g>
  <g
     fill="#ffffff"
     fill-opacity="1"
     id="g80"
     transform="matrix(0.32003047,0,0,0.32003047,-0.31281325,-16.69909)">
    <g
       transform="translate(309.97748,124.81841)"
       id="g79">
      <g
         id="g78">
        <path
           d="m 9.59375,0.328125 c -1.167969,0 -2.257812,-0.214844 -3.265625,-0.640625 -1,-0.425781 -1.871094,-1.019531 -2.609375,-1.78125 -0.742188,-0.757812 -1.324219,-1.671875 -1.75,-2.734375 -0.429688,-1.0625 -0.640625,-2.207031 -0.640625,-3.4375 0,-1.238281 0.210937,-2.382813 0.640625,-3.4375 0.425781,-1.0625 1.007812,-1.972656 1.75,-2.734375 0.738281,-0.757812 1.609375,-1.351562 2.609375,-1.78125 1.007813,-0.4375 2.097656,-0.65625 3.265625,-0.65625 0.8125,0 1.550781,0.08594 2.21875,0.25 0.675781,0.167969 1.28125,0.390625 1.8125,0.671875 0.53125,0.273437 0.992188,0.585937 1.390625,0.9375 0.394531,0.355469 0.738281,0.710937 1.03125,1.0625 0.675781,0.855469 1.171875,1.8125 1.484375,2.875 h -2.640625 c -0.273437,-0.613281 -0.636719,-1.164063 -1.09375,-1.65625 -0.398437,-0.414063 -0.9375,-0.796875 -1.625,-1.140625 -0.6875,-0.34375 -1.546875,-0.515625 -2.578125,-0.515625 -0.792969,0 -1.53125,0.152344 -2.21875,0.453125 -0.6875,0.292969 -1.289062,0.710938 -1.796875,1.25 -0.5,0.542969 -0.898437,1.1875 -1.1875,1.9375 -0.28125,0.75 -0.421875,1.578125 -0.421875,2.484375 0,0.929687 0.148438,1.765625 0.453125,2.515625 0.3125,0.75 0.722656,1.390625 1.234375,1.921875 0.507812,0.523437 1.101562,0.933594 1.78125,1.234375 0.6875,0.292969 1.40625,0.4375 2.15625,0.4375 1.082031,0 1.96875,-0.1875 2.65625,-0.5625 0.695312,-0.375 1.253906,-0.789062 1.671875,-1.25 0.488281,-0.53125 0.863281,-1.132812 1.125,-1.8125 h 2.65625 c -0.3125,1.167969 -0.824219,2.1875 -1.53125,3.0625 -0.304687,0.375 -0.65625,0.746094 -1.0625,1.109375 -0.398437,0.367187 -0.867187,0.695313 -1.40625,0.984375 C 13.171875,-0.34375 12.5625,-0.113281 11.875,0.0625 11.1875,0.238281 10.425781,0.328125 9.59375,0.328125 Z m 0,0"
           id="path77" />
      </g>
    </g>
  </g>
  <g
     fill="#ffffff"
     fill-opacity="1"
     id="g83"
     transform="matrix(0.32003047,0,0,0.32003047,-0.31281325,-16.69909)">
    <g
       transform="translate(328.66536,124.81841)"
       id="g82">
      <g
         id="g81">
        <path
           d="M 9.765625,0.171875 C 8.523438,0.078125 7.375,-0.195312 6.3125,-0.65625 5.257812,-1.125 4.351562,-1.738281 3.59375,-2.5 2.832031,-3.257812 2.234375,-4.128906 1.796875,-5.109375 1.367188,-6.085938 1.15625,-7.140625 1.15625,-8.265625 c 0,-1.125 0.210938,-2.175781 0.640625,-3.15625 0.4375,-0.988281 1.035156,-1.863281 1.796875,-2.625 0.757812,-0.757813 1.664062,-1.367187 2.71875,-1.828125 1.0625,-0.46875 2.210938,-0.742188 3.453125,-0.828125 v -6.453125 h 2.640625 v 6.453125 c 1.226562,0.08594 2.375,0.359375 3.4375,0.828125 1.0625,0.460938 1.972656,1.070312 2.734375,1.828125 0.757813,0.761719 1.351563,1.636719 1.78125,2.625 C 20.785156,-10.441406 21,-9.390625 21,-8.265625 c 0,1.125 -0.214844,2.179687 -0.640625,3.15625 -0.429687,0.980469 -1.023437,1.851563 -1.78125,2.609375 -0.761719,0.761719 -1.671875,1.375 -2.734375,1.84375 -1.0625,0.460938 -2.210938,0.734375 -3.4375,0.828125 V 6.28125 H 9.765625 Z m 0,-14.390625 C 8.898438,-14.175781 8.101562,-14 7.375,-13.6875 c -0.730469,0.304688 -1.359375,0.71875 -1.890625,1.25 -0.523437,0.53125 -0.933594,1.15625 -1.234375,1.875 -0.304688,0.710938 -0.453125,1.476562 -0.453125,2.296875 0,0.835937 0.148437,1.605469 0.453125,2.3125 0.300781,0.710937 0.710938,1.328125 1.234375,1.859375 0.53125,0.523438 1.160156,0.9375 1.890625,1.25 0.726562,0.3125 1.523438,0.492188 2.390625,0.53125 z M 12.40625,-2.3125 c 0.851562,-0.039062 1.644531,-0.21875 2.375,-0.53125 0.726562,-0.3125 1.359375,-0.726562 1.890625,-1.25 0.53125,-0.53125 0.941406,-1.148438 1.234375,-1.859375 0.300781,-0.707031 0.453125,-1.476563 0.453125,-2.3125 0,-0.820313 -0.152344,-1.585937 -0.453125,-2.296875 -0.292969,-0.71875 -0.703125,-1.34375 -1.234375,-1.875 -0.53125,-0.53125 -1.164063,-0.945312 -1.890625,-1.25 -0.730469,-0.3125 -1.523438,-0.488281 -2.375,-0.53125 z m 0,0"
           id="path80" />
      </g>
    </g>
  </g>
  <g
     fill="#ffffff"
     fill-opacity="1"
     id="g86"
     transform="matrix(0.32003047,0,0,0.32003047,-0.31281325,-16.69909)">
    <g
       transform="translate(350.8262,124.81841)"
       id="g85">
      <g
         id="g84">
        <path
           d="M 9.765625,0.328125 C 8.566406,0.328125 7.445312,0.113281 6.40625,-0.3125 5.375,-0.738281 4.484375,-1.332031 3.734375,-2.09375 c -0.75,-0.757812 -1.339844,-1.671875 -1.765625,-2.734375 -0.429688,-1.0625 -0.640625,-2.207031 -0.640625,-3.4375 0,-1.238281 0.210937,-2.382813 0.640625,-3.4375 0.425781,-1.0625 1.015625,-1.972656 1.765625,-2.734375 0.75,-0.757812 1.640625,-1.351562 2.671875,-1.78125 1.039062,-0.4375 2.160156,-0.65625 3.359375,-0.65625 1.1875,0 2.296875,0.21875 3.328125,0.65625 1.039062,0.429688 1.9375,1.015625 2.6875,1.765625 0.75,0.75 1.335938,1.648437 1.765625,2.6875 0.425781,1.03125 0.640625,2.140625 0.640625,3.328125 v 1 H 3.96875 c 0.09375,0.773438 0.300781,1.484375 0.625,2.140625 0.332031,0.648437 0.75,1.203125 1.25,1.671875 0.507812,0.460938 1.101562,0.820312 1.78125,1.078125 0.675781,0.261719 1.390625,0.390625 2.140625,0.390625 0.988281,0 1.820313,-0.148438 2.5,-0.453125 0.6875,-0.3125 1.25,-0.65625 1.6875,-1.03125 0.507813,-0.414063 0.929687,-0.910156 1.265625,-1.484375 h 2.640625 c -0.398437,1.03125 -0.960937,1.949219 -1.6875,2.75 -0.636719,0.679688 -1.476563,1.296875 -2.515625,1.859375 -1.03125,0.5625 -2.328125,0.84375 -3.890625,0.84375 z M 15.375,-9.765625 C 15.289062,-10.378906 15.097656,-10.96875 14.796875,-11.53125 14.503906,-12.09375 14.113281,-12.582031 13.625,-13 c -0.480469,-0.414062 -1.046875,-0.75 -1.703125,-1 -0.648437,-0.257812 -1.367187,-0.390625 -2.15625,-0.390625 -0.804687,0 -1.53125,0.132813 -2.1875,0.390625 -0.648437,0.25 -1.21875,0.585938 -1.71875,1 -0.492187,0.417969 -0.890625,0.90625 -1.203125,1.46875 -0.304688,0.5625 -0.511719,1.152344 -0.625,1.765625 z m 0,0"
           id="path83" />
      </g>
    </g>
  </g>
  <g
     fill="#ffffff"
     fill-opacity="1"
     id="g89"
     transform="matrix(0.32003047,0,0,0.32003047,-0.31281325,-16.69909)">
    <g
       transform="translate(370.34097,124.81841)"
       id="g88">
      <g
         id="g87">
        <path
           d="m 2.3125,-16.546875 h 2.65625 v 2.65625 H 5 c 0,0 0.101562,-0.160156 0.3125,-0.484375 0.207031,-0.320312 0.546875,-0.660156 1.015625,-1.015625 0.476563,-0.363281 1.09375,-0.703125 1.84375,-1.015625 0.75,-0.3125 1.664063,-0.46875 2.75,-0.46875 1.070313,0 2.085937,0.21875 3.046875,0.65625 0.96875,0.429688 1.8125,1.023438 2.53125,1.78125 0.726562,0.761719 1.300781,1.671875 1.71875,2.734375 0.425781,1.054687 0.640625,2.199219 0.640625,3.4375 0,1.230469 -0.214844,2.375 -0.640625,3.4375 -0.417969,1.0625 -0.992188,1.976563 -1.71875,2.734375 -0.71875,0.761719 -1.5625,1.355469 -2.53125,1.78125 -0.960938,0.425781 -1.976562,0.640625 -3.046875,0.640625 -1.085937,0 -2,-0.152344 -2.75,-0.453125 -0.75,-0.3125 -1.367187,-0.648438 -1.84375,-1.015625 C 5.859375,-1.503906 5.519531,-1.84375 5.3125,-2.15625 5.101562,-2.476562 5,-2.640625 5,-2.640625 H 4.96875 V 6.28125 H 2.3125 Z m 8.265625,14.390625 c 0.800781,0 1.539063,-0.144531 2.21875,-0.4375 0.6875,-0.300781 1.28125,-0.71875 1.78125,-1.25 0.507813,-0.539062 0.90625,-1.1875 1.1875,-1.9375 0.289063,-0.75 0.4375,-1.578125 0.4375,-2.484375 0,-0.90625 -0.148437,-1.734375 -0.4375,-2.484375 -0.28125,-0.75 -0.679687,-1.394531 -1.1875,-1.9375 -0.5,-0.539062 -1.09375,-0.957031 -1.78125,-1.25 -0.679687,-0.300781 -1.417969,-0.453125 -2.21875,-0.453125 -0.792969,0 -1.53125,0.152344 -2.21875,0.453125 -0.679687,0.292969 -1.273437,0.710938 -1.78125,1.25 -0.5,0.542969 -0.898437,1.1875 -1.1875,1.9375 -0.28125,0.75 -0.421875,1.578125 -0.421875,2.484375 0,0.90625 0.140625,1.734375 0.421875,2.484375 0.289063,0.75 0.6875,1.398438 1.1875,1.9375 0.507813,0.53125 1.101563,0.949219 1.78125,1.25 0.6875,0.292969 1.425781,0.4375 2.21875,0.4375 z m 0,0"
           id="path86" />
      </g>
    </g>
  </g>
  <g
     fill="#ffffff"
     fill-opacity="1"
     id="g92"
     transform="matrix(0.32003047,0,0,0.32003047,-0.31281325,-16.69909)">
    <g
       transform="translate(390.51725,124.81841)"
       id="g91">
      <g
         id="g90">
        <path
           d="m 2.3125,-16.546875 h 2.65625 v 5.625 H 8.9375 c 0.945312,0 1.804688,0.148437 2.578125,0.4375 0.769531,0.28125 1.429687,0.671875 1.984375,1.171875 0.550781,0.5 0.972656,1.085938 1.265625,1.75 0.300781,0.65625 0.453125,1.359375 0.453125,2.109375 0,0.75 -0.152344,1.460937 -0.453125,2.125 C 14.472656,-2.671875 14.050781,-2.09375 13.5,-1.59375 12.945312,-1.101562 12.285156,-0.710938 11.515625,-0.421875 10.742188,-0.140625 9.882812,0 8.9375,0 h -6.625 z m 6.625,14.0625 c 1.164062,0 2.0625,-0.285156 2.6875,-0.859375 0.625,-0.570312 0.9375,-1.273438 0.9375,-2.109375 0,-0.84375 -0.3125,-1.550781 -0.9375,-2.125 C 11,-8.148438 10.101562,-8.4375 8.9375,-8.4375 H 4.96875 v 5.953125 z m 8.421875,-14.0625 h 2.65625 V 0 h -2.65625 z m 0,0"
           id="path89" />
      </g>
    </g>
  </g>
  <g
     fill="#ffffff"
     fill-opacity="1"
     id="g95"
     transform="matrix(0.32003047,0,0,0.32003047,-0.31281325,-16.69909)">
    <g
       transform="translate(412.84347,124.81841)"
       id="g94">
      <g
         id="g93" />
    </g>
  </g>
  <g
     fill="#ffffff"
     fill-opacity="1"
     id="g98"
     transform="matrix(0.32003047,0,0,0.32003047,-0.31281325,-16.69909)">
    <g
       transform="translate(422.10471,124.81841)"
       id="g97">
      <g
         id="g96">
        <path
           d="M 8.9375,0 H 5.125 L 0.65625,-16.546875 h 2.8125 l 3.640625,14.0625 H 9.59375 l 4.296875,-14.0625 h 2.8125 L 9.765625,6.28125 h -2.8125 z m 0,0"
           id="path95" />
      </g>
    </g>
  </g>
  <g
     fill="#ffffff"
     fill-opacity="1"
     id="g101"
     transform="matrix(0.32003047,0,0,0.32003047,-0.31281325,-16.69909)">
    <g
       transform="translate(438.80804,124.81841)"
       id="g100">
      <g
         id="g99">
        <path
           d="m 9.59375,0.328125 c -1.167969,0 -2.257812,-0.214844 -3.265625,-0.640625 -1,-0.425781 -1.871094,-1.019531 -2.609375,-1.78125 -0.742188,-0.757812 -1.324219,-1.671875 -1.75,-2.734375 -0.429688,-1.0625 -0.640625,-2.207031 -0.640625,-3.4375 0,-1.238281 0.210937,-2.382813 0.640625,-3.4375 0.425781,-1.0625 1.007812,-1.972656 1.75,-2.734375 0.738281,-0.757812 1.609375,-1.351562 2.609375,-1.78125 1.007813,-0.4375 2.097656,-0.65625 3.265625,-0.65625 0.8125,0 1.550781,0.08594 2.21875,0.25 0.675781,0.167969 1.28125,0.390625 1.8125,0.671875 0.53125,0.273437 0.992188,0.585937 1.390625,0.9375 0.394531,0.355469 0.738281,0.710937 1.03125,1.0625 0.675781,0.855469 1.171875,1.8125 1.484375,2.875 h -2.640625 c -0.273437,-0.613281 -0.636719,-1.164063 -1.09375,-1.65625 -0.398437,-0.414063 -0.9375,-0.796875 -1.625,-1.140625 -0.6875,-0.34375 -1.546875,-0.515625 -2.578125,-0.515625 -0.792969,0 -1.53125,0.152344 -2.21875,0.453125 -0.6875,0.292969 -1.289062,0.710938 -1.796875,1.25 -0.5,0.542969 -0.898437,1.1875 -1.1875,1.9375 -0.28125,0.75 -0.421875,1.578125 -0.421875,2.484375 0,0.929687 0.148438,1.765625 0.453125,2.515625 0.3125,0.75 0.722656,1.390625 1.234375,1.921875 0.507812,0.523437 1.101562,0.933594 1.78125,1.234375 0.6875,0.292969 1.40625,0.4375 2.15625,0.4375 1.082031,0 1.96875,-0.1875 2.65625,-0.5625 0.695312,-0.375 1.253906,-0.789062 1.671875,-1.25 0.488281,-0.53125 0.863281,-1.132812 1.125,-1.8125 h 2.65625 c -0.3125,1.167969 -0.824219,2.1875 -1.53125,3.0625 -0.304687,0.375 -0.65625,0.746094 -1.0625,1.109375 -0.398437,0.367187 -0.867187,0.695313 -1.40625,0.984375 C 13.171875,-0.34375 12.5625,-0.113281 11.875,0.0625 11.1875,0.238281 10.425781,0.328125 9.59375,0.328125 Z m 0,0"
           id="path98" />
      </g>
    </g>
  </g>
  <g
     fill="#ffffff"
     fill-opacity="1"
     id="g104"
     transform="matrix(0.32003047,0,0,0.32003047,-0.31281325,-16.69909)">
    <g
       transform="translate(457.49591,124.81841)"
       id="g103">
      <g
         id="g102">
        <path
           d="m 4.96875,-16.546875 h 6.9375 L 16.546875,0 h -2.8125 l -3.8125,-14.0625 H 6.953125 L 3.140625,0 h -2.8125 z m 0,0"
           id="path101" />
      </g>
    </g>
  </g>
  <g
     fill="#ffffff"
     fill-opacity="1"
     id="g107"
     transform="matrix(0.32003047,0,0,0.32003047,-0.31281325,-16.69909)">
    <g
       transform="translate(474.36461,124.81841)"
       id="g106">
      <g
         id="g105">
        <path
           d="M 8.9375,0 H 5.125 L 0.65625,-16.546875 h 2.8125 l 3.640625,14.0625 H 9.59375 l 4.296875,-14.0625 h 2.8125 L 9.765625,6.28125 h -2.8125 z m 0,0"
           id="path104" />
      </g>
    </g>
  </g>
  <g
     fill="#ffffff"
     fill-opacity="1"
     id="g110"
     transform="matrix(0.32003047,0,0,0.32003047,-0.31281325,-16.69909)">
    <g
       transform="translate(491.06793,124.81841)"
       id="g109">
      <g
         id="g108">
        <path
           d="M 2.3125,-16.546875 H 13.734375 V -14.0625 H 4.96875 V 0 H 2.3125 Z m 0,0"
           id="path107" />
      </g>
    </g>
  </g>
  <g
     fill="#ffffff"
     fill-opacity="1"
     id="g113"
     transform="matrix(0.32003047,0,0,0.32003047,-0.31281325,-16.69909)">
    <g
       transform="translate(505.12518,124.81841)"
       id="g112">
      <g
         id="g111" />
    </g>
  </g>
  <g
     fill="#ffffff"
     fill-opacity="1"
     id="g116"
     transform="matrix(0.32003047,0,0,0.32003047,-0.31281325,-16.69909)">
    <g
       transform="translate(514.38643,124.81841)"
       id="g115">
      <g
         id="g114">
        <path
           d="m 2.3125,-16.546875 h 2.65625 v 12.40625 l -0.046875,0.34375 H 5 l 8.890625,-12.75 H 16.875 V 0 H 14.21875 V -12.40625 L 14.25,-12.734375 H 14.1875 L 5.296875,0 H 2.3125 Z m 0,0"
           id="path113" />
      </g>
    </g>
  </g>
  <g
     fill="#ffffff"
     fill-opacity="1"
     id="g119"
     transform="matrix(0.32003047,0,0,0.32003047,-0.31281325,-16.69909)">
    <g
       transform="translate(533.57043,124.81841)"
       id="g118">
      <g
         id="g117" />
    </g>
  </g>
  <g
     fill="#ffffff"
     fill-opacity="1"
     id="g122"
     transform="matrix(0.32003047,0,0,0.32003047,-0.31281325,-16.69909)">
    <g
       transform="translate(542.83167,124.81841)"
       id="g121">
      <g
         id="g120">
        <path
           d="m 4.96875,-16.546875 h 6.9375 L 16.546875,0 h -2.8125 l -3.8125,-14.0625 H 6.953125 L 3.140625,0 h -2.8125 z m 0,0"
           id="path119" />
      </g>
    </g>
  </g>
  <g
     fill="#ffffff"
     fill-opacity="1"
     id="g125"
     transform="matrix(0.32003047,0,0,0.32003047,-0.31281325,-16.69909)">
    <g
       transform="translate(559.70037,124.81841)"
       id="g124">
      <g
         id="g123">
        <path
           d="m 9.921875,0.328125 c -1.230469,0 -2.375,-0.214844 -3.4375,-0.640625 C 5.421875,-0.738281 4.507812,-1.332031 3.75,-2.09375 2.988281,-2.851562 2.394531,-3.765625 1.96875,-4.828125 c -0.429688,-1.0625 -0.640625,-2.207031 -0.640625,-3.4375 0,-1.238281 0.210937,-2.382813 0.640625,-3.4375 0.425781,-1.0625 1.019531,-1.972656 1.78125,-2.734375 0.757812,-0.757812 1.671875,-1.351562 2.734375,-1.78125 1.0625,-0.4375 2.207031,-0.65625 3.4375,-0.65625 1.238281,0 2.382813,0.21875 3.4375,0.65625 1.0625,0.429688 1.972656,1.023438 2.734375,1.78125 0.757812,0.761719 1.351562,1.671875 1.78125,2.734375 0.4375,1.054687 0.65625,2.199219 0.65625,3.4375 0,1.230469 -0.21875,2.375 -0.65625,3.4375 -0.429688,1.0625 -1.023438,1.976563 -1.78125,2.734375 -0.761719,0.761719 -1.671875,1.355469 -2.734375,1.78125 -1.054687,0.425781 -2.199219,0.640625 -3.4375,0.640625 z m 0,-2.484375 c 0.863281,0 1.65625,-0.144531 2.375,-0.4375 0.726563,-0.300781 1.359375,-0.71875 1.890625,-1.25 0.53125,-0.539062 0.941406,-1.1875 1.234375,-1.9375 0.300781,-0.75 0.453125,-1.578125 0.453125,-2.484375 0,-0.90625 -0.152344,-1.734375 -0.453125,-2.484375 -0.292969,-0.75 -0.703125,-1.394531 -1.234375,-1.9375 -0.53125,-0.539062 -1.164062,-0.957031 -1.890625,-1.25 -0.71875,-0.300781 -1.511719,-0.453125 -2.375,-0.453125 -0.855469,0 -1.648437,0.152344 -2.375,0.453125 -0.730469,0.292969 -1.359375,0.710938 -1.890625,1.25 -0.53125,0.542969 -0.949219,1.1875 -1.25,1.9375 -0.292969,0.75 -0.4375,1.578125 -0.4375,2.484375 0,0.90625 0.144531,1.734375 0.4375,2.484375 0.300781,0.75 0.71875,1.398438 1.25,1.9375 0.53125,0.53125 1.160156,0.949219 1.890625,1.25 0.726563,0.292969 1.519531,0.4375 2.375,0.4375 z m 0,0"
           id="path122" />
      </g>
    </g>
  </g>
  <g
     fill="#ffffff"
     fill-opacity="1"
     id="g128"
     transform="matrix(0.32003047,0,0,0.32003047,-0.31281325,-16.69909)">
    <g
       transform="translate(579.54591,124.81841)"
       id="g127">
      <g
         id="g126">
        <path
           d="M 2.3125,-16.546875 H 13.734375 V -14.0625 H 4.96875 V 0 H 2.3125 Z m 0,0"
           id="path125" />
      </g>
    </g>
  </g>
  <g
     fill="#ffffff"
     fill-opacity="1"
     id="g131"
     transform="matrix(0.32003047,0,0,0.32003047,-0.31281325,-16.69909)">
    <g
       transform="translate(593.60315,124.81841)"
       id="g130">
      <g
         id="g129">
        <path
           d="m 2.3125,-16.546875 h 2.65625 v 12.40625 l -0.046875,0.34375 H 5 l 8.890625,-12.75 H 16.875 V 0 H 14.21875 V -12.40625 L 14.25,-12.734375 H 14.1875 L 5.296875,0 H 2.3125 Z m 0,0"
           id="path128" />
      </g>
    </g>
  </g>
  <g
     fill="#ffffff"
     fill-opacity="1"
     id="g134"
     transform="matrix(0.32003047,0,0,0.32003047,-0.31281325,-16.69909)">
    <g
       transform="translate(612.78717,124.81841)"
       id="g133">
      <g
         id="g132">
        <path
           d="m 9.59375,0.328125 c -1.167969,0 -2.257812,-0.214844 -3.265625,-0.640625 -1,-0.425781 -1.871094,-1.019531 -2.609375,-1.78125 -0.742188,-0.757812 -1.324219,-1.671875 -1.75,-2.734375 -0.429688,-1.0625 -0.640625,-2.207031 -0.640625,-3.4375 0,-1.238281 0.210937,-2.382813 0.640625,-3.4375 0.425781,-1.0625 1.007812,-1.972656 1.75,-2.734375 0.738281,-0.757812 1.609375,-1.351562 2.609375,-1.78125 1.007813,-0.4375 2.097656,-0.65625 3.265625,-0.65625 0.8125,0 1.550781,0.08594 2.21875,0.25 0.675781,0.167969 1.28125,0.390625 1.8125,0.671875 0.53125,0.273437 0.992188,0.585937 1.390625,0.9375 0.394531,0.355469 0.738281,0.710937 1.03125,1.0625 0.675781,0.855469 1.171875,1.8125 1.484375,2.875 h -2.640625 c -0.273437,-0.613281 -0.636719,-1.164063 -1.09375,-1.65625 -0.398437,-0.414063 -0.9375,-0.796875 -1.625,-1.140625 -0.6875,-0.34375 -1.546875,-0.515625 -2.578125,-0.515625 -0.792969,0 -1.53125,0.152344 -2.21875,0.453125 -0.6875,0.292969 -1.289062,0.710938 -1.796875,1.25 -0.5,0.542969 -0.898437,1.1875 -1.1875,1.9375 -0.28125,0.75 -0.421875,1.578125 -0.421875,2.484375 0,0.929687 0.148438,1.765625 0.453125,2.515625 0.3125,0.75 0.722656,1.390625 1.234375,1.921875 0.507812,0.523437 1.101562,0.933594 1.78125,1.234375 0.6875,0.292969 1.40625,0.4375 2.15625,0.4375 1.082031,0 1.96875,-0.1875 2.65625,-0.5625 0.695312,-0.375 1.253906,-0.789062 1.671875,-1.25 0.488281,-0.53125 0.863281,-1.132812 1.125,-1.8125 h 2.65625 c -0.3125,1.167969 -0.824219,2.1875 -1.53125,3.0625 -0.304687,0.375 -0.65625,0.746094 -1.0625,1.109375 -0.398437,0.367187 -0.867187,0.695313 -1.40625,0.984375 C 13.171875,-0.34375 12.5625,-0.113281 11.875,0.0625 11.1875,0.238281 10.425781,0.328125 9.59375,0.328125 Z m 0,0"
           id="path131" />
      </g>
    </g>
  </g>
  <g
     fill="#ffffff"
     fill-opacity="1"
     id="g137"
     transform="matrix(0.32003047,0,0,0.32003047,-0.31281325,-16.69909)">
    <g
       transform="translate(631.47505,124.81841)"
       id="g136">
      <g
         id="g135">
        <path
           d="m 5.953125,-14.0625 h -5.78125 v -2.484375 h 14.21875 V -14.0625 H 8.59375 V 0 H 5.953125 Z m 0,0"
           id="path134" />
      </g>
    </g>
  </g>
  <g
     fill="#ffffff"
     fill-opacity="1"
     id="g140"
     transform="matrix(0.32003047,0,0,0.32003047,-0.31281325,-16.69909)">
    <g
       transform="translate(646.02844,124.81841)"
       id="g139">
      <g
         id="g138">
        <path
           d="m 2.3125,-16.546875 h 2.65625 v 12.40625 l -0.046875,0.34375 H 5 l 8.890625,-12.75 H 16.875 V 0 H 14.21875 V -12.40625 L 14.25,-12.734375 H 14.1875 L 5.296875,0 H 2.3125 Z m 0,0"
           id="path137" />
      </g>
    </g>
  </g>
  <g
     fill="#ffffff"
     fill-opacity="1"
     id="g143"
     transform="matrix(0.32003047,0,0,0.32003047,-0.31281325,-16.69909)">
    <g
       transform="translate(665.21246,124.81841)"
       id="g142">
      <g
         id="g141">
        <path
           d="m 2.3125,-16.546875 h 2.65625 v 6.625 h 3.296875 l 5.296875,-6.625 h 3.140625 l -6.125,7.78125 L 17.203125,0 h -3.3125 l -5.625,-7.4375 H 4.96875 V 0 H 2.3125 Z m 0,0"
           id="path140" />
      </g>
    </g>
  </g>
  <g
     fill="#ffffff"
     fill-opacity="1"
     id="g146"
     transform="matrix(0.32003047,0,0,0.32003047,-0.31281325,-16.69909)">
    <g
       transform="translate(682.57729,124.81841)"
       id="g145">
      <g
         id="g144">
        <path
           d="m 2.3125,-16.546875 h 2.65625 v 12.40625 l -0.046875,0.34375 H 5 l 8.890625,-12.75 H 16.875 V 0 H 14.21875 V -12.40625 L 14.25,-12.734375 H 14.1875 L 5.296875,0 H 2.3125 Z m 0,0"
           id="path143" />
      </g>
    </g>
  </g>
</svg>
