<svg width="166" height="78" viewBox="0 0 166 78" fill="none" xmlns="http://www.w3.org/2000/svg">
<path fill-rule="evenodd" clip-rule="evenodd" d="M85.7798 3.54725e-07C91.0567 3.54725e-07 96.118 2.06585 99.8494 5.74306C103.581 9.42027 105.677 14.4078 105.677 19.6081C105.673 24.8058 103.575 29.7888 99.8435 33.4627C96.1123 37.1364 91.0542 39.2 85.7798 39.2C80.5047 39.2008 75.4454 37.1376 71.7137 33.4639C67.9819 29.7901 65.8834 24.8063 65.8789 19.6081C65.8789 17.0329 66.3935 14.483 67.3937 12.1037C68.3941 9.72456 69.8602 7.56268 71.708 5.74184C73.5562 3.92123 75.7497 2.47696 78.1643 1.49157C80.5788 0.50642 83.1664 -0.000489524 85.7798 3.54725e-07ZM85.7798 8.68896C84.3252 8.68896 82.8849 8.97145 81.5415 9.52025C80.1979 10.0693 78.9774 10.8736 77.9494 11.888C76.9214 12.902 76.1067 14.1059 75.5511 15.4304C74.9958 16.7554 74.7107 18.1749 74.7125 19.6082C74.7132 22.5002 75.8799 25.2733 77.9551 27.318C80.0307 29.3627 82.8449 30.5112 85.7798 30.5112C88.7142 30.5112 91.5284 29.3627 93.6033 27.3178C95.678 25.273 96.8438 22.4999 96.8438 19.6082C96.8459 18.1752 96.5611 16.7556 96.0064 15.4306C95.451 14.1061 94.6368 12.9022 93.6088 11.888C92.5812 10.8739 91.3607 10.0693 90.0178 9.52049C88.674 8.97145 87.234 8.68896 85.7798 8.68896Z" fill="white"/>
<path d="M26.1135 0.833576C26.0705 0.757559 25.9886 0.708008 25.8969 0.708008H15.4461L15.38 0.716691C15.2544 0.750603 15.1718 0.87873 15.2044 1.01083L24.396 38.2889L24.4205 38.3505C24.4636 38.4267 24.5459 38.4761 24.6376 38.4761H35.0852L35.1512 38.4674C35.2767 38.4336 35.3592 38.3056 35.3264 38.1732L26.138 0.89519L26.1135 0.833576Z" fill="white"/>
<path d="M65.6248 0.887903C65.5958 0.784233 65.4993 0.708008 65.3851 0.708008H31.8971L31.8311 0.716764C31.726 0.7453 31.6484 0.840312 31.6484 0.953008V9.90313L31.6574 9.96823C31.6863 10.0719 31.7829 10.1481 31.8971 10.1481H43.2392L43.3053 10.1569C43.4106 10.1854 43.4878 10.2804 43.4878 10.3931V38.231L43.4967 38.2963C43.5257 38.4 43.622 38.4761 43.7365 38.4761H53.5423L53.6085 38.4674C53.7138 38.4388 53.7909 38.3439 53.7909 38.231V10.3931L53.7999 10.328C53.8288 10.2243 53.9254 10.1481 54.0395 10.1481H65.3851L65.4511 10.1394C65.5562 10.1108 65.6338 10.0158 65.6338 9.90313V0.953008L65.6248 0.887903Z" fill="white"/>
<path d="M15.2327 19.5967C15.3708 19.5967 15.4777 19.706 15.4814 19.8344L15.4744 19.8998L10.9407 38.2906C10.919 38.3784 10.8508 38.4455 10.7658 38.4688L10.6992 38.4777H0.2487C0.110611 38.4777 0.0037575 38.3685 0 38.2402L0.00704532 38.1748L4.5408 19.7839C4.56248 19.6961 4.63062 19.629 4.71569 19.6056L4.7822 19.5967H15.2327Z" fill="white"/>
<path d="M124.805 0.945452C124.801 0.817091 124.694 0.708008 124.556 0.708008H114.105L114.039 0.716936C113.953 0.740266 113.885 0.80738 113.863 0.89519L104.675 38.1732L104.668 38.2386C104.672 38.3669 104.778 38.4761 104.917 38.4761H115.367L115.434 38.4671C115.519 38.4439 115.587 38.3769 115.609 38.2889L124.797 1.01083L124.805 0.945452Z" fill="white"/>
<path d="M135.218 19.5967C135.31 19.5967 135.392 19.6463 135.434 19.7223L135.459 19.7839L139.992 38.1748C140.026 38.307 139.943 38.4351 139.817 38.469L139.751 38.4777H129.303C129.213 38.4777 129.131 38.4281 129.087 38.3522L129.062 38.2906L124.529 19.8998C124.496 19.7675 124.578 19.6393 124.704 19.6054L124.77 19.5967H135.218Z" fill="white"/>
<path d="M1.776 59.992C0.952 59.152 0.54 58.088 0.54 56.8C0.54 55.512 0.952 54.452 1.776 53.62C2.608 52.78 3.656 52.36 4.92 52.36C6.184 52.36 7.228 52.78 8.052 53.62C8.884 54.452 9.3 55.512 9.3 56.8C9.3 58.088 8.884 59.152 8.052 59.992C7.228 60.824 6.184 61.24 4.92 61.24C3.656 61.24 2.608 60.824 1.776 59.992ZM2.544 54.328C1.928 54.96 1.62 55.784 1.62 56.8C1.62 57.816 1.928 58.64 2.544 59.272C3.16 59.904 3.952 60.22 4.92 60.22C5.888 60.22 6.68 59.904 7.296 59.272C7.912 58.64 8.22 57.816 8.22 56.8C8.22 55.784 7.912 54.96 7.296 54.328C6.68 53.696 5.888 53.38 4.92 53.38C3.952 53.38 3.16 53.696 2.544 54.328ZM10.3238 57.76C10.3238 55.952 10.6558 54.64 11.3198 53.824C11.9838 53.008 12.9718 52.6 14.2838 52.6H15.7238V53.62H14.2838C13.3318 53.62 12.6198 53.844 12.1478 54.292C11.6838 54.732 11.3958 55.448 11.2838 56.44H11.2958C11.4158 56.264 11.5758 56.104 11.7758 55.96C12.2238 55.64 12.7598 55.48 13.3838 55.48C14.1998 55.48 14.8718 55.748 15.3998 56.284C15.9358 56.812 16.2038 57.484 16.2038 58.3C16.2038 59.124 15.9278 59.8 15.3758 60.328C14.8318 60.856 14.1278 61.12 13.2638 61.12C12.3758 61.12 11.6638 60.824 11.1278 60.232C10.5918 59.64 10.3238 58.816 10.3238 57.76ZM11.8478 56.932C11.4718 57.3 11.2838 57.756 11.2838 58.3C11.2838 58.844 11.4718 59.3 11.8478 59.668C12.2238 60.036 12.6958 60.22 13.2638 60.22C13.8318 60.22 14.3038 60.036 14.6798 59.668C15.0558 59.3 15.2438 58.844 15.2438 58.3C15.2438 57.756 15.0558 57.3 14.6798 56.932C14.3038 56.564 13.8318 56.38 13.2638 56.38C12.6958 56.38 12.2238 56.564 11.8478 56.932ZM17.9266 60.232C17.3346 59.64 17.0386 58.896 17.0386 58C17.0386 57.104 17.3346 56.36 17.9266 55.768C18.5186 55.176 19.2626 54.88 20.1586 54.88C21.0546 54.88 21.7986 55.176 22.3906 55.768C22.9826 56.36 23.2786 57.104 23.2786 58C23.2786 58.896 22.9826 59.64 22.3906 60.232C21.7986 60.824 21.0546 61.12 20.1586 61.12C19.2626 61.12 18.5186 60.824 17.9266 60.232ZM18.6106 56.404C18.2026 56.82 17.9986 57.352 17.9986 58C17.9986 58.648 18.2026 59.18 18.6106 59.596C19.0186 60.012 19.5346 60.22 20.1586 60.22C20.7826 60.22 21.2986 60.012 21.7066 59.596C22.1146 59.18 22.3186 58.648 22.3186 58C22.3186 57.352 22.1146 56.82 21.7066 56.404C21.2986 55.988 20.7826 55.78 20.1586 55.78C19.5346 55.78 19.0186 55.988 18.6106 56.404ZM24.5939 63.28V55H25.5539V55.96H25.5659L25.6859 55.78C25.8219 55.572 26.0659 55.372 26.4179 55.18C26.7699 54.98 27.2019 54.88 27.7139 54.88C28.5139 54.88 29.1939 55.18 29.7539 55.78C30.3139 56.372 30.5939 57.112 30.5939 58C30.5939 58.888 30.3139 59.632 29.7539 60.232C29.1939 60.824 28.5139 61.12 27.7139 61.12C27.2019 61.12 26.7659 61.024 26.4059 60.832C26.0539 60.632 25.8139 60.424 25.6859 60.208L25.5659 60.04H25.5539V63.28H24.5939ZM26.1299 56.404C25.7459 56.82 25.5539 57.352 25.5539 58C25.5539 58.648 25.7459 59.18 26.1299 59.596C26.5219 60.012 27.0099 60.22 27.5939 60.22C28.1779 60.22 28.6619 60.012 29.0459 59.596C29.4379 59.18 29.6339 58.648 29.6339 58C29.6339 57.352 29.4379 56.82 29.0459 56.404C28.6619 55.988 28.1779 55.78 27.5939 55.78C27.0099 55.78 26.5219 55.988 26.1299 56.404ZM31.1423 55H32.1623L33.4823 60.1H34.3823L35.9423 55H36.9623L34.4423 63.28H33.4223L34.1423 61H32.7623L31.1423 55ZM36.7866 62.38V60.1H37.4466L38.8266 55H41.3466L42.7266 60.1H43.3866V62.38H42.4266V61H37.7466V62.38H36.7866ZM38.4066 60.1H41.7666L40.6266 55.9H39.5466L38.4066 60.1ZM44.8094 60.232C44.2174 59.64 43.9214 58.896 43.9214 58C43.9214 57.104 44.2174 56.36 44.8094 55.768C45.4014 55.176 46.1454 54.88 47.0414 54.88C47.9374 54.88 48.6814 55.176 49.2734 55.768C49.8654 56.36 50.1614 57.104 50.1614 58C50.1614 58.896 49.8654 59.64 49.2734 60.232C48.6814 60.824 47.9374 61.12 47.0414 61.12C46.1454 61.12 45.4014 60.824 44.8094 60.232ZM45.4934 56.404C45.0854 56.82 44.8814 57.352 44.8814 58C44.8814 58.648 45.0854 59.18 45.4934 59.596C45.9014 60.012 46.4174 60.22 47.0414 60.22C47.6654 60.22 48.1814 60.012 48.5894 59.596C48.9974 59.18 49.2014 58.648 49.2014 58C49.2014 57.352 48.9974 56.82 48.5894 56.404C48.1814 55.988 47.6654 55.78 47.0414 55.78C46.4174 55.78 45.9014 55.988 45.4934 56.404ZM51.4767 61V55H54.4167C54.9767 55 55.4167 55.14 55.7367 55.42C56.0567 55.7 56.2167 56.06 56.2167 56.5C56.2167 56.7 56.1887 56.884 56.1327 57.052C56.0767 57.212 56.0087 57.34 55.9287 57.436C55.8487 57.524 55.7607 57.6 55.6647 57.664C55.5767 57.72 55.5007 57.76 55.4367 57.784C55.3807 57.8 55.3407 57.808 55.3167 57.808V57.82C55.3407 57.82 55.3887 57.832 55.4607 57.856C55.5327 57.872 55.6247 57.916 55.7367 57.988C55.8567 58.052 55.9687 58.132 56.0727 58.228C56.1767 58.324 56.2647 58.464 56.3367 58.648C56.4167 58.832 56.4567 59.036 56.4567 59.26C56.4567 59.78 56.2767 60.2 55.9167 60.52C55.5647 60.84 55.0687 61 54.4287 61H51.4767ZM52.4367 57.46H54.3567C54.9567 57.46 55.2567 57.2 55.2567 56.68C55.2567 56.16 54.9567 55.9 54.3567 55.9H52.4367V57.46ZM52.4367 60.1H54.4167C54.7687 60.1 55.0367 60.02 55.2207 59.86C55.4047 59.7 55.4967 59.48 55.4967 59.2C55.4967 58.92 55.4047 58.7 55.2207 58.54C55.0367 58.38 54.7687 58.3 54.4167 58.3H52.4367V60.1ZM58.2614 60.232C57.7014 59.632 57.4214 58.888 57.4214 58C57.4214 57.112 57.7014 56.372 58.2614 55.78C58.8214 55.18 59.5014 54.88 60.3014 54.88C60.8054 54.88 61.2294 54.976 61.5734 55.168C61.9254 55.36 62.1814 55.568 62.3414 55.792L62.4494 55.972H62.4614V55H63.4214V61H62.4614V60.04H62.4494L62.3414 60.208C62.1974 60.424 61.9494 60.632 61.5974 60.832C61.2454 61.024 60.8134 61.12 60.3014 61.12C59.5014 61.12 58.8214 60.824 58.2614 60.232ZM58.9574 56.404C58.5734 56.82 58.3814 57.352 58.3814 58C58.3814 58.648 58.5734 59.18 58.9574 59.596C59.3494 60.012 59.8374 60.22 60.4214 60.22C61.0054 60.22 61.4894 60.012 61.8734 59.596C62.2654 59.18 62.4614 58.648 62.4614 58C62.4614 57.352 62.2654 56.82 61.8734 56.404C61.4894 55.988 61.0054 55.78 60.4214 55.78C59.8374 55.78 59.3494 55.988 58.9574 56.404ZM65.1056 61V55H66.0656V57.46H69.4256V55H70.3856V61H69.4256V58.36H66.0656V61H65.1056ZM72.0666 61V55H73.0266V59.5L73.0146 59.62H73.0386L76.2666 55H77.3466V61H76.3866V56.5L76.3986 56.38H76.3746L73.1466 61H72.0666ZM79.5435 60.232C78.9595 59.64 78.6675 58.896 78.6675 58C78.6675 57.104 78.9595 56.36 79.5435 55.768C80.1275 55.176 80.8555 54.88 81.7275 54.88C82.5995 54.88 83.3275 55.172 83.9115 55.756C84.4955 56.34 84.7875 57.068 84.7875 57.94V58.3H79.6275C79.6915 58.86 79.9195 59.32 80.3115 59.68C80.7035 60.04 81.1755 60.22 81.7275 60.22C82.3195 60.22 82.8275 60.04 83.2515 59.68C83.4435 59.52 83.5955 59.34 83.7075 59.14H84.6675C84.5235 59.516 84.3195 59.848 84.0555 60.136C83.4315 60.792 82.6555 61.12 81.7275 61.12C80.8555 61.12 80.1275 60.824 79.5435 60.232ZM79.6515 57.46H83.7675C83.6955 56.988 83.4755 56.592 83.1075 56.272C82.7395 55.944 82.2795 55.78 81.7275 55.78C81.1755 55.78 80.7115 55.944 80.3355 56.272C79.9595 56.592 79.7315 56.988 79.6515 57.46ZM89.4689 61V55H90.4289V59.5L90.4169 59.62H90.4409L93.6689 55H94.7489V61H93.7889V56.5L93.8009 56.38H93.7769L90.5489 61H89.4689ZM99.9131 61V52.6H106.573V61H105.493V53.62H100.993V61H99.9131ZM109.307 59.992C108.483 59.152 108.071 58.088 108.071 56.8C108.071 55.512 108.483 54.452 109.307 53.62C110.139 52.78 111.187 52.36 112.451 52.36C113.715 52.36 114.759 52.78 115.583 53.62C116.415 54.452 116.831 55.512 116.831 56.8C116.831 58.088 116.415 59.152 115.583 59.992C114.759 60.824 113.715 61.24 112.451 61.24C111.187 61.24 110.139 60.824 109.307 59.992ZM110.075 54.328C109.459 54.96 109.151 55.784 109.151 56.8C109.151 57.816 109.459 58.64 110.075 59.272C110.691 59.904 111.483 60.22 112.451 60.22C113.419 60.22 114.211 59.904 114.827 59.272C115.443 58.64 115.751 57.816 115.751 56.8C115.751 55.784 115.443 54.96 114.827 54.328C114.211 53.696 113.419 53.38 112.451 53.38C111.483 53.38 110.691 53.696 110.075 54.328ZM120.798 62.38V60.1H121.458L122.838 55H125.358L126.738 60.1H127.398V62.38H126.438V61H121.758V62.38H120.798ZM122.418 60.1H125.778L124.638 55.9H123.558L122.418 60.1ZM127.573 61L129.253 55H131.773L133.453 61H132.433L131.053 55.9H129.973L128.593 61H127.573ZM134.17 61L135.37 58.84C135.17 58.752 134.97 58.624 134.77 58.456C134.37 58.088 134.17 57.616 134.17 57.04C134.17 56.456 134.382 55.972 134.806 55.588C135.23 55.196 135.794 55 136.498 55H139.21V61H138.25V59.08H136.33L135.274 61H134.17ZM135.478 56.212C135.246 56.42 135.13 56.696 135.13 57.04C135.13 57.384 135.246 57.66 135.478 57.868C135.718 58.076 136.062 58.18 136.51 58.18H138.25V55.9H136.51C136.062 55.9 135.718 56.004 135.478 56.212ZM1.32 74.232C0.76 73.632 0.48 72.888 0.48 72C0.48 71.112 0.76 70.372 1.32 69.78C1.88 69.18 2.56 68.88 3.36 68.88C3.864 68.88 4.288 68.976 4.632 69.168C4.984 69.36 5.24 69.568 5.4 69.792L5.508 69.972H5.52V69H6.48V75H5.52V74.04H5.508L5.4 74.208C5.256 74.424 5.008 74.632 4.656 74.832C4.304 75.024 3.872 75.12 3.36 75.12C2.56 75.12 1.88 74.824 1.32 74.232ZM2.016 70.404C1.632 70.82 1.44 71.352 1.44 72C1.44 72.648 1.632 73.18 2.016 73.596C2.408 74.012 2.896 74.22 3.48 74.22C4.064 74.22 4.548 74.012 4.932 73.596C5.324 73.18 5.52 72.648 5.52 72C5.52 71.352 5.324 70.82 4.932 70.404C4.548 69.988 4.064 69.78 3.48 69.78C2.896 69.78 2.408 69.988 2.016 70.404ZM8.16422 75V69H11.1042C11.6642 69 12.1042 69.14 12.4242 69.42C12.7442 69.7 12.9042 70.06 12.9042 70.5C12.9042 70.7 12.8762 70.884 12.8202 71.052C12.7642 71.212 12.6962 71.34 12.6162 71.436C12.5362 71.524 12.4482 71.6 12.3522 71.664C12.2642 71.72 12.1882 71.76 12.1242 71.784C12.0682 71.8 12.0282 71.808 12.0042 71.808V71.82C12.0282 71.82 12.0762 71.832 12.1482 71.856C12.2202 71.872 12.3122 71.916 12.4242 71.988C12.5442 72.052 12.6562 72.132 12.7602 72.228C12.8642 72.324 12.9522 72.464 13.0242 72.648C13.1042 72.832 13.1442 73.036 13.1442 73.26C13.1442 73.78 12.9642 74.2 12.6042 74.52C12.2522 74.84 11.7562 75 11.1162 75H8.16422ZM9.12422 71.46H11.0442C11.6442 71.46 11.9442 71.2 11.9442 70.68C11.9442 70.16 11.6442 69.9 11.0442 69.9H9.12422V71.46ZM9.12422 74.1H11.1042C11.4562 74.1 11.7242 74.02 11.9082 73.86C12.0922 73.7 12.1842 73.48 12.1842 73.2C12.1842 72.92 12.0922 72.7 11.9082 72.54C11.7242 72.38 11.4562 72.3 11.1042 72.3H9.12422V74.1ZM13.6889 69.9V69H18.8489V69.9H16.7489V75H15.7889V69.9H13.6889ZM20.2821 74.232C19.6901 73.64 19.3941 72.896 19.3941 72C19.3941 71.104 19.6901 70.36 20.2821 69.768C20.8741 69.176 21.6181 68.88 22.5141 68.88C23.4101 68.88 24.1541 69.176 24.7461 69.768C25.3381 70.36 25.6341 71.104 25.6341 72C25.6341 72.896 25.3381 73.64 24.7461 74.232C24.1541 74.824 23.4101 75.12 22.5141 75.12C21.6181 75.12 20.8741 74.824 20.2821 74.232ZM20.9661 70.404C20.5581 70.82 20.3541 71.352 20.3541 72C20.3541 72.648 20.5581 73.18 20.9661 73.596C21.3741 74.012 21.8901 74.22 22.5141 74.22C23.1381 74.22 23.6541 74.012 24.0621 73.596C24.4701 73.18 24.6741 72.648 24.6741 72C24.6741 71.352 24.4701 70.82 24.0621 70.404C23.6541 69.988 23.1381 69.78 22.5141 69.78C21.8901 69.78 21.3741 69.988 20.9661 70.404ZM26.9494 75V69H28.3894L30.1894 72.72H30.4894L32.2894 69H33.7294V75H32.7694V70.2L32.7814 70.08H32.7574L30.9694 73.8H29.7094L27.9214 70.08H27.8974L27.9094 70.2V75H26.9494ZM35.8903 74.232C35.3303 73.632 35.0503 72.888 35.0503 72C35.0503 71.112 35.3303 70.372 35.8903 69.78C36.4503 69.18 37.1303 68.88 37.9303 68.88C38.4343 68.88 38.8583 68.976 39.2023 69.168C39.5543 69.36 39.8103 69.568 39.9703 69.792L40.0783 69.972H40.0903V69H41.0503V75H40.0903V74.04H40.0783L39.9703 74.208C39.8263 74.424 39.5783 74.632 39.2263 74.832C38.8743 75.024 38.4423 75.12 37.9303 75.12C37.1303 75.12 36.4503 74.824 35.8903 74.232ZM36.5863 70.404C36.2023 70.82 36.0103 71.352 36.0103 72C36.0103 72.648 36.2023 73.18 36.5863 73.596C36.9783 74.012 37.4663 74.22 38.0503 74.22C38.6343 74.22 39.1183 74.012 39.5023 73.596C39.8943 73.18 40.0903 72.648 40.0903 72C40.0903 71.352 39.8943 70.82 39.5023 70.404C39.1183 69.988 38.6343 69.78 38.0503 69.78C37.4663 69.78 36.9783 69.988 36.5863 70.404ZM41.9545 69.9V69H47.1145V69.9H45.0145V75H44.0545V69.9H41.9545ZM48.0197 75V69H48.9797V73.5L48.9677 73.62H48.9917L52.2197 69H53.2997V75H52.3397V70.5L52.3517 70.38H52.3277L49.0997 75H48.0197ZM54.3806 73.14H55.3406C55.3886 73.34 55.4806 73.52 55.6166 73.68C55.9126 74.04 56.3806 74.22 57.0206 74.22C57.5006 74.22 57.8686 74.128 58.1246 73.944C58.3886 73.752 58.5206 73.524 58.5206 73.26C58.5206 72.996 58.4006 72.78 58.1606 72.612C57.9206 72.444 57.5606 72.36 57.0806 72.36H56.3606V71.46H57.0806C57.9606 71.46 58.4006 71.18 58.4006 70.62C58.4006 70.388 58.2806 70.192 58.0406 70.032C57.8086 69.864 57.4686 69.78 57.0206 69.78C56.5086 69.78 56.1006 69.932 55.7966 70.236C55.6846 70.348 55.5926 70.496 55.5206 70.68H54.5606C54.6326 70.352 54.7726 70.052 54.9806 69.78C55.4526 69.18 56.1326 68.88 57.0206 68.88C57.7726 68.88 58.3486 69.04 58.7486 69.36C59.1566 69.68 59.3606 70.08 59.3606 70.56C59.3606 71.208 59.0286 71.644 58.3646 71.868L58.3406 71.88V71.892C58.3646 71.892 58.4126 71.904 58.4846 71.928C58.5566 71.952 58.6486 72 58.7606 72.072C58.8806 72.136 58.9926 72.22 59.0966 72.324C59.2006 72.42 59.2886 72.556 59.3606 72.732C59.4406 72.908 59.4806 73.104 59.4806 73.32C59.4806 73.832 59.2646 74.26 58.8326 74.604C58.4006 74.948 57.7966 75.12 57.0206 75.12C56.0206 75.12 55.2806 74.792 54.8006 74.136C54.5926 73.84 54.4526 73.508 54.3806 73.14ZM61.2848 74.232C60.7248 73.632 60.4448 72.888 60.4448 72C60.4448 71.112 60.7248 70.372 61.2848 69.78C61.8448 69.18 62.5248 68.88 63.3248 68.88C63.8288 68.88 64.2528 68.976 64.5968 69.168C64.9488 69.36 65.2048 69.568 65.3648 69.792L65.4728 69.972H65.4848V69H66.4448V75H65.4848V74.04H65.4728L65.3648 74.208C65.2208 74.424 64.9728 74.632 64.6208 74.832C64.2688 75.024 63.8368 75.12 63.3248 75.12C62.5248 75.12 61.8448 74.824 61.2848 74.232ZM61.9808 70.404C61.5968 70.82 61.4048 71.352 61.4048 72C61.4048 72.648 61.5968 73.18 61.9808 73.596C62.3728 74.012 62.8608 74.22 63.4448 74.22C64.0288 74.22 64.5128 74.012 64.8968 73.596C65.2888 73.18 65.4848 72.648 65.4848 72C65.4848 71.352 65.2888 70.82 64.8968 70.404C64.5128 69.988 64.0288 69.78 63.4448 69.78C62.8608 69.78 62.3728 69.988 61.9808 70.404ZM68.1291 75V69H69.0891V74.1H72.2091V69H73.1691V74.1H74.0091V76.38H73.0491V75H68.1291ZM75.0314 75V69H75.9914V73.5L75.9794 73.62H76.0034L79.2314 69H80.3114V75H79.3514V70.5L79.3634 70.38H79.3394L76.1114 75H75.0314ZM81.9923 75V69H82.9523V73.5L82.9403 73.62H82.9643L86.1923 69H87.2723V75H86.3123V70.5L86.3243 70.38H86.3003L83.0723 75H81.9923ZM92.3166 75V69H93.2766V73.5L93.2646 73.62H93.2886L96.5166 69H97.5966V75H96.6366V70.5L96.6486 70.38H96.6246L93.3966 75H92.3166ZM101.498 69.9V69H106.658V69.9H104.558V75H103.598V69.9H101.498ZM108.091 74.232C107.499 73.64 107.203 72.896 107.203 72C107.203 71.104 107.499 70.36 108.091 69.768C108.683 69.176 109.427 68.88 110.323 68.88C111.219 68.88 111.963 69.176 112.555 69.768C113.147 70.36 113.443 71.104 113.443 72C113.443 72.896 113.147 73.64 112.555 74.232C111.963 74.824 111.219 75.12 110.323 75.12C109.427 75.12 108.683 74.824 108.091 74.232ZM108.775 70.404C108.367 70.82 108.163 71.352 108.163 72C108.163 72.648 108.367 73.18 108.775 73.596C109.183 74.012 109.699 74.22 110.323 74.22C110.947 74.22 111.463 74.012 111.871 73.596C112.279 73.18 112.483 72.648 112.483 72C112.483 71.352 112.279 70.82 111.871 70.404C111.463 69.988 110.947 69.78 110.323 69.78C109.699 69.78 109.183 69.988 108.775 70.404ZM114.758 77.28V69H115.718V69.96H115.73L115.85 69.78C115.986 69.572 116.23 69.372 116.582 69.18C116.934 68.98 117.366 68.88 117.878 68.88C118.678 68.88 119.358 69.18 119.918 69.78C120.478 70.372 120.758 71.112 120.758 72C120.758 72.888 120.478 73.632 119.918 74.232C119.358 74.824 118.678 75.12 117.878 75.12C117.366 75.12 116.93 75.024 116.57 74.832C116.218 74.632 115.978 74.424 115.85 74.208L115.73 74.04H115.718V77.28H114.758ZM116.294 70.404C115.91 70.82 115.718 71.352 115.718 72C115.718 72.648 115.91 73.18 116.294 73.596C116.686 74.012 117.174 74.22 117.758 74.22C118.342 74.22 118.826 74.012 119.21 73.596C119.602 73.18 119.798 72.648 119.798 72C119.798 71.352 119.602 70.82 119.21 70.404C118.826 69.988 118.342 69.78 117.758 69.78C117.174 69.78 116.686 69.988 116.294 70.404ZM122.082 75V69H126.222V69.9H123.042V75H122.082ZM127.708 74.232C127.116 73.64 126.82 72.896 126.82 72C126.82 71.104 127.116 70.36 127.708 69.768C128.3 69.176 129.044 68.88 129.94 68.88C130.836 68.88 131.58 69.176 132.172 69.768C132.764 70.36 133.06 71.104 133.06 72C133.06 72.896 132.764 73.64 132.172 74.232C131.58 74.824 130.836 75.12 129.94 75.12C129.044 75.12 128.3 74.824 127.708 74.232ZM128.392 70.404C127.984 70.82 127.78 71.352 127.78 72C127.78 72.648 127.984 73.18 128.392 73.596C128.8 74.012 129.316 74.22 129.94 74.22C130.564 74.22 131.08 74.012 131.488 73.596C131.896 73.18 132.1 72.648 132.1 72C132.1 71.352 131.896 70.82 131.488 70.404C131.08 69.988 130.564 69.78 129.94 69.78C129.316 69.78 128.8 69.988 128.392 70.404ZM134.375 75V69H137.315C137.875 69 138.315 69.14 138.635 69.42C138.955 69.7 139.115 70.06 139.115 70.5C139.115 70.7 139.087 70.884 139.031 71.052C138.975 71.212 138.907 71.34 138.827 71.436C138.747 71.524 138.659 71.6 138.563 71.664C138.475 71.72 138.399 71.76 138.335 71.784C138.279 71.8 138.239 71.808 138.215 71.808V71.82C138.239 71.82 138.287 71.832 138.359 71.856C138.431 71.872 138.523 71.916 138.635 71.988C138.755 72.052 138.867 72.132 138.971 72.228C139.075 72.324 139.163 72.464 139.235 72.648C139.315 72.832 139.355 73.036 139.355 73.26C139.355 73.78 139.175 74.2 138.815 74.52C138.463 74.84 137.967 75 137.327 75H134.375ZM135.335 71.46H137.255C137.855 71.46 138.155 71.2 138.155 70.68C138.155 70.16 137.855 69.9 137.255 69.9H135.335V71.46ZM135.335 74.1H137.315C137.667 74.1 137.935 74.02 138.119 73.86C138.303 73.7 138.395 73.48 138.395 73.2C138.395 72.92 138.303 72.7 138.119 72.54C137.935 72.38 137.667 72.3 137.315 72.3H135.335V74.1ZM139.96 75L141.64 69H144.16L145.84 75H144.82L143.44 69.9H142.36L140.98 75H139.96ZM146.797 75V69H147.757V73.5L147.745 73.62H147.769L150.997 69H152.077V75H151.117V70.5L151.129 70.38H151.105L147.877 75H146.797Z" fill="white"/>
</svg>
