<svg width="278" height="28" viewBox="0 0 278 28" fill="none" xmlns="http://www.w3.org/2000/svg">
<path fill-rule="evenodd" clip-rule="evenodd" d="M61.2716 2.53375e-07C65.0408 2.53375e-07 68.656 1.47561 71.3213 4.10219C73.9865 6.72877 75.4839 10.2913 75.4839 14.0058C75.4808 17.7184 73.9821 21.2777 71.317 23.9019C68.6519 26.526 65.039 28 61.2716 28C57.5036 28.0005 53.8898 26.5269 51.2243 23.9028C48.5588 21.2786 47.0598 17.7188 47.0566 14.0058C47.0566 12.1664 47.4242 10.345 48.1386 8.64553C48.8532 6.94612 49.9004 5.40191 51.2203 4.10131C52.5404 2.80088 54.1072 1.76925 55.8319 1.0654C57.5566 0.361728 59.4049 -0.00034966 61.2716 2.53375e-07ZM61.2716 6.2064C60.2325 6.2064 59.2038 6.40818 58.2442 6.80018C57.2845 7.19235 56.4127 7.76688 55.6784 8.49139C54.9441 9.21571 54.3622 10.0756 53.9654 11.0217C53.5687 11.9681 53.3651 12.9821 53.3663 14.0059C53.3669 16.0716 54.2002 18.0523 55.6825 19.5129C57.165 20.9733 59.1752 21.7937 61.2716 21.7937C63.3676 21.7937 65.3777 20.9733 66.8598 19.5127C68.3417 18.0522 69.1744 16.0714 69.1744 14.0059C69.1759 12.9823 68.9725 11.9683 68.5763 11.0219C68.1796 10.0758 67.598 9.21589 66.8637 8.49139C66.1297 7.76706 65.2579 7.19235 64.2987 6.80035C63.3388 6.40818 62.3103 6.2064 61.2716 6.2064Z" fill="#DF192C"/>
<path d="M18.6528 0.594574C18.6221 0.540277 18.5636 0.504883 18.4981 0.504883H11.0332L10.986 0.511085C10.8962 0.535308 10.8373 0.626828 10.8606 0.721182L17.426 27.3484L17.4435 27.3924C17.4743 27.4468 17.5331 27.4821 17.5986 27.4821H25.0611L25.1083 27.4759C25.1979 27.4517 25.2569 27.3603 25.2334 27.2657L18.6703 0.638585L18.6528 0.594574Z" fill="#DF192C"/>
<path d="M46.8743 0.63338C46.8536 0.559329 46.7846 0.504883 46.7031 0.504883H22.7831L22.736 0.511137C22.6609 0.53152 22.6055 0.599386 22.6055 0.679883V7.07282L22.6119 7.11933C22.6325 7.19338 22.7015 7.24783 22.7831 7.24783H30.8846L30.9318 7.25408C31.007 7.27446 31.0621 7.34232 31.0621 7.42283V27.307L31.0685 27.3536C31.0892 27.4277 31.158 27.4821 31.2398 27.4821H38.2439L38.2912 27.4759C38.3664 27.4555 38.4215 27.3877 38.4215 27.307V7.42283L38.4279 7.37631C38.4486 7.30226 38.5176 7.24783 38.5991 7.24783H46.7031L46.7502 7.24157C46.8253 7.22118 46.8807 7.15332 46.8807 7.07282V0.679883L46.8743 0.63338Z" fill="#DF192C"/>
<path d="M10.8805 13.9971C10.9791 13.9971 11.0555 14.0752 11.0581 14.1669L11.0532 14.2136L7.81476 27.3498C7.79927 27.4126 7.75059 27.4605 7.68983 27.4771L7.64232 27.4835H0.177643C0.0790082 27.4835 0.00268393 27.4055 0 27.3139L0.00503237 27.2672L3.24343 14.1308C3.25892 14.0681 3.30759 14.0202 3.36835 14.0035L3.41586 13.9971H10.8805Z" fill="#DF192C"/>
<path d="M89.145 0.674486C89.1423 0.5828 89.066 0.504883 88.9674 0.504883H81.5025L81.455 0.51126C81.3941 0.527925 81.3453 0.575863 81.3299 0.638585L74.7668 27.2657L74.7617 27.3124C74.7644 27.4041 74.8406 27.4821 74.9394 27.4821H82.4041L82.4517 27.4757C82.5125 27.4591 82.5611 27.4112 82.5765 27.3484L89.1396 0.721182L89.145 0.674486Z" fill="#DF192C"/>
<path d="M96.5834 13.9971C96.6491 13.9971 96.7077 14.0325 96.7379 14.0868L96.7556 14.1308L99.9939 27.2672C100.018 27.3616 99.9584 27.4531 99.8688 27.4773L99.8217 27.4835H92.3589C92.2941 27.4835 92.2355 27.4481 92.2045 27.3939L92.1867 27.3498L88.9484 14.2136C88.9253 14.1191 88.9839 14.0275 89.0736 14.0033L89.1206 13.9971H96.5834Z" fill="#DF192C"/>
<path d="M113.776 9.992C112.952 9.152 112.54 8.088 112.54 6.8C112.54 5.512 112.952 4.452 113.776 3.62C114.608 2.78 115.656 2.36 116.92 2.36C118.184 2.36 119.228 2.78 120.052 3.62C120.884 4.452 121.3 5.512 121.3 6.8C121.3 8.088 120.884 9.152 120.052 9.992C119.228 10.824 118.184 11.24 116.92 11.24C115.656 11.24 114.608 10.824 113.776 9.992ZM114.544 4.328C113.928 4.96 113.62 5.784 113.62 6.8C113.62 7.816 113.928 8.64 114.544 9.272C115.16 9.904 115.952 10.22 116.92 10.22C117.888 10.22 118.68 9.904 119.296 9.272C119.912 8.64 120.22 7.816 120.22 6.8C120.22 5.784 119.912 4.96 119.296 4.328C118.68 3.696 117.888 3.38 116.92 3.38C115.952 3.38 115.16 3.696 114.544 4.328ZM122.324 7.76C122.324 5.952 122.656 4.64 123.32 3.824C123.984 3.008 124.972 2.6 126.284 2.6H127.724V3.62H126.284C125.332 3.62 124.62 3.844 124.148 4.292C123.684 4.732 123.396 5.448 123.284 6.44H123.296C123.416 6.264 123.576 6.104 123.776 5.96C124.224 5.64 124.76 5.48 125.384 5.48C126.2 5.48 126.872 5.748 127.4 6.284C127.936 6.812 128.204 7.484 128.204 8.3C128.204 9.124 127.928 9.8 127.376 10.328C126.832 10.856 126.128 11.12 125.264 11.12C124.376 11.12 123.664 10.824 123.128 10.232C122.592 9.64 122.324 8.816 122.324 7.76ZM123.848 6.932C123.472 7.3 123.284 7.756 123.284 8.3C123.284 8.844 123.472 9.3 123.848 9.668C124.224 10.036 124.696 10.22 125.264 10.22C125.832 10.22 126.304 10.036 126.68 9.668C127.056 9.3 127.244 8.844 127.244 8.3C127.244 7.756 127.056 7.3 126.68 6.932C126.304 6.564 125.832 6.38 125.264 6.38C124.696 6.38 124.224 6.564 123.848 6.932ZM129.927 10.232C129.335 9.64 129.039 8.896 129.039 8C129.039 7.104 129.335 6.36 129.927 5.768C130.519 5.176 131.263 4.88 132.159 4.88C133.055 4.88 133.799 5.176 134.391 5.768C134.983 6.36 135.279 7.104 135.279 8C135.279 8.896 134.983 9.64 134.391 10.232C133.799 10.824 133.055 11.12 132.159 11.12C131.263 11.12 130.519 10.824 129.927 10.232ZM130.611 6.404C130.203 6.82 129.999 7.352 129.999 8C129.999 8.648 130.203 9.18 130.611 9.596C131.019 10.012 131.535 10.22 132.159 10.22C132.783 10.22 133.299 10.012 133.707 9.596C134.115 9.18 134.319 8.648 134.319 8C134.319 7.352 134.115 6.82 133.707 6.404C133.299 5.988 132.783 5.78 132.159 5.78C131.535 5.78 131.019 5.988 130.611 6.404ZM136.594 13.28V5H137.554V5.96H137.566L137.686 5.78C137.822 5.572 138.066 5.372 138.418 5.18C138.77 4.98 139.202 4.88 139.714 4.88C140.514 4.88 141.194 5.18 141.754 5.78C142.314 6.372 142.594 7.112 142.594 8C142.594 8.888 142.314 9.632 141.754 10.232C141.194 10.824 140.514 11.12 139.714 11.12C139.202 11.12 138.766 11.024 138.406 10.832C138.054 10.632 137.814 10.424 137.686 10.208L137.566 10.04H137.554V13.28H136.594ZM138.13 6.404C137.746 6.82 137.554 7.352 137.554 8C137.554 8.648 137.746 9.18 138.13 9.596C138.522 10.012 139.01 10.22 139.594 10.22C140.178 10.22 140.662 10.012 141.046 9.596C141.438 9.18 141.634 8.648 141.634 8C141.634 7.352 141.438 6.82 141.046 6.404C140.662 5.988 140.178 5.78 139.594 5.78C139.01 5.78 138.522 5.988 138.13 6.404ZM143.142 5H144.162L145.482 10.1H146.382L147.942 5H148.962L146.442 13.28H145.422L146.142 11H144.762L143.142 5ZM148.787 12.38V10.1H149.447L150.827 5H153.347L154.727 10.1H155.387V12.38H154.427V11H149.747V12.38H148.787ZM150.407 10.1H153.767L152.627 5.9H151.547L150.407 10.1ZM156.809 10.232C156.217 9.64 155.921 8.896 155.921 8C155.921 7.104 156.217 6.36 156.809 5.768C157.401 5.176 158.145 4.88 159.041 4.88C159.937 4.88 160.681 5.176 161.273 5.768C161.865 6.36 162.161 7.104 162.161 8C162.161 8.896 161.865 9.64 161.273 10.232C160.681 10.824 159.937 11.12 159.041 11.12C158.145 11.12 157.401 10.824 156.809 10.232ZM157.493 6.404C157.085 6.82 156.881 7.352 156.881 8C156.881 8.648 157.085 9.18 157.493 9.596C157.901 10.012 158.417 10.22 159.041 10.22C159.665 10.22 160.181 10.012 160.589 9.596C160.997 9.18 161.201 8.648 161.201 8C161.201 7.352 160.997 6.82 160.589 6.404C160.181 5.988 159.665 5.78 159.041 5.78C158.417 5.78 157.901 5.988 157.493 6.404ZM163.477 11V5H166.417C166.977 5 167.417 5.14 167.737 5.42C168.057 5.7 168.217 6.06 168.217 6.5C168.217 6.7 168.189 6.884 168.133 7.052C168.077 7.212 168.009 7.34 167.929 7.436C167.849 7.524 167.761 7.6 167.665 7.664C167.577 7.72 167.501 7.76 167.437 7.784C167.381 7.8 167.341 7.808 167.317 7.808V7.82C167.341 7.82 167.389 7.832 167.461 7.856C167.533 7.872 167.625 7.916 167.737 7.988C167.857 8.052 167.969 8.132 168.073 8.228C168.177 8.324 168.265 8.464 168.337 8.648C168.417 8.832 168.457 9.036 168.457 9.26C168.457 9.78 168.277 10.2 167.917 10.52C167.565 10.84 167.069 11 166.429 11H163.477ZM164.437 7.46H166.357C166.957 7.46 167.257 7.2 167.257 6.68C167.257 6.16 166.957 5.9 166.357 5.9H164.437V7.46ZM164.437 10.1H166.417C166.769 10.1 167.037 10.02 167.221 9.86C167.405 9.7 167.497 9.48 167.497 9.2C167.497 8.92 167.405 8.7 167.221 8.54C167.037 8.38 166.769 8.3 166.417 8.3H164.437V10.1ZM170.261 10.232C169.701 9.632 169.421 8.888 169.421 8C169.421 7.112 169.701 6.372 170.261 5.78C170.821 5.18 171.501 4.88 172.301 4.88C172.805 4.88 173.229 4.976 173.573 5.168C173.925 5.36 174.181 5.568 174.341 5.792L174.449 5.972H174.461V5H175.421V11H174.461V10.04H174.449L174.341 10.208C174.197 10.424 173.949 10.632 173.597 10.832C173.245 11.024 172.813 11.12 172.301 11.12C171.501 11.12 170.821 10.824 170.261 10.232ZM170.957 6.404C170.573 6.82 170.381 7.352 170.381 8C170.381 8.648 170.573 9.18 170.957 9.596C171.349 10.012 171.837 10.22 172.421 10.22C173.005 10.22 173.489 10.012 173.873 9.596C174.265 9.18 174.461 8.648 174.461 8C174.461 7.352 174.265 6.82 173.873 6.404C173.489 5.988 173.005 5.78 172.421 5.78C171.837 5.78 171.349 5.988 170.957 6.404ZM177.106 11V5H178.066V7.46H181.426V5H182.386V11H181.426V8.36H178.066V11H177.106ZM184.067 11V5H185.027V9.5L185.015 9.62H185.039L188.267 5H189.347V11H188.387V6.5L188.399 6.38H188.375L185.147 11H184.067ZM191.544 10.232C190.96 9.64 190.668 8.896 190.668 8C190.668 7.104 190.96 6.36 191.544 5.768C192.128 5.176 192.856 4.88 193.728 4.88C194.6 4.88 195.328 5.172 195.912 5.756C196.496 6.34 196.788 7.068 196.788 7.94V8.3H191.628C191.692 8.86 191.92 9.32 192.312 9.68C192.704 10.04 193.176 10.22 193.728 10.22C194.32 10.22 194.828 10.04 195.252 9.68C195.444 9.52 195.596 9.34 195.708 9.14H196.668C196.524 9.516 196.32 9.848 196.056 10.136C195.432 10.792 194.656 11.12 193.728 11.12C192.856 11.12 192.128 10.824 191.544 10.232ZM191.652 7.46H195.768C195.696 6.988 195.476 6.592 195.108 6.272C194.74 5.944 194.28 5.78 193.728 5.78C193.176 5.78 192.712 5.944 192.336 6.272C191.96 6.592 191.732 6.988 191.652 7.46ZM201.469 11V5H202.429V9.5L202.417 9.62H202.441L205.669 5H206.749V11H205.789V6.5L205.801 6.38H205.777L202.549 11H201.469ZM211.913 11V2.6H218.573V11H217.493V3.62H212.993V11H211.913ZM221.307 9.992C220.483 9.152 220.071 8.088 220.071 6.8C220.071 5.512 220.483 4.452 221.307 3.62C222.139 2.78 223.187 2.36 224.451 2.36C225.715 2.36 226.759 2.78 227.583 3.62C228.415 4.452 228.831 5.512 228.831 6.8C228.831 8.088 228.415 9.152 227.583 9.992C226.759 10.824 225.715 11.24 224.451 11.24C223.187 11.24 222.139 10.824 221.307 9.992ZM222.075 4.328C221.459 4.96 221.151 5.784 221.151 6.8C221.151 7.816 221.459 8.64 222.075 9.272C222.691 9.904 223.483 10.22 224.451 10.22C225.419 10.22 226.211 9.904 226.827 9.272C227.443 8.64 227.751 7.816 227.751 6.8C227.751 5.784 227.443 4.96 226.827 4.328C226.211 3.696 225.419 3.38 224.451 3.38C223.483 3.38 222.691 3.696 222.075 4.328ZM232.798 12.38V10.1H233.458L234.838 5H237.358L238.738 10.1H239.398V12.38H238.438V11H233.758V12.38H232.798ZM234.418 10.1H237.778L236.638 5.9H235.558L234.418 10.1ZM239.573 11L241.253 5H243.773L245.453 11H244.433L243.053 5.9H241.973L240.593 11H239.573ZM246.17 11L247.37 8.84C247.17 8.752 246.97 8.624 246.77 8.456C246.37 8.088 246.17 7.616 246.17 7.04C246.17 6.456 246.382 5.972 246.806 5.588C247.23 5.196 247.794 5 248.498 5H251.21V11H250.25V9.08H248.33L247.274 11H246.17ZM247.478 6.212C247.246 6.42 247.13 6.696 247.13 7.04C247.13 7.384 247.246 7.66 247.478 7.868C247.718 8.076 248.062 8.18 248.51 8.18H250.25V5.9H248.51C248.062 5.9 247.718 6.004 247.478 6.212ZM113.32 24.232C112.76 23.632 112.48 22.888 112.48 22C112.48 21.112 112.76 20.372 113.32 19.78C113.88 19.18 114.56 18.88 115.36 18.88C115.864 18.88 116.288 18.976 116.632 19.168C116.984 19.36 117.24 19.568 117.4 19.792L117.508 19.972H117.52V19H118.48V25H117.52V24.04H117.508L117.4 24.208C117.256 24.424 117.008 24.632 116.656 24.832C116.304 25.024 115.872 25.12 115.36 25.12C114.56 25.12 113.88 24.824 113.32 24.232ZM114.016 20.404C113.632 20.82 113.44 21.352 113.44 22C113.44 22.648 113.632 23.18 114.016 23.596C114.408 24.012 114.896 24.22 115.48 24.22C116.064 24.22 116.548 24.012 116.932 23.596C117.324 23.18 117.52 22.648 117.52 22C117.52 21.352 117.324 20.82 116.932 20.404C116.548 19.988 116.064 19.78 115.48 19.78C114.896 19.78 114.408 19.988 114.016 20.404ZM120.164 25V19H123.104C123.664 19 124.104 19.14 124.424 19.42C124.744 19.7 124.904 20.06 124.904 20.5C124.904 20.7 124.876 20.884 124.82 21.052C124.764 21.212 124.696 21.34 124.616 21.436C124.536 21.524 124.448 21.6 124.352 21.664C124.264 21.72 124.188 21.76 124.124 21.784C124.068 21.8 124.028 21.808 124.004 21.808V21.82C124.028 21.82 124.076 21.832 124.148 21.856C124.22 21.872 124.312 21.916 124.424 21.988C124.544 22.052 124.656 22.132 124.76 22.228C124.864 22.324 124.952 22.464 125.024 22.648C125.104 22.832 125.144 23.036 125.144 23.26C125.144 23.78 124.964 24.2 124.604 24.52C124.252 24.84 123.756 25 123.116 25H120.164ZM121.124 21.46H123.044C123.644 21.46 123.944 21.2 123.944 20.68C123.944 20.16 123.644 19.9 123.044 19.9H121.124V21.46ZM121.124 24.1H123.104C123.456 24.1 123.724 24.02 123.908 23.86C124.092 23.7 124.184 23.48 124.184 23.2C124.184 22.92 124.092 22.7 123.908 22.54C123.724 22.38 123.456 22.3 123.104 22.3H121.124V24.1ZM125.689 19.9V19H130.849V19.9H128.749V25H127.789V19.9H125.689ZM132.282 24.232C131.69 23.64 131.394 22.896 131.394 22C131.394 21.104 131.69 20.36 132.282 19.768C132.874 19.176 133.618 18.88 134.514 18.88C135.41 18.88 136.154 19.176 136.746 19.768C137.338 20.36 137.634 21.104 137.634 22C137.634 22.896 137.338 23.64 136.746 24.232C136.154 24.824 135.41 25.12 134.514 25.12C133.618 25.12 132.874 24.824 132.282 24.232ZM132.966 20.404C132.558 20.82 132.354 21.352 132.354 22C132.354 22.648 132.558 23.18 132.966 23.596C133.374 24.012 133.89 24.22 134.514 24.22C135.138 24.22 135.654 24.012 136.062 23.596C136.47 23.18 136.674 22.648 136.674 22C136.674 21.352 136.47 20.82 136.062 20.404C135.654 19.988 135.138 19.78 134.514 19.78C133.89 19.78 133.374 19.988 132.966 20.404ZM138.949 25V19H140.389L142.189 22.72H142.489L144.289 19H145.729V25H144.769V20.2L144.781 20.08H144.757L142.969 23.8H141.709L139.921 20.08H139.897L139.909 20.2V25H138.949ZM147.89 24.232C147.33 23.632 147.05 22.888 147.05 22C147.05 21.112 147.33 20.372 147.89 19.78C148.45 19.18 149.13 18.88 149.93 18.88C150.434 18.88 150.858 18.976 151.202 19.168C151.554 19.36 151.81 19.568 151.97 19.792L152.078 19.972H152.09V19H153.05V25H152.09V24.04H152.078L151.97 24.208C151.826 24.424 151.578 24.632 151.226 24.832C150.874 25.024 150.442 25.12 149.93 25.12C149.13 25.12 148.45 24.824 147.89 24.232ZM148.586 20.404C148.202 20.82 148.01 21.352 148.01 22C148.01 22.648 148.202 23.18 148.586 23.596C148.978 24.012 149.466 24.22 150.05 24.22C150.634 24.22 151.118 24.012 151.502 23.596C151.894 23.18 152.09 22.648 152.09 22C152.09 21.352 151.894 20.82 151.502 20.404C151.118 19.988 150.634 19.78 150.05 19.78C149.466 19.78 148.978 19.988 148.586 20.404ZM153.955 19.9V19H159.115V19.9H157.015V25H156.055V19.9H153.955ZM160.02 25V19H160.98V23.5L160.968 23.62H160.992L164.22 19H165.3V25H164.34V20.5L164.352 20.38H164.328L161.1 25H160.02ZM166.381 23.14H167.341C167.389 23.34 167.481 23.52 167.617 23.68C167.913 24.04 168.381 24.22 169.021 24.22C169.501 24.22 169.869 24.128 170.125 23.944C170.389 23.752 170.521 23.524 170.521 23.26C170.521 22.996 170.401 22.78 170.161 22.612C169.921 22.444 169.561 22.36 169.081 22.36H168.361V21.46H169.081C169.961 21.46 170.401 21.18 170.401 20.62C170.401 20.388 170.281 20.192 170.041 20.032C169.809 19.864 169.469 19.78 169.021 19.78C168.509 19.78 168.101 19.932 167.797 20.236C167.685 20.348 167.593 20.496 167.521 20.68H166.561C166.633 20.352 166.773 20.052 166.981 19.78C167.453 19.18 168.133 18.88 169.021 18.88C169.773 18.88 170.349 19.04 170.749 19.36C171.157 19.68 171.361 20.08 171.361 20.56C171.361 21.208 171.029 21.644 170.365 21.868L170.341 21.88V21.892C170.365 21.892 170.413 21.904 170.485 21.928C170.557 21.952 170.649 22 170.761 22.072C170.881 22.136 170.993 22.22 171.097 22.324C171.201 22.42 171.289 22.556 171.361 22.732C171.441 22.908 171.481 23.104 171.481 23.32C171.481 23.832 171.265 24.26 170.833 24.604C170.401 24.948 169.797 25.12 169.021 25.12C168.021 25.12 167.281 24.792 166.801 24.136C166.593 23.84 166.453 23.508 166.381 23.14ZM173.285 24.232C172.725 23.632 172.445 22.888 172.445 22C172.445 21.112 172.725 20.372 173.285 19.78C173.845 19.18 174.525 18.88 175.325 18.88C175.829 18.88 176.253 18.976 176.597 19.168C176.949 19.36 177.205 19.568 177.365 19.792L177.473 19.972H177.485V19H178.445V25H177.485V24.04H177.473L177.365 24.208C177.221 24.424 176.973 24.632 176.621 24.832C176.269 25.024 175.837 25.12 175.325 25.12C174.525 25.12 173.845 24.824 173.285 24.232ZM173.981 20.404C173.597 20.82 173.405 21.352 173.405 22C173.405 22.648 173.597 23.18 173.981 23.596C174.373 24.012 174.861 24.22 175.445 24.22C176.029 24.22 176.513 24.012 176.897 23.596C177.289 23.18 177.485 22.648 177.485 22C177.485 21.352 177.289 20.82 176.897 20.404C176.513 19.988 176.029 19.78 175.445 19.78C174.861 19.78 174.373 19.988 173.981 20.404ZM180.129 25V19H181.089V24.1H184.209V19H185.169V24.1H186.009V26.38H185.049V25H180.129ZM187.031 25V19H187.991V23.5L187.979 23.62H188.003L191.231 19H192.311V25H191.351V20.5L191.363 20.38H191.339L188.111 25H187.031ZM193.992 25V19H194.952V23.5L194.94 23.62H194.964L198.192 19H199.272V25H198.312V20.5L198.324 20.38H198.3L195.072 25H193.992ZM204.317 25V19H205.277V23.5L205.265 23.62H205.289L208.517 19H209.597V25H208.637V20.5L208.649 20.38H208.625L205.397 25H204.317ZM213.498 19.9V19H218.658V19.9H216.558V25H215.598V19.9H213.498ZM220.091 24.232C219.499 23.64 219.203 22.896 219.203 22C219.203 21.104 219.499 20.36 220.091 19.768C220.683 19.176 221.427 18.88 222.323 18.88C223.219 18.88 223.963 19.176 224.555 19.768C225.147 20.36 225.443 21.104 225.443 22C225.443 22.896 225.147 23.64 224.555 24.232C223.963 24.824 223.219 25.12 222.323 25.12C221.427 25.12 220.683 24.824 220.091 24.232ZM220.775 20.404C220.367 20.82 220.163 21.352 220.163 22C220.163 22.648 220.367 23.18 220.775 23.596C221.183 24.012 221.699 24.22 222.323 24.22C222.947 24.22 223.463 24.012 223.871 23.596C224.279 23.18 224.483 22.648 224.483 22C224.483 21.352 224.279 20.82 223.871 20.404C223.463 19.988 222.947 19.78 222.323 19.78C221.699 19.78 221.183 19.988 220.775 20.404ZM226.758 27.28V19H227.718V19.96H227.73L227.85 19.78C227.986 19.572 228.23 19.372 228.582 19.18C228.934 18.98 229.366 18.88 229.878 18.88C230.678 18.88 231.358 19.18 231.918 19.78C232.478 20.372 232.758 21.112 232.758 22C232.758 22.888 232.478 23.632 231.918 24.232C231.358 24.824 230.678 25.12 229.878 25.12C229.366 25.12 228.93 25.024 228.57 24.832C228.218 24.632 227.978 24.424 227.85 24.208L227.73 24.04H227.718V27.28H226.758ZM228.294 20.404C227.91 20.82 227.718 21.352 227.718 22C227.718 22.648 227.91 23.18 228.294 23.596C228.686 24.012 229.174 24.22 229.758 24.22C230.342 24.22 230.826 24.012 231.21 23.596C231.602 23.18 231.798 22.648 231.798 22C231.798 21.352 231.602 20.82 231.21 20.404C230.826 19.988 230.342 19.78 229.758 19.78C229.174 19.78 228.686 19.988 228.294 20.404ZM234.082 25V19H238.222V19.9H235.042V25H234.082ZM239.708 24.232C239.116 23.64 238.82 22.896 238.82 22C238.82 21.104 239.116 20.36 239.708 19.768C240.3 19.176 241.044 18.88 241.94 18.88C242.836 18.88 243.58 19.176 244.172 19.768C244.764 20.36 245.06 21.104 245.06 22C245.06 22.896 244.764 23.64 244.172 24.232C243.58 24.824 242.836 25.12 241.94 25.12C241.044 25.12 240.3 24.824 239.708 24.232ZM240.392 20.404C239.984 20.82 239.78 21.352 239.78 22C239.78 22.648 239.984 23.18 240.392 23.596C240.8 24.012 241.316 24.22 241.94 24.22C242.564 24.22 243.08 24.012 243.488 23.596C243.896 23.18 244.1 22.648 244.1 22C244.1 21.352 243.896 20.82 243.488 20.404C243.08 19.988 242.564 19.78 241.94 19.78C241.316 19.78 240.8 19.988 240.392 20.404ZM246.375 25V19H249.315C249.875 19 250.315 19.14 250.635 19.42C250.955 19.7 251.115 20.06 251.115 20.5C251.115 20.7 251.087 20.884 251.031 21.052C250.975 21.212 250.907 21.34 250.827 21.436C250.747 21.524 250.659 21.6 250.563 21.664C250.475 21.72 250.399 21.76 250.335 21.784C250.279 21.8 250.239 21.808 250.215 21.808V21.82C250.239 21.82 250.287 21.832 250.359 21.856C250.431 21.872 250.523 21.916 250.635 21.988C250.755 22.052 250.867 22.132 250.971 22.228C251.075 22.324 251.163 22.464 251.235 22.648C251.315 22.832 251.355 23.036 251.355 23.26C251.355 23.78 251.175 24.2 250.815 24.52C250.463 24.84 249.967 25 249.327 25H246.375ZM247.335 21.46H249.255C249.855 21.46 250.155 21.2 250.155 20.68C250.155 20.16 249.855 19.9 249.255 19.9H247.335V21.46ZM247.335 24.1H249.315C249.667 24.1 249.935 24.02 250.119 23.86C250.303 23.7 250.395 23.48 250.395 23.2C250.395 22.92 250.303 22.7 250.119 22.54C249.935 22.38 249.667 22.3 249.315 22.3H247.335V24.1ZM251.96 25L253.64 19H256.16L257.84 25H256.82L255.44 19.9H254.36L252.98 25H251.96ZM258.797 25V19H259.757V23.5L259.745 23.62H259.769L262.997 19H264.077V25H263.117V20.5L263.129 20.38H263.105L259.877 25H258.797Z" fill="white"/>
</svg>
