<svg width="299.32" height="35" preserveAspectRatio="xMidYMid" version="1.0" viewBox="0 0 224.49 26.25" xmlns="http://www.w3.org/2000/svg" zoomAndPan="magnify">
 <defs>
  <clipPath id="6955944a60">
   <path d="m0.97656 93h32.023v40h-32.023z"/>
  </clipPath>
  <clipPath id="88a5eed1d6">
   <path d="m136 52.18h83v82.281h-83z"/>
  </clipPath>
 </defs>
 <path d="m43.04 0.47379h-22.045c-0.09001 0-0.16252 0.073757-0.16252 0.16502v5.9931c0 0.090009 0.07251 0.16377 0.16252 0.16377h7.467c0.09001 0 0.16376 0.073757 0.16376 0.16377v18.642c0 0.09126 0.07251 0.16502 0.16377 0.16502h6.4544c0.09001 0 0.16377-0.07376 0.16377-0.16502v-18.642c0-0.090009 0.07376-0.16377 0.16377-0.16377h7.4682c0.09001 0 0.16377-0.073757 0.16377-0.16377v-5.9931c0-0.091259-0.07376-0.16502-0.16377-0.16502z" fill="#de3030" stroke-width=".32003"/>
 <path d="m17.205 0.60006c-0.0175-0.073757-0.08376-0.12626-0.15876-0.12626h-6.8794c-0.10626 0-0.18377 0.10001-0.15876 0.20377l6.0506 24.962c0.0175 0.07376 0.08376 0.12626 0.15876 0.12626h6.8769c0.10626 0 0.18377-0.10001 0.15876-0.20377z" fill="#de3030" stroke-width=".32003"/>
 <g transform="matrix(.32003 0 0 .32003 -.31281 -16.699)" clip-path="url(#6955944a60)">
  <path d="m32.309 93.184h-21.492c-0.23828 0-0.44141 0.16016-0.5 0.39062l-9.3242 38.48c-0.078126 0.32422 0.16406 0.63672 0.49609 0.63672h21.496c0.23828 0 0.44141-0.16407 0.49609-0.39454l9.3281-38.48c0.07813-0.32422-0.16797-0.63281-0.5-0.63281z" fill="#de3030"/>
 </g>
 <path d="m81.989 0.47379h-6.8782c-0.07626 0-0.14251 0.052505-0.16002 0.12626l-6.0481 24.962c-0.02499 0.10376 0.05251 0.20377 0.15877 0.20377h6.8794c0.07501 0 0.14126-0.05251 0.15876-0.12626l6.0481-24.962c0.02499-0.10376-0.0525-0.20377-0.15876-0.20377z" fill="#de3030" stroke-width=".32003"/>
 <path d="m92.152 25.562-2.9853-12.315c-0.0175-0.07376-0.08251-0.12501-0.15877-0.12501h-6.8769c-0.10626 0-0.18377 0.09876-0.15876 0.20252l2.984 12.315c0.01875 0.07376 0.08375 0.12626 0.15876 0.12626h6.8782c0.10501 0 0.18377-0.10001 0.15876-0.20377z" fill="#de3030" stroke-width=".32003"/>
 <g transform="matrix(.32003 0 0 .32003 -.31281 -16.699)" clip-path="url(#88a5eed1d6)">
  <path d="m193.5 109.34c-4.2656 4.2812-10.055 6.6836-16.09 6.6836-6.0391 0-11.828-2.4024-16.094-6.6797-4.2695-4.2812-6.668-10.082-6.6719-16.133-4e-3 -3 0.58203-5.9727 1.7266-8.7422 1.1406-2.7734 2.8164-5.293 4.9336-7.4141 2.1133-2.1211 4.625-3.8047 7.3867-4.9531 2.7617-1.1484 5.7266-1.7383 8.7188-1.7383 2.9883 0 5.9531 0.58984 8.7148 1.7383 2.7617 1.1484 5.2734 2.832 7.3867 4.9531 2.1133 2.125 3.7891 4.6406 4.9336 7.4141 1.1406 2.7734 1.7266 5.7422 1.7188 8.7422 0 6.0508-2.3945 11.852-6.6641 16.129zm12.848-45.141c-7.6758-7.6953-18.086-12.02-28.938-12.02-5.375 0-10.699 1.0586-15.664 3.1211-4.9688 2.0625-9.4805 5.0859-13.281 8.8945-3.8008 3.8086-6.8164 8.332-8.875 13.312-2.0547 4.9766-3.1133 10.312-3.1133 15.703 8e-3 10.875 4.3242 21.305 12 28.992 7.6758 7.6875 18.082 12.004 28.934 12 10.848 0 21.25-4.3164 28.926-12.004s11.992-18.113 12-28.988c0-10.883-4.3125-21.32-11.988-29.012z" fill="#de3030"/>
 </g>
 <g fill="#fff">
  <g transform="matrix(.32003 0 0 .32003 -.31281 -16.699)">
   <g transform="translate(310 87.418)">
    <path d="m6.6094-23.156h9.1094l5.9531 23.156h-2.9844l-1.8125-6.7812h-11.422l-1.8125 6.7812h-2.9844zm9.5938 13.562-2.8125-10.75h-4.4531l-2.8125 10.75z"/>
   </g>
   <g transform="translate(332.33 87.418)">
    <path d="m2.3125-16.547h8.1094c1.582 0 2.8008 0.40234 3.6562 1.2031 0.86328 0.79297 1.2969 1.7734 1.2969 2.9375 0 0.75-0.11719 1.3594-0.34375 1.8281-0.23047 0.46094-0.49609 0.82422-0.79688 1.0938-0.29297 0.26172-0.57422 0.44531-0.84375 0.54688-0.26172 0.09375-0.42188 0.14062-0.48438 0.14062v0.03125c0.03906 0 0.22266 0.054687 0.54688 0.15625 0.33203 0.09375 0.69141 0.28906 1.0781 0.57812 0.38281 0.28125 0.73438 0.68359 1.0469 1.2031 0.3125 0.52344 0.46875 1.1992 0.46875 2.0312 0 1.418-0.48047 2.5742-1.4375 3.4688-0.96094 0.88672-2.3438 1.3281-4.1562 1.3281h-8.1406zm8.1094 14.062c0.98828 0 1.7266-0.22266 2.2188-0.67188 0.5-0.45703 0.75-1.0625 0.75-1.8125s-0.25-1.3477-0.75-1.7969c-0.49219-0.44531-1.2305-0.67188-2.2188-0.67188h-5.4531v4.9531zm-0.17188-7.2812c0.84375 0 1.4688-0.19141 1.875-0.57812 0.40625-0.38281 0.60938-0.90625 0.60938-1.5625 0-0.66406-0.20312-1.1914-0.60938-1.5781-0.40625-0.38281-1.0312-0.57812-1.875-0.57812h-5.2812v4.2969z"/>
   </g>
   <g transform="translate(349.69 87.418)">
    <path d="m5.9531-14.062h-5.7812v-2.4844h14.219v2.4844h-5.7969v14.062h-2.6406z"/>
   </g>
   <g transform="translate(364.25 87.418)">
    <path d="m9.9219 0.32812c-1.2305 0-2.375-0.21484-3.4375-0.64062s-1.9766-1.0195-2.7344-1.7812c-0.76172-0.75781-1.3555-1.6719-1.7812-2.7344-0.42969-1.0625-0.64062-2.207-0.64062-3.4375 0-1.2383 0.21094-2.3828 0.64062-3.4375 0.42578-1.0625 1.0195-1.9727 1.7812-2.7344 0.75781-0.75781 1.6719-1.3516 2.7344-1.7812 1.0625-0.4375 2.207-0.65625 3.4375-0.65625 1.2383 0 2.3828 0.21875 3.4375 0.65625 1.0625 0.42969 1.9727 1.0234 2.7344 1.7812 0.75781 0.76172 1.3516 1.6719 1.7812 2.7344 0.4375 1.0547 0.65625 2.1992 0.65625 3.4375 0 1.2305-0.21875 2.375-0.65625 3.4375-0.42969 1.0625-1.0234 1.9766-1.7812 2.7344-0.76172 0.76172-1.6719 1.3555-2.7344 1.7812-1.0547 0.42578-2.1992 0.64062-3.4375 0.64062zm0-2.4844c0.86328 0 1.6562-0.14453 2.375-0.4375 0.72656-0.30078 1.3594-0.71875 1.8906-1.25 0.53125-0.53906 0.94141-1.1875 1.2344-1.9375 0.30078-0.75 0.45312-1.5781 0.45312-2.4844s-0.15234-1.7344-0.45312-2.4844c-0.29297-0.75-0.70312-1.3945-1.2344-1.9375-0.53125-0.53906-1.1641-0.95703-1.8906-1.25-0.71875-0.30078-1.5117-0.45312-2.375-0.45312-0.85547 0-1.6484 0.15234-2.375 0.45312-0.73047 0.29297-1.3594 0.71094-1.8906 1.25-0.53125 0.54297-0.94922 1.1875-1.25 1.9375-0.29297 0.75-0.4375 1.5781-0.4375 2.4844s0.14453 1.7344 0.4375 2.4844c0.30078 0.75 0.71875 1.3984 1.25 1.9375 0.53125 0.53125 1.1602 0.94922 1.8906 1.25 0.72656 0.29297 1.5195 0.4375 2.375 0.4375z"/>
   </g>
   <g transform="translate(384.09 87.418)">
    <path d="m2.3125-16.547h3.9688l4.9688 10.266h0.82812l4.9531-10.266h3.9688v16.547h-2.6406v-13.234l0.03125-0.32812h-0.0625l-4.9375 10.25h-3.4688l-4.9219-10.25h-0.078125l0.046875 0.32812v13.234h-2.6562z"/>
   </g>
   <g transform="translate(407.41 87.418)">
    <path d="m9.2656 0.32812c-1.0859 0-2.1055-0.21484-3.0625-0.64062-0.96094-0.42578-1.8047-1.0195-2.5312-1.7812-0.73047-0.75781-1.3047-1.6719-1.7188-2.7344-0.41797-1.0625-0.625-2.207-0.625-3.4375 0-1.2383 0.20703-2.3828 0.625-3.4375 0.41406-1.0625 0.98828-1.9727 1.7188-2.7344 0.72656-0.75781 1.5703-1.3516 2.5312-1.7812 0.95703-0.4375 1.9766-0.65625 3.0625-0.65625 1.0703 0 1.9844 0.15625 2.7344 0.46875s1.3594 0.65625 1.8281 1.0312c0.47656 0.375 0.82031 0.72656 1.0312 1.0469 0.21875 0.3125 0.32812 0.46875 0.32812 0.46875h0.03125v-2.6875h2.6406v16.547h-2.6406v-2.6406h-0.03125s-0.10938 0.16406-0.32812 0.48438c-0.21094 0.3125-0.55469 0.65234-1.0312 1.0156-0.46875 0.36719-1.0781 0.70312-1.8281 1.0156-0.75 0.30078-1.6641 0.45312-2.7344 0.45312zm0.32812-2.4844c0.78906 0 1.5234-0.14453 2.2031-0.4375 0.6875-0.30078 1.2852-0.71875 1.7969-1.25 0.50781-0.53906 0.90625-1.1875 1.1875-1.9375 0.28906-0.75 0.4375-1.5781 0.4375-2.4844s-0.14844-1.7344-0.4375-2.4844c-0.28125-0.75-0.67969-1.3945-1.1875-1.9375-0.51172-0.53906-1.1094-0.95703-1.7969-1.25-0.67969-0.30078-1.4141-0.45312-2.2031-0.45312-0.79297 0-1.5312 0.15234-2.2188 0.45312-0.6875 0.29297-1.2891 0.71094-1.7969 1.25-0.5 0.54297-0.89844 1.1875-1.1875 1.9375-0.28125 0.75-0.42188 1.5781-0.42188 2.4844s0.14062 1.7344 0.42188 2.4844c0.28906 0.75 0.6875 1.3984 1.1875 1.9375 0.50781 0.53125 1.1094 0.94922 1.7969 1.25 0.6875 0.29297 1.4258 0.4375 2.2188 0.4375z"/>
   </g>
   <g transform="translate(427.59 87.418)">
    <path d="m5.9531-14.062h-5.7812v-2.4844h14.219v2.4844h-5.7969v14.062h-2.6406z"/>
   </g>
   <g transform="translate(442.14 87.418)">
    <path d="m2.3125-16.547h2.6562v12.406l-0.046875 0.34375h0.078125l8.8906-12.75h2.9844v16.547h-2.6562v-12.406l0.03125-0.32812h-0.0625l-8.8906 12.734h-2.9844z"/>
   </g>
   <g transform="translate(461.32 87.418)">
    <path d="m7.9375 0.32812c-0.83594 0-1.5742-0.078125-2.2188-0.23438-0.63672-0.14453-1.2031-0.34375-1.7031-0.59375-0.49219-0.25781-0.91797-0.55469-1.2812-0.89062-0.36719-0.33203-0.67188-0.66016-0.92188-0.98438-0.57422-0.80078-0.96094-1.7188-1.1562-2.75h2.6562c0.125 0.57422 0.375 1.0703 0.75 1.4844 0.3125 0.375 0.76953 0.71875 1.375 1.0312 0.60156 0.30469 1.4375 0.45312 2.5 0.45312 1.4141 0 2.457-0.26953 3.125-0.8125 0.67578-0.55078 1.0156-1.1602 1.0156-1.8281 0-0.65625-0.3125-1.2344-0.9375-1.7344-0.61719-0.5-1.625-0.75-3.0312-0.75h-1.9844v-2.4844h1.9844c1.3203 0 2.2578-0.21875 2.8125-0.65625 0.55078-0.4375 0.82812-0.98828 0.82812-1.6562 0-0.57031-0.30859-1.0977-0.92188-1.5781-0.60547-0.48828-1.5703-0.73438-2.8906-0.73438-0.88672 0-1.5938 0.13672-2.125 0.40625-0.52344 0.26172-0.9375 0.54688-1.25 0.85938-0.35547 0.375-0.60938 0.78125-0.76562 1.2188h-2.6406c0.19531-0.92578 0.58203-1.7539 1.1562-2.4844 0.23828-0.3125 0.52344-0.61328 0.85938-0.90625 0.33203-0.30078 0.72656-0.56641 1.1875-0.79688 0.46875-0.22656 0.99219-0.41406 1.5781-0.5625 0.58203-0.14453 1.25-0.21875 2-0.21875 1.082 0 2.0234 0.13281 2.8281 0.39062 0.80078 0.25 1.4727 0.58594 2.0156 1 0.53906 0.41797 0.94141 0.90625 1.2031 1.4688 0.26953 0.5625 0.40625 1.1562 0.40625 1.7812 0 0.69922-0.13672 1.2812-0.40625 1.75-0.26172 0.46094-0.5625 0.82812-0.90625 1.1094-0.34375 0.27344-0.66797 0.46484-0.96875 0.57812-0.29297 0.10547-0.46875 0.17188-0.53125 0.20312v0.03125c0.03906 0 0.22656 0.058594 0.5625 0.17188 0.33203 0.10547 0.69141 0.30859 1.0781 0.60938 0.38281 0.29297 0.72656 0.69531 1.0312 1.2031 0.3125 0.5 0.46875 1.1523 0.46875 1.9531 0 0.65625-0.14844 1.2812-0.4375 1.875-0.28125 0.59375-0.71094 1.125-1.2812 1.5938-0.57422 0.46094-1.2812 0.82422-2.125 1.0938-0.83594 0.25781-1.8125 0.39062-2.9375 0.39062z"/>
   </g>
   <g transform="translate(477.36 87.418)">
    <path d="m9.2656 0.32812c-1.0859 0-2.1055-0.21484-3.0625-0.64062-0.96094-0.42578-1.8047-1.0195-2.5312-1.7812-0.73047-0.75781-1.3047-1.6719-1.7188-2.7344-0.41797-1.0625-0.625-2.207-0.625-3.4375 0-1.2383 0.20703-2.3828 0.625-3.4375 0.41406-1.0625 0.98828-1.9727 1.7188-2.7344 0.72656-0.75781 1.5703-1.3516 2.5312-1.7812 0.95703-0.4375 1.9766-0.65625 3.0625-0.65625 1.0703 0 1.9844 0.15625 2.7344 0.46875s1.3594 0.65625 1.8281 1.0312c0.47656 0.375 0.82031 0.72656 1.0312 1.0469 0.21875 0.3125 0.32812 0.46875 0.32812 0.46875h0.03125v-2.6875h2.6406v16.547h-2.6406v-2.6406h-0.03125s-0.10938 0.16406-0.32812 0.48438c-0.21094 0.3125-0.55469 0.65234-1.0312 1.0156-0.46875 0.36719-1.0781 0.70312-1.8281 1.0156-0.75 0.30078-1.6641 0.45312-2.7344 0.45312zm0.32812-2.4844c0.78906 0 1.5234-0.14453 2.2031-0.4375 0.6875-0.30078 1.2852-0.71875 1.7969-1.25 0.50781-0.53906 0.90625-1.1875 1.1875-1.9375 0.28906-0.75 0.4375-1.5781 0.4375-2.4844s-0.14844-1.7344-0.4375-2.4844c-0.28125-0.75-0.67969-1.3945-1.1875-1.9375-0.51172-0.53906-1.1094-0.95703-1.7969-1.25-0.67969-0.30078-1.4141-0.45312-2.2031-0.45312-0.79297 0-1.5312 0.15234-2.2188 0.45312-0.6875 0.29297-1.2891 0.71094-1.7969 1.25-0.5 0.54297-0.89844 1.1875-1.1875 1.9375-0.28125 0.75-0.42188 1.5781-0.42188 2.4844s0.14062 1.7344 0.42188 2.4844c0.28906 0.75 0.6875 1.3984 1.1875 1.9375 0.50781 0.53125 1.1094 0.94922 1.7969 1.25 0.6875 0.29297 1.4258 0.4375 2.2188 0.4375z"/>
   </g>
   <g transform="translate(497.54 87.418)">
    <path d="m15.875 0h-13.562v-16.547h2.6562v14.062h8.5938v-14.062h2.6406v14.062h2.3281v6.2812h-2.6562z"/>
   </g>
   <g transform="translate(516.56 87.418)">
    <path d="m2.3125-16.547h2.6562v12.406l-0.046875 0.34375h0.078125l8.8906-12.75h2.9844v16.547h-2.6562v-12.406l0.03125-0.32812h-0.0625l-8.8906 12.734h-2.9844z"/>
   </g>
   <g transform="translate(535.74 87.418)">
    <path d="m4.9688-5.9531c-0.625-0.25781-1.1797-0.61328-1.6562-1.0625-0.42969-0.375-0.8125-0.875-1.1562-1.5-0.33594-0.625-0.5-1.4258-0.5-2.4062 0-0.78906 0.14453-1.5234 0.4375-2.2031 0.30078-0.6875 0.73438-1.2812 1.2969-1.7812 0.5625-0.50781 1.2344-0.91016 2.0156-1.2031 0.78125-0.28906 1.6719-0.4375 2.6719-0.4375h7.4688v16.547h-2.6406v-5.2969h-5.2969l-2.9062 5.2969h-3.0469zm7.9375-1.8125v-6.2969h-4.7969c-1.2617 0-2.2148 0.29297-2.8594 0.875-0.63672 0.58594-0.95312 1.3398-0.95312 2.2656 0 0.92969 0.31641 1.6875 0.95312 2.2812 0.64453 0.58594 1.5977 0.875 2.8594 0.875z"/>
   </g>
  </g>
  <g transform="translate(-.97745 -52.18)">
   <g transform="translate(553.6 87.418)"></g>
  </g>
  <g transform="matrix(.32003 0 0 .32003 -.31281 -16.699)">
   <g transform="translate(562.87 87.418)">
    <path d="m5.9531-14.062h-5.7812v-2.4844h14.219v2.4844h-5.7969v14.062h-2.6406z"/>
   </g>
   <g transform="translate(577.42 87.418)">
    <path d="m9.9219 0.32812c-1.2305 0-2.375-0.21484-3.4375-0.64062s-1.9766-1.0195-2.7344-1.7812c-0.76172-0.75781-1.3555-1.6719-1.7812-2.7344-0.42969-1.0625-0.64062-2.207-0.64062-3.4375 0-1.2383 0.21094-2.3828 0.64062-3.4375 0.42578-1.0625 1.0195-1.9727 1.7812-2.7344 0.75781-0.75781 1.6719-1.3516 2.7344-1.7812 1.0625-0.4375 2.207-0.65625 3.4375-0.65625 1.2383 0 2.3828 0.21875 3.4375 0.65625 1.0625 0.42969 1.9727 1.0234 2.7344 1.7812 0.75781 0.76172 1.3516 1.6719 1.7812 2.7344 0.4375 1.0547 0.65625 2.1992 0.65625 3.4375 0 1.2305-0.21875 2.375-0.65625 3.4375-0.42969 1.0625-1.0234 1.9766-1.7812 2.7344-0.76172 0.76172-1.6719 1.3555-2.7344 1.7812-1.0547 0.42578-2.1992 0.64062-3.4375 0.64062zm0-2.4844c0.86328 0 1.6562-0.14453 2.375-0.4375 0.72656-0.30078 1.3594-0.71875 1.8906-1.25 0.53125-0.53906 0.94141-1.1875 1.2344-1.9375 0.30078-0.75 0.45312-1.5781 0.45312-2.4844s-0.15234-1.7344-0.45312-2.4844c-0.29297-0.75-0.70312-1.3945-1.2344-1.9375-0.53125-0.53906-1.1641-0.95703-1.8906-1.25-0.71875-0.30078-1.5117-0.45312-2.375-0.45312-0.85547 0-1.6484 0.15234-2.375 0.45312-0.73047 0.29297-1.3594 0.71094-1.8906 1.25-0.53125 0.54297-0.94922 1.1875-1.25 1.9375-0.29297 0.75-0.4375 1.5781-0.4375 2.4844s0.14453 1.7344 0.4375 2.4844c0.30078 0.75 0.71875 1.3984 1.25 1.9375 0.53125 0.53125 1.1602 0.94922 1.8906 1.25 0.72656 0.29297 1.5195 0.4375 2.375 0.4375z"/>
   </g>
   <g transform="translate(597.26 87.418)">
    <path d="m2.3125-16.547h2.6562v2.6562h0.03125s0.10156-0.16016 0.3125-0.48438c0.20703-0.32031 0.54688-0.66016 1.0156-1.0156 0.47656-0.36328 1.0938-0.70312 1.8438-1.0156s1.6641-0.46875 2.75-0.46875c1.0703 0 2.0859 0.21875 3.0469 0.65625 0.96875 0.42969 1.8125 1.0234 2.5312 1.7812 0.72656 0.76172 1.3008 1.6719 1.7188 2.7344 0.42578 1.0547 0.64062 2.1992 0.64062 3.4375 0 1.2305-0.21484 2.375-0.64062 3.4375-0.41797 1.0625-0.99219 1.9766-1.7188 2.7344-0.71875 0.76172-1.5625 1.3555-2.5312 1.7812-0.96094 0.42578-1.9766 0.64062-3.0469 0.64062-1.0859 0-2-0.15234-2.75-0.45312-0.75-0.3125-1.3672-0.64844-1.8438-1.0156-0.46875-0.36328-0.80859-0.70312-1.0156-1.0156-0.21094-0.32031-0.3125-0.48438-0.3125-0.48438h-0.03125v8.9219h-2.6562zm8.2656 14.391c0.80078 0 1.5391-0.14453 2.2188-0.4375 0.6875-0.30078 1.2812-0.71875 1.7812-1.25 0.50781-0.53906 0.90625-1.1875 1.1875-1.9375 0.28906-0.75 0.4375-1.5781 0.4375-2.4844s-0.14844-1.7344-0.4375-2.4844c-0.28125-0.75-0.67969-1.3945-1.1875-1.9375-0.5-0.53906-1.0938-0.95703-1.7812-1.25-0.67969-0.30078-1.418-0.45312-2.2188-0.45312-0.79297 0-1.5312 0.15234-2.2188 0.45312-0.67969 0.29297-1.2734 0.71094-1.7812 1.25-0.5 0.54297-0.89844 1.1875-1.1875 1.9375-0.28125 0.75-0.42188 1.5781-0.42188 2.4844s0.14062 1.7344 0.42188 2.4844c0.28906 0.75 0.6875 1.3984 1.1875 1.9375 0.50781 0.53125 1.1016 0.94922 1.7812 1.25 0.6875 0.29297 1.4258 0.4375 2.2188 0.4375z"/>
   </g>
   <g transform="translate(617.44 87.418)">
    <path d="m2.3125-16.547h11.422v2.4844h-8.7656v14.062h-2.6562z"/>
   </g>
   <g transform="translate(631.5 87.418)">
    <path d="m9.9219 0.32812c-1.2305 0-2.375-0.21484-3.4375-0.64062s-1.9766-1.0195-2.7344-1.7812c-0.76172-0.75781-1.3555-1.6719-1.7812-2.7344-0.42969-1.0625-0.64062-2.207-0.64062-3.4375 0-1.2383 0.21094-2.3828 0.64062-3.4375 0.42578-1.0625 1.0195-1.9727 1.7812-2.7344 0.75781-0.75781 1.6719-1.3516 2.7344-1.7812 1.0625-0.4375 2.207-0.65625 3.4375-0.65625 1.2383 0 2.3828 0.21875 3.4375 0.65625 1.0625 0.42969 1.9727 1.0234 2.7344 1.7812 0.75781 0.76172 1.3516 1.6719 1.7812 2.7344 0.4375 1.0547 0.65625 2.1992 0.65625 3.4375 0 1.2305-0.21875 2.375-0.65625 3.4375-0.42969 1.0625-1.0234 1.9766-1.7812 2.7344-0.76172 0.76172-1.6719 1.3555-2.7344 1.7812-1.0547 0.42578-2.1992 0.64062-3.4375 0.64062zm0-2.4844c0.86328 0 1.6562-0.14453 2.375-0.4375 0.72656-0.30078 1.3594-0.71875 1.8906-1.25 0.53125-0.53906 0.94141-1.1875 1.2344-1.9375 0.30078-0.75 0.45312-1.5781 0.45312-2.4844s-0.15234-1.7344-0.45312-2.4844c-0.29297-0.75-0.70312-1.3945-1.2344-1.9375-0.53125-0.53906-1.1641-0.95703-1.8906-1.25-0.71875-0.30078-1.5117-0.45312-2.375-0.45312-0.85547 0-1.6484 0.15234-2.375 0.45312-0.73047 0.29297-1.3594 0.71094-1.8906 1.25-0.53125 0.54297-0.94922 1.1875-1.25 1.9375-0.29297 0.75-0.4375 1.5781-0.4375 2.4844s0.14453 1.7344 0.4375 2.4844c0.30078 0.75 0.71875 1.3984 1.25 1.9375 0.53125 0.53125 1.1602 0.94922 1.8906 1.25 0.72656 0.29297 1.5195 0.4375 2.375 0.4375z"/>
   </g>
   <g transform="translate(651.34 87.418)">
    <path d="m2.3125-16.547h8.1094c1.582 0 2.8008 0.40234 3.6562 1.2031 0.86328 0.79297 1.2969 1.7734 1.2969 2.9375 0 0.75-0.11719 1.3594-0.34375 1.8281-0.23047 0.46094-0.49609 0.82422-0.79688 1.0938-0.29297 0.26172-0.57422 0.44531-0.84375 0.54688-0.26172 0.09375-0.42188 0.14062-0.48438 0.14062v0.03125c0.03906 0 0.22266 0.054687 0.54688 0.15625 0.33203 0.09375 0.69141 0.28906 1.0781 0.57812 0.38281 0.28125 0.73438 0.68359 1.0469 1.2031 0.3125 0.52344 0.46875 1.1992 0.46875 2.0312 0 1.418-0.48047 2.5742-1.4375 3.4688-0.96094 0.88672-2.3438 1.3281-4.1562 1.3281h-8.1406zm8.1094 14.062c0.98828 0 1.7266-0.22266 2.2188-0.67188 0.5-0.45703 0.75-1.0625 0.75-1.8125s-0.25-1.3477-0.75-1.7969c-0.49219-0.44531-1.2305-0.67188-2.2188-0.67188h-5.4531v4.9531zm-0.17188-7.2812c0.84375 0 1.4688-0.19141 1.875-0.57812 0.40625-0.38281 0.60938-0.90625 0.60938-1.5625 0-0.66406-0.20312-1.1914-0.60938-1.5781-0.40625-0.38281-1.0312-0.57812-1.875-0.57812h-5.2812v4.2969z"/>
   </g>
   <g transform="translate(668.71 87.418)">
    <path d="m4.9688-16.547h6.9375l4.6406 16.547h-2.8125l-3.8125-14.062h-2.9688l-3.8125 14.062h-2.8125z"/>
   </g>
   <g transform="translate(685.58 87.418)">
    <path d="m2.3125-16.547h2.6562v12.406l-0.046875 0.34375h0.078125l8.8906-12.75h2.9844v16.547h-2.6562v-12.406l0.03125-0.32812h-0.0625l-8.8906 12.734h-2.9844z"/>
   </g>
  </g>
  <g transform="translate(-.97745 -52.18)">
   <g transform="translate(704.76 87.418)">
    <path d="m1.6562 2.8125c1.3203-0.15625 1.9844-0.875 1.9844-2.1562v-0.48438c-0.042969 0.039063-0.10938 0.070313-0.20312 0.09375-0.17969 0.039063-0.32812 0.0625-0.45312 0.0625-0.42969 0-0.78906-0.15234-1.0781-0.45312-0.28125-0.3125-0.42188-0.73438-0.42188-1.2656 0-0.63281 0.1875-1.1406 0.5625-1.5156s0.84766-0.5625 1.4219-0.5625c0.57031 0 1.0469 0.23047 1.4219 0.6875 0.375 0.44922 0.5625 1.2109 0.5625 2.2812 0 1.5-0.34375 2.625-1.0312 3.375-0.67969 0.75-1.6016 1.1719-2.7656 1.2656z"/>
   </g>
  </g>
  <g transform="matrix(.32003 0 0 .32003 -.31281 -16.699)">
   <g transform="translate(309.98 124.82)">
    <path d="m9.5938 0.32812c-1.168 0-2.2578-0.21484-3.2656-0.64062-1-0.42578-1.8711-1.0195-2.6094-1.7812-0.74219-0.75781-1.3242-1.6719-1.75-2.7344-0.42969-1.0625-0.64062-2.207-0.64062-3.4375 0-1.2383 0.21094-2.3828 0.64062-3.4375 0.42578-1.0625 1.0078-1.9727 1.75-2.7344 0.73828-0.75781 1.6094-1.3516 2.6094-1.7812 1.0078-0.4375 2.0977-0.65625 3.2656-0.65625 0.8125 0 1.5508 0.08594 2.2188 0.25 0.67578 0.16797 1.2812 0.39062 1.8125 0.67188 0.53125 0.27344 0.99219 0.58594 1.3906 0.9375 0.39453 0.35547 0.73828 0.71094 1.0312 1.0625 0.67578 0.85547 1.1719 1.8125 1.4844 2.875h-2.6406c-0.27344-0.61328-0.63672-1.1641-1.0938-1.6562-0.39844-0.41406-0.9375-0.79688-1.625-1.1406s-1.5469-0.51562-2.5781-0.51562c-0.79297 0-1.5312 0.15234-2.2188 0.45312-0.6875 0.29297-1.2891 0.71094-1.7969 1.25-0.5 0.54297-0.89844 1.1875-1.1875 1.9375-0.28125 0.75-0.42188 1.5781-0.42188 2.4844 0 0.92969 0.14844 1.7656 0.45312 2.5156 0.3125 0.75 0.72266 1.3906 1.2344 1.9219 0.50781 0.52344 1.1016 0.93359 1.7812 1.2344 0.6875 0.29297 1.4062 0.4375 2.1562 0.4375 1.082 0 1.9688-0.1875 2.6562-0.5625 0.69531-0.375 1.2539-0.78906 1.6719-1.25 0.48828-0.53125 0.86328-1.1328 1.125-1.8125h2.6562c-0.3125 1.168-0.82422 2.1875-1.5312 3.0625-0.30469 0.375-0.65625 0.74609-1.0625 1.1094-0.39844 0.36719-0.86719 0.69531-1.4062 0.98438-0.53125 0.28125-1.1406 0.51172-1.8281 0.6875s-1.4492 0.26562-2.2812 0.26562z"/>
   </g>
   <g transform="translate(328.67 124.82)">
    <path d="m9.7656 0.17188c-1.2422-0.09375-2.3906-0.36719-3.4531-0.82812-1.0547-0.46875-1.9609-1.082-2.7188-1.8438-0.76172-0.75781-1.3594-1.6289-1.7969-2.6094-0.42969-0.97656-0.64062-2.0312-0.64062-3.1562s0.21094-2.1758 0.64062-3.1562c0.4375-0.98828 1.0352-1.8633 1.7969-2.625 0.75781-0.75781 1.6641-1.3672 2.7188-1.8281 1.0625-0.46875 2.2109-0.74219 3.4531-0.82812v-6.4531h2.6406v6.4531c1.2266 0.08594 2.375 0.35938 3.4375 0.82812 1.0625 0.46094 1.9727 1.0703 2.7344 1.8281 0.75781 0.76172 1.3516 1.6367 1.7812 2.625 0.42578 0.98047 0.64062 2.0312 0.64062 3.1562s-0.21484 2.1797-0.64062 3.1562c-0.42969 0.98047-1.0234 1.8516-1.7812 2.6094-0.76172 0.76172-1.6719 1.375-2.7344 1.8438-1.0625 0.46094-2.2109 0.73438-3.4375 0.82812v6.1094h-2.6406zm0-14.391c-0.86719 0.042969-1.6641 0.21875-2.3906 0.53125-0.73047 0.30469-1.3594 0.71875-1.8906 1.25-0.52344 0.53125-0.93359 1.1562-1.2344 1.875-0.30469 0.71094-0.45312 1.4766-0.45312 2.2969 0 0.83594 0.14844 1.6055 0.45312 2.3125 0.30078 0.71094 0.71094 1.3281 1.2344 1.8594 0.53125 0.52344 1.1602 0.9375 1.8906 1.25 0.72656 0.3125 1.5234 0.49219 2.3906 0.53125zm2.6406 11.906c0.85156-0.039062 1.6445-0.21875 2.375-0.53125 0.72656-0.3125 1.3594-0.72656 1.8906-1.25 0.53125-0.53125 0.94141-1.1484 1.2344-1.8594 0.30078-0.70703 0.45312-1.4766 0.45312-2.3125 0-0.82031-0.15234-1.5859-0.45312-2.2969-0.29297-0.71875-0.70312-1.3438-1.2344-1.875s-1.1641-0.94531-1.8906-1.25c-0.73047-0.3125-1.5234-0.48828-2.375-0.53125z"/>
   </g>
   <g transform="translate(350.83 124.82)">
    <path d="m9.7656 0.32812c-1.1992 0-2.3203-0.21484-3.3594-0.64062-1.0312-0.42578-1.9219-1.0195-2.6719-1.7812-0.75-0.75781-1.3398-1.6719-1.7656-2.7344-0.42969-1.0625-0.64062-2.207-0.64062-3.4375 0-1.2383 0.21094-2.3828 0.64062-3.4375 0.42578-1.0625 1.0156-1.9727 1.7656-2.7344 0.75-0.75781 1.6406-1.3516 2.6719-1.7812 1.0391-0.4375 2.1602-0.65625 3.3594-0.65625 1.1875 0 2.2969 0.21875 3.3281 0.65625 1.0391 0.42969 1.9375 1.0156 2.6875 1.7656s1.3359 1.6484 1.7656 2.6875c0.42578 1.0312 0.64062 2.1406 0.64062 3.3281v1h-14.219c0.09375 0.77344 0.30078 1.4844 0.625 2.1406 0.33203 0.64844 0.75 1.2031 1.25 1.6719 0.50781 0.46094 1.1016 0.82031 1.7812 1.0781 0.67578 0.26172 1.3906 0.39062 2.1406 0.39062 0.98828 0 1.8203-0.14844 2.5-0.45312 0.6875-0.3125 1.25-0.65625 1.6875-1.0312 0.50781-0.41406 0.92969-0.91016 1.2656-1.4844h2.6406c-0.39844 1.0312-0.96094 1.9492-1.6875 2.75-0.63672 0.67969-1.4766 1.2969-2.5156 1.8594-1.0312 0.5625-2.3281 0.84375-3.8906 0.84375zm5.6094-10.094c-0.085938-0.61328-0.27734-1.2031-0.57812-1.7656-0.29297-0.5625-0.68359-1.0508-1.1719-1.4688-0.48047-0.41406-1.0469-0.75-1.7031-1-0.64844-0.25781-1.3672-0.39062-2.1562-0.39062-0.80469 0-1.5312 0.13281-2.1875 0.39062-0.64844 0.25-1.2188 0.58594-1.7188 1-0.49219 0.41797-0.89062 0.90625-1.2031 1.4688-0.30469 0.5625-0.51172 1.1523-0.625 1.7656z"/>
   </g>
   <g transform="translate(370.34 124.82)">
    <path d="m2.3125-16.547h2.6562v2.6562h0.03125s0.10156-0.16016 0.3125-0.48438c0.20703-0.32031 0.54688-0.66016 1.0156-1.0156 0.47656-0.36328 1.0938-0.70312 1.8438-1.0156s1.6641-0.46875 2.75-0.46875c1.0703 0 2.0859 0.21875 3.0469 0.65625 0.96875 0.42969 1.8125 1.0234 2.5312 1.7812 0.72656 0.76172 1.3008 1.6719 1.7188 2.7344 0.42578 1.0547 0.64062 2.1992 0.64062 3.4375 0 1.2305-0.21484 2.375-0.64062 3.4375-0.41797 1.0625-0.99219 1.9766-1.7188 2.7344-0.71875 0.76172-1.5625 1.3555-2.5312 1.7812-0.96094 0.42578-1.9766 0.64062-3.0469 0.64062-1.0859 0-2-0.15234-2.75-0.45312-0.75-0.3125-1.3672-0.64844-1.8438-1.0156-0.46875-0.36328-0.80859-0.70312-1.0156-1.0156-0.21094-0.32031-0.3125-0.48438-0.3125-0.48438h-0.03125v8.9219h-2.6562zm8.2656 14.391c0.80078 0 1.5391-0.14453 2.2188-0.4375 0.6875-0.30078 1.2812-0.71875 1.7812-1.25 0.50781-0.53906 0.90625-1.1875 1.1875-1.9375 0.28906-0.75 0.4375-1.5781 0.4375-2.4844s-0.14844-1.7344-0.4375-2.4844c-0.28125-0.75-0.67969-1.3945-1.1875-1.9375-0.5-0.53906-1.0938-0.95703-1.7812-1.25-0.67969-0.30078-1.418-0.45312-2.2188-0.45312-0.79297 0-1.5312 0.15234-2.2188 0.45312-0.67969 0.29297-1.2734 0.71094-1.7812 1.25-0.5 0.54297-0.89844 1.1875-1.1875 1.9375-0.28125 0.75-0.42188 1.5781-0.42188 2.4844s0.14062 1.7344 0.42188 2.4844c0.28906 0.75 0.6875 1.3984 1.1875 1.9375 0.50781 0.53125 1.1016 0.94922 1.7812 1.25 0.6875 0.29297 1.4258 0.4375 2.2188 0.4375z"/>
   </g>
   <g transform="translate(390.52 124.82)">
    <path d="m2.3125-16.547h2.6562v5.625h3.9688c0.94531 0 1.8047 0.14844 2.5781 0.4375 0.76953 0.28125 1.4297 0.67188 1.9844 1.1719 0.55078 0.5 0.97266 1.0859 1.2656 1.75 0.30078 0.65625 0.45312 1.3594 0.45312 2.1094s-0.15234 1.4609-0.45312 2.125c-0.29297 0.65625-0.71484 1.2344-1.2656 1.7344-0.55469 0.49219-1.2148 0.88281-1.9844 1.1719-0.77344 0.28125-1.6328 0.42188-2.5781 0.42188h-6.625zm6.625 14.062c1.1641 0 2.0625-0.28516 2.6875-0.85938 0.625-0.57031 0.9375-1.2734 0.9375-2.1094 0-0.84375-0.3125-1.5508-0.9375-2.125-0.625-0.57031-1.5234-0.85938-2.6875-0.85938h-3.9688v5.9531zm8.4219-14.062h2.6562v16.547h-2.6562z"/>
   </g>
  </g>
  <g transform="translate(-.97745 -52.18)">
   <g transform="translate(412.84 124.82)"></g>
  </g>
  <g transform="matrix(.32003 0 0 .32003 -.31281 -16.699)">
   <g transform="translate(422.1 124.82)">
    <path d="m8.9375 0h-3.8125l-4.4688-16.547h2.8125l3.6406 14.062h2.4844l4.2969-14.062h2.8125l-6.9375 22.828h-2.8125z"/>
   </g>
   <g transform="translate(438.81 124.82)">
    <path d="m9.5938 0.32812c-1.168 0-2.2578-0.21484-3.2656-0.64062-1-0.42578-1.8711-1.0195-2.6094-1.7812-0.74219-0.75781-1.3242-1.6719-1.75-2.7344-0.42969-1.0625-0.64062-2.207-0.64062-3.4375 0-1.2383 0.21094-2.3828 0.64062-3.4375 0.42578-1.0625 1.0078-1.9727 1.75-2.7344 0.73828-0.75781 1.6094-1.3516 2.6094-1.7812 1.0078-0.4375 2.0977-0.65625 3.2656-0.65625 0.8125 0 1.5508 0.08594 2.2188 0.25 0.67578 0.16797 1.2812 0.39062 1.8125 0.67188 0.53125 0.27344 0.99219 0.58594 1.3906 0.9375 0.39453 0.35547 0.73828 0.71094 1.0312 1.0625 0.67578 0.85547 1.1719 1.8125 1.4844 2.875h-2.6406c-0.27344-0.61328-0.63672-1.1641-1.0938-1.6562-0.39844-0.41406-0.9375-0.79688-1.625-1.1406s-1.5469-0.51562-2.5781-0.51562c-0.79297 0-1.5312 0.15234-2.2188 0.45312-0.6875 0.29297-1.2891 0.71094-1.7969 1.25-0.5 0.54297-0.89844 1.1875-1.1875 1.9375-0.28125 0.75-0.42188 1.5781-0.42188 2.4844 0 0.92969 0.14844 1.7656 0.45312 2.5156 0.3125 0.75 0.72266 1.3906 1.2344 1.9219 0.50781 0.52344 1.1016 0.93359 1.7812 1.2344 0.6875 0.29297 1.4062 0.4375 2.1562 0.4375 1.082 0 1.9688-0.1875 2.6562-0.5625 0.69531-0.375 1.2539-0.78906 1.6719-1.25 0.48828-0.53125 0.86328-1.1328 1.125-1.8125h2.6562c-0.3125 1.168-0.82422 2.1875-1.5312 3.0625-0.30469 0.375-0.65625 0.74609-1.0625 1.1094-0.39844 0.36719-0.86719 0.69531-1.4062 0.98438-0.53125 0.28125-1.1406 0.51172-1.8281 0.6875s-1.4492 0.26562-2.2812 0.26562z"/>
   </g>
   <g transform="translate(457.5 124.82)">
    <path d="m4.9688-16.547h6.9375l4.6406 16.547h-2.8125l-3.8125-14.062h-2.9688l-3.8125 14.062h-2.8125z"/>
   </g>
   <g transform="translate(474.36 124.82)">
    <path d="m8.9375 0h-3.8125l-4.4688-16.547h2.8125l3.6406 14.062h2.4844l4.2969-14.062h2.8125l-6.9375 22.828h-2.8125z"/>
   </g>
   <g transform="translate(491.07 124.82)">
    <path d="m2.3125-16.547h11.422v2.4844h-8.7656v14.062h-2.6562z"/>
   </g>
  </g>
  <g transform="translate(-.97745 -52.18)">
   <g transform="translate(505.13 124.82)"></g>
  </g>
  <g transform="matrix(.32003 0 0 .32003 -.31281 -16.699)">
   <g transform="translate(514.39 124.82)">
    <path d="m2.3125-16.547h2.6562v12.406l-0.046875 0.34375h0.078125l8.8906-12.75h2.9844v16.547h-2.6562v-12.406l0.03125-0.32812h-0.0625l-8.8906 12.734h-2.9844z"/>
   </g>
  </g>
  <g transform="translate(-.97745 -52.18)">
   <g transform="translate(533.57 124.82)"></g>
  </g>
  <g transform="matrix(.32003 0 0 .32003 -.31281 -16.699)">
   <g transform="translate(542.83 124.82)">
    <path d="m4.9688-16.547h6.9375l4.6406 16.547h-2.8125l-3.8125-14.062h-2.9688l-3.8125 14.062h-2.8125z"/>
   </g>
   <g transform="translate(559.7 124.82)">
    <path d="m9.9219 0.32812c-1.2305 0-2.375-0.21484-3.4375-0.64062s-1.9766-1.0195-2.7344-1.7812c-0.76172-0.75781-1.3555-1.6719-1.7812-2.7344-0.42969-1.0625-0.64062-2.207-0.64062-3.4375 0-1.2383 0.21094-2.3828 0.64062-3.4375 0.42578-1.0625 1.0195-1.9727 1.7812-2.7344 0.75781-0.75781 1.6719-1.3516 2.7344-1.7812 1.0625-0.4375 2.207-0.65625 3.4375-0.65625 1.2383 0 2.3828 0.21875 3.4375 0.65625 1.0625 0.42969 1.9727 1.0234 2.7344 1.7812 0.75781 0.76172 1.3516 1.6719 1.7812 2.7344 0.4375 1.0547 0.65625 2.1992 0.65625 3.4375 0 1.2305-0.21875 2.375-0.65625 3.4375-0.42969 1.0625-1.0234 1.9766-1.7812 2.7344-0.76172 0.76172-1.6719 1.3555-2.7344 1.7812-1.0547 0.42578-2.1992 0.64062-3.4375 0.64062zm0-2.4844c0.86328 0 1.6562-0.14453 2.375-0.4375 0.72656-0.30078 1.3594-0.71875 1.8906-1.25 0.53125-0.53906 0.94141-1.1875 1.2344-1.9375 0.30078-0.75 0.45312-1.5781 0.45312-2.4844s-0.15234-1.7344-0.45312-2.4844c-0.29297-0.75-0.70312-1.3945-1.2344-1.9375-0.53125-0.53906-1.1641-0.95703-1.8906-1.25-0.71875-0.30078-1.5117-0.45312-2.375-0.45312-0.85547 0-1.6484 0.15234-2.375 0.45312-0.73047 0.29297-1.3594 0.71094-1.8906 1.25-0.53125 0.54297-0.94922 1.1875-1.25 1.9375-0.29297 0.75-0.4375 1.5781-0.4375 2.4844s0.14453 1.7344 0.4375 2.4844c0.30078 0.75 0.71875 1.3984 1.25 1.9375 0.53125 0.53125 1.1602 0.94922 1.8906 1.25 0.72656 0.29297 1.5195 0.4375 2.375 0.4375z"/>
   </g>
   <g transform="translate(579.55 124.82)">
    <path d="m2.3125-16.547h11.422v2.4844h-8.7656v14.062h-2.6562z"/>
   </g>
   <g transform="translate(593.6 124.82)">
    <path d="m2.3125-16.547h2.6562v12.406l-0.046875 0.34375h0.078125l8.8906-12.75h2.9844v16.547h-2.6562v-12.406l0.03125-0.32812h-0.0625l-8.8906 12.734h-2.9844z"/>
   </g>
   <g transform="translate(612.79 124.82)">
    <path d="m9.5938 0.32812c-1.168 0-2.2578-0.21484-3.2656-0.64062-1-0.42578-1.8711-1.0195-2.6094-1.7812-0.74219-0.75781-1.3242-1.6719-1.75-2.7344-0.42969-1.0625-0.64062-2.207-0.64062-3.4375 0-1.2383 0.21094-2.3828 0.64062-3.4375 0.42578-1.0625 1.0078-1.9727 1.75-2.7344 0.73828-0.75781 1.6094-1.3516 2.6094-1.7812 1.0078-0.4375 2.0977-0.65625 3.2656-0.65625 0.8125 0 1.5508 0.08594 2.2188 0.25 0.67578 0.16797 1.2812 0.39062 1.8125 0.67188 0.53125 0.27344 0.99219 0.58594 1.3906 0.9375 0.39453 0.35547 0.73828 0.71094 1.0312 1.0625 0.67578 0.85547 1.1719 1.8125 1.4844 2.875h-2.6406c-0.27344-0.61328-0.63672-1.1641-1.0938-1.6562-0.39844-0.41406-0.9375-0.79688-1.625-1.1406s-1.5469-0.51562-2.5781-0.51562c-0.79297 0-1.5312 0.15234-2.2188 0.45312-0.6875 0.29297-1.2891 0.71094-1.7969 1.25-0.5 0.54297-0.89844 1.1875-1.1875 1.9375-0.28125 0.75-0.42188 1.5781-0.42188 2.4844 0 0.92969 0.14844 1.7656 0.45312 2.5156 0.3125 0.75 0.72266 1.3906 1.2344 1.9219 0.50781 0.52344 1.1016 0.93359 1.7812 1.2344 0.6875 0.29297 1.4062 0.4375 2.1562 0.4375 1.082 0 1.9688-0.1875 2.6562-0.5625 0.69531-0.375 1.2539-0.78906 1.6719-1.25 0.48828-0.53125 0.86328-1.1328 1.125-1.8125h2.6562c-0.3125 1.168-0.82422 2.1875-1.5312 3.0625-0.30469 0.375-0.65625 0.74609-1.0625 1.1094-0.39844 0.36719-0.86719 0.69531-1.4062 0.98438-0.53125 0.28125-1.1406 0.51172-1.8281 0.6875s-1.4492 0.26562-2.2812 0.26562z"/>
   </g>
   <g transform="translate(631.48 124.82)">
    <path d="m5.9531-14.062h-5.7812v-2.4844h14.219v2.4844h-5.7969v14.062h-2.6406z"/>
   </g>
   <g transform="translate(646.03 124.82)">
    <path d="m2.3125-16.547h2.6562v12.406l-0.046875 0.34375h0.078125l8.8906-12.75h2.9844v16.547h-2.6562v-12.406l0.03125-0.32812h-0.0625l-8.8906 12.734h-2.9844z"/>
   </g>
   <g transform="translate(665.21 124.82)">
    <path d="m2.3125-16.547h2.6562v6.625h3.2969l5.2969-6.625h3.1406l-6.125 7.7812 6.625 8.7656h-3.3125l-5.625-7.4375h-3.2969v7.4375h-2.6562z"/>
   </g>
   <g transform="translate(682.58 124.82)">
    <path d="m2.3125-16.547h2.6562v12.406l-0.046875 0.34375h0.078125l8.8906-12.75h2.9844v16.547h-2.6562v-12.406l0.03125-0.32812h-0.0625l-8.8906 12.734h-2.9844z"/>
   </g>
  </g>
 </g>
 <g fill="#de3030" stroke-width=".32003">
  <path d="m43.04 0.47379h-22.045c-0.09001 0-0.16252 0.073757-0.16252 0.16502v5.9931c0 0.090009 0.07251 0.16377 0.16252 0.16377h7.467c0.09001 0 0.16376 0.073757 0.16376 0.16377v18.642c0 0.09126 0.07251 0.16502 0.16377 0.16502h6.4544c0.09001 0 0.16377-0.07376 0.16377-0.16502v-18.642c0-0.090009 0.07376-0.16377 0.16377-0.16377h7.4682c0.09001 0 0.16377-0.073757 0.16377-0.16377v-5.9931c0-0.091259-0.07376-0.16502-0.16377-0.16502z"/>
  <path d="m81.989 0.47379h-6.8782c-0.07626 0-0.14251 0.052505-0.16002 0.12626l-6.0481 24.962c-0.02499 0.10376 0.05251 0.20377 0.15877 0.20377h6.8794c0.07501 0 0.14126-0.05251 0.15876-0.12626l6.0481-24.962c0.02499-0.10376-0.0525-0.20377-0.15876-0.20377z"/>
  <path d="m92.152 25.562-2.9853-12.315c-0.0175-0.07376-0.08251-0.12501-0.15877-0.12501h-6.8769c-0.10626 0-0.18377 0.09876-0.15876 0.20252l2.984 12.315c0.01875 0.07376 0.08375 0.12626 0.15876 0.12626h6.8782c0.10501 0 0.18377-0.10001 0.15876-0.20377z"/>
 </g>
 <g transform="matrix(.32003 0 0 .32003 -.31281 -16.699)" clip-path="url(#88a5eed1d6)">
  <path d="m193.5 109.34c-4.2656 4.2812-10.055 6.6836-16.09 6.6836-6.0391 0-11.828-2.4024-16.094-6.6797-4.2695-4.2812-6.668-10.082-6.6719-16.133-4e-3 -3 0.58203-5.9727 1.7266-8.7422 1.1406-2.7734 2.8164-5.293 4.9336-7.4141 2.1133-2.1211 4.625-3.8047 7.3867-4.9531 2.7617-1.1484 5.7266-1.7383 8.7188-1.7383 2.9883 0 5.9531 0.58984 8.7148 1.7383 2.7617 1.1484 5.2734 2.832 7.3867 4.9531 2.1133 2.125 3.7891 4.6406 4.9336 7.4141 1.1406 2.7734 1.7266 5.7422 1.7188 8.7422 0 6.0508-2.3945 11.852-6.6641 16.129zm12.848-45.141c-7.6758-7.6953-18.086-12.02-28.938-12.02-5.375 0-10.699 1.0586-15.664 3.1211-4.9688 2.0625-9.4805 5.0859-13.281 8.8945-3.8008 3.8086-6.8164 8.332-8.875 13.312-2.0547 4.9766-3.1133 10.312-3.1133 15.703 8e-3 10.875 4.3242 21.305 12 28.992 7.6758 7.6875 18.082 12.004 28.934 12 10.848 0 21.25-4.3164 28.926-12.004s11.992-18.113 12-28.988c0-10.883-4.3125-21.32-11.988-29.012z" fill="#de3030"/>
 </g>
 <g transform="matrix(.32003 0 0 .32003 -.31281 -16.699)" fill="#fff">
  <g transform="translate(310 87.418)">
   <path d="m6.6094-23.156h9.1094l5.9531 23.156h-2.9844l-1.8125-6.7812h-11.422l-1.8125 6.7812h-2.9844zm9.5938 13.562-2.8125-10.75h-4.4531l-2.8125 10.75z"/>
  </g>
  <g transform="translate(332.33 87.418)">
   <path d="m2.3125-16.547h8.1094c1.582 0 2.8008 0.40234 3.6562 1.2031 0.86328 0.79297 1.2969 1.7734 1.2969 2.9375 0 0.75-0.11719 1.3594-0.34375 1.8281-0.23047 0.46094-0.49609 0.82422-0.79688 1.0938-0.29297 0.26172-0.57422 0.44531-0.84375 0.54688-0.26172 0.09375-0.42188 0.14062-0.48438 0.14062v0.03125c0.03906 0 0.22266 0.054687 0.54688 0.15625 0.33203 0.09375 0.69141 0.28906 1.0781 0.57812 0.38281 0.28125 0.73438 0.68359 1.0469 1.2031 0.3125 0.52344 0.46875 1.1992 0.46875 2.0312 0 1.418-0.48047 2.5742-1.4375 3.4688-0.96094 0.88672-2.3438 1.3281-4.1562 1.3281h-8.1406zm8.1094 14.062c0.98828 0 1.7266-0.22266 2.2188-0.67188 0.5-0.45703 0.75-1.0625 0.75-1.8125s-0.25-1.3477-0.75-1.7969c-0.49219-0.44531-1.2305-0.67188-2.2188-0.67188h-5.4531v4.9531zm-0.17188-7.2812c0.84375 0 1.4688-0.19141 1.875-0.57812 0.40625-0.38281 0.60938-0.90625 0.60938-1.5625 0-0.66406-0.20312-1.1914-0.60938-1.5781-0.40625-0.38281-1.0312-0.57812-1.875-0.57812h-5.2812v4.2969z"/>
  </g>
  <g transform="translate(349.69 87.418)">
   <path d="m5.9531-14.062h-5.7812v-2.4844h14.219v2.4844h-5.7969v14.062h-2.6406z"/>
  </g>
  <g transform="translate(364.25 87.418)">
   <path d="m9.9219 0.32812c-1.2305 0-2.375-0.21484-3.4375-0.64062s-1.9766-1.0195-2.7344-1.7812c-0.76172-0.75781-1.3555-1.6719-1.7812-2.7344-0.42969-1.0625-0.64062-2.207-0.64062-3.4375 0-1.2383 0.21094-2.3828 0.64062-3.4375 0.42578-1.0625 1.0195-1.9727 1.7812-2.7344 0.75781-0.75781 1.6719-1.3516 2.7344-1.7812 1.0625-0.4375 2.207-0.65625 3.4375-0.65625 1.2383 0 2.3828 0.21875 3.4375 0.65625 1.0625 0.42969 1.9727 1.0234 2.7344 1.7812 0.75781 0.76172 1.3516 1.6719 1.7812 2.7344 0.4375 1.0547 0.65625 2.1992 0.65625 3.4375 0 1.2305-0.21875 2.375-0.65625 3.4375-0.42969 1.0625-1.0234 1.9766-1.7812 2.7344-0.76172 0.76172-1.6719 1.3555-2.7344 1.7812-1.0547 0.42578-2.1992 0.64062-3.4375 0.64062zm0-2.4844c0.86328 0 1.6562-0.14453 2.375-0.4375 0.72656-0.30078 1.3594-0.71875 1.8906-1.25 0.53125-0.53906 0.94141-1.1875 1.2344-1.9375 0.30078-0.75 0.45312-1.5781 0.45312-2.4844s-0.15234-1.7344-0.45312-2.4844c-0.29297-0.75-0.70312-1.3945-1.2344-1.9375-0.53125-0.53906-1.1641-0.95703-1.8906-1.25-0.71875-0.30078-1.5117-0.45312-2.375-0.45312-0.85547 0-1.6484 0.15234-2.375 0.45312-0.73047 0.29297-1.3594 0.71094-1.8906 1.25-0.53125 0.54297-0.94922 1.1875-1.25 1.9375-0.29297 0.75-0.4375 1.5781-0.4375 2.4844s0.14453 1.7344 0.4375 2.4844c0.30078 0.75 0.71875 1.3984 1.25 1.9375 0.53125 0.53125 1.1602 0.94922 1.8906 1.25 0.72656 0.29297 1.5195 0.4375 2.375 0.4375z"/>
  </g>
  <g transform="translate(384.09 87.418)">
   <path d="m2.3125-16.547h3.9688l4.9688 10.266h0.82812l4.9531-10.266h3.9688v16.547h-2.6406v-13.234l0.03125-0.32812h-0.0625l-4.9375 10.25h-3.4688l-4.9219-10.25h-0.078125l0.046875 0.32812v13.234h-2.6562z"/>
  </g>
  <g transform="translate(407.41 87.418)">
   <path d="m9.2656 0.32812c-1.0859 0-2.1055-0.21484-3.0625-0.64062-0.96094-0.42578-1.8047-1.0195-2.5312-1.7812-0.73047-0.75781-1.3047-1.6719-1.7188-2.7344-0.41797-1.0625-0.625-2.207-0.625-3.4375 0-1.2383 0.20703-2.3828 0.625-3.4375 0.41406-1.0625 0.98828-1.9727 1.7188-2.7344 0.72656-0.75781 1.5703-1.3516 2.5312-1.7812 0.95703-0.4375 1.9766-0.65625 3.0625-0.65625 1.0703 0 1.9844 0.15625 2.7344 0.46875s1.3594 0.65625 1.8281 1.0312c0.47656 0.375 0.82031 0.72656 1.0312 1.0469 0.21875 0.3125 0.32812 0.46875 0.32812 0.46875h0.03125v-2.6875h2.6406v16.547h-2.6406v-2.6406h-0.03125s-0.10938 0.16406-0.32812 0.48438c-0.21094 0.3125-0.55469 0.65234-1.0312 1.0156-0.46875 0.36719-1.0781 0.70312-1.8281 1.0156-0.75 0.30078-1.6641 0.45312-2.7344 0.45312zm0.32812-2.4844c0.78906 0 1.5234-0.14453 2.2031-0.4375 0.6875-0.30078 1.2852-0.71875 1.7969-1.25 0.50781-0.53906 0.90625-1.1875 1.1875-1.9375 0.28906-0.75 0.4375-1.5781 0.4375-2.4844s-0.14844-1.7344-0.4375-2.4844c-0.28125-0.75-0.67969-1.3945-1.1875-1.9375-0.51172-0.53906-1.1094-0.95703-1.7969-1.25-0.67969-0.30078-1.4141-0.45312-2.2031-0.45312-0.79297 0-1.5312 0.15234-2.2188 0.45312-0.6875 0.29297-1.2891 0.71094-1.7969 1.25-0.5 0.54297-0.89844 1.1875-1.1875 1.9375-0.28125 0.75-0.42188 1.5781-0.42188 2.4844s0.14062 1.7344 0.42188 2.4844c0.28906 0.75 0.6875 1.3984 1.1875 1.9375 0.50781 0.53125 1.1094 0.94922 1.7969 1.25 0.6875 0.29297 1.4258 0.4375 2.2188 0.4375z"/>
  </g>
  <g transform="translate(427.59 87.418)">
   <path d="m5.9531-14.062h-5.7812v-2.4844h14.219v2.4844h-5.7969v14.062h-2.6406z"/>
  </g>
  <g transform="translate(442.14 87.418)">
   <path d="m2.3125-16.547h2.6562v12.406l-0.046875 0.34375h0.078125l8.8906-12.75h2.9844v16.547h-2.6562v-12.406l0.03125-0.32812h-0.0625l-8.8906 12.734h-2.9844z"/>
  </g>
  <g transform="translate(461.32 87.418)">
   <path d="m7.9375 0.32812c-0.83594 0-1.5742-0.078125-2.2188-0.23438-0.63672-0.14453-1.2031-0.34375-1.7031-0.59375-0.49219-0.25781-0.91797-0.55469-1.2812-0.89062-0.36719-0.33203-0.67188-0.66016-0.92188-0.98438-0.57422-0.80078-0.96094-1.7188-1.1562-2.75h2.6562c0.125 0.57422 0.375 1.0703 0.75 1.4844 0.3125 0.375 0.76953 0.71875 1.375 1.0312 0.60156 0.30469 1.4375 0.45312 2.5 0.45312 1.4141 0 2.457-0.26953 3.125-0.8125 0.67578-0.55078 1.0156-1.1602 1.0156-1.8281 0-0.65625-0.3125-1.2344-0.9375-1.7344-0.61719-0.5-1.625-0.75-3.0312-0.75h-1.9844v-2.4844h1.9844c1.3203 0 2.2578-0.21875 2.8125-0.65625 0.55078-0.4375 0.82812-0.98828 0.82812-1.6562 0-0.57031-0.30859-1.0977-0.92188-1.5781-0.60547-0.48828-1.5703-0.73438-2.8906-0.73438-0.88672 0-1.5938 0.13672-2.125 0.40625-0.52344 0.26172-0.9375 0.54688-1.25 0.85938-0.35547 0.375-0.60938 0.78125-0.76562 1.2188h-2.6406c0.19531-0.92578 0.58203-1.7539 1.1562-2.4844 0.23828-0.3125 0.52344-0.61328 0.85938-0.90625 0.33203-0.30078 0.72656-0.56641 1.1875-0.79688 0.46875-0.22656 0.99219-0.41406 1.5781-0.5625 0.58203-0.14453 1.25-0.21875 2-0.21875 1.082 0 2.0234 0.13281 2.8281 0.39062 0.80078 0.25 1.4727 0.58594 2.0156 1 0.53906 0.41797 0.94141 0.90625 1.2031 1.4688 0.26953 0.5625 0.40625 1.1562 0.40625 1.7812 0 0.69922-0.13672 1.2812-0.40625 1.75-0.26172 0.46094-0.5625 0.82812-0.90625 1.1094-0.34375 0.27344-0.66797 0.46484-0.96875 0.57812-0.29297 0.10547-0.46875 0.17188-0.53125 0.20312v0.03125c0.03906 0 0.22656 0.058594 0.5625 0.17188 0.33203 0.10547 0.69141 0.30859 1.0781 0.60938 0.38281 0.29297 0.72656 0.69531 1.0312 1.2031 0.3125 0.5 0.46875 1.1523 0.46875 1.9531 0 0.65625-0.14844 1.2812-0.4375 1.875-0.28125 0.59375-0.71094 1.125-1.2812 1.5938-0.57422 0.46094-1.2812 0.82422-2.125 1.0938-0.83594 0.25781-1.8125 0.39062-2.9375 0.39062z"/>
  </g>
  <g transform="translate(477.36 87.418)">
   <path d="m9.2656 0.32812c-1.0859 0-2.1055-0.21484-3.0625-0.64062-0.96094-0.42578-1.8047-1.0195-2.5312-1.7812-0.73047-0.75781-1.3047-1.6719-1.7188-2.7344-0.41797-1.0625-0.625-2.207-0.625-3.4375 0-1.2383 0.20703-2.3828 0.625-3.4375 0.41406-1.0625 0.98828-1.9727 1.7188-2.7344 0.72656-0.75781 1.5703-1.3516 2.5312-1.7812 0.95703-0.4375 1.9766-0.65625 3.0625-0.65625 1.0703 0 1.9844 0.15625 2.7344 0.46875s1.3594 0.65625 1.8281 1.0312c0.47656 0.375 0.82031 0.72656 1.0312 1.0469 0.21875 0.3125 0.32812 0.46875 0.32812 0.46875h0.03125v-2.6875h2.6406v16.547h-2.6406v-2.6406h-0.03125s-0.10938 0.16406-0.32812 0.48438c-0.21094 0.3125-0.55469 0.65234-1.0312 1.0156-0.46875 0.36719-1.0781 0.70312-1.8281 1.0156-0.75 0.30078-1.6641 0.45312-2.7344 0.45312zm0.32812-2.4844c0.78906 0 1.5234-0.14453 2.2031-0.4375 0.6875-0.30078 1.2852-0.71875 1.7969-1.25 0.50781-0.53906 0.90625-1.1875 1.1875-1.9375 0.28906-0.75 0.4375-1.5781 0.4375-2.4844s-0.14844-1.7344-0.4375-2.4844c-0.28125-0.75-0.67969-1.3945-1.1875-1.9375-0.51172-0.53906-1.1094-0.95703-1.7969-1.25-0.67969-0.30078-1.4141-0.45312-2.2031-0.45312-0.79297 0-1.5312 0.15234-2.2188 0.45312-0.6875 0.29297-1.2891 0.71094-1.7969 1.25-0.5 0.54297-0.89844 1.1875-1.1875 1.9375-0.28125 0.75-0.42188 1.5781-0.42188 2.4844s0.14062 1.7344 0.42188 2.4844c0.28906 0.75 0.6875 1.3984 1.1875 1.9375 0.50781 0.53125 1.1094 0.94922 1.7969 1.25 0.6875 0.29297 1.4258 0.4375 2.2188 0.4375z"/>
  </g>
  <g transform="translate(497.54 87.418)">
   <path d="m15.875 0h-13.562v-16.547h2.6562v14.062h8.5938v-14.062h2.6406v14.062h2.3281v6.2812h-2.6562z"/>
  </g>
  <g transform="translate(516.56 87.418)">
   <path d="m2.3125-16.547h2.6562v12.406l-0.046875 0.34375h0.078125l8.8906-12.75h2.9844v16.547h-2.6562v-12.406l0.03125-0.32812h-0.0625l-8.8906 12.734h-2.9844z"/>
  </g>
  <g transform="translate(535.74 87.418)">
   <path d="m4.9688-5.9531c-0.625-0.25781-1.1797-0.61328-1.6562-1.0625-0.42969-0.375-0.8125-0.875-1.1562-1.5-0.33594-0.625-0.5-1.4258-0.5-2.4062 0-0.78906 0.14453-1.5234 0.4375-2.2031 0.30078-0.6875 0.73438-1.2812 1.2969-1.7812 0.5625-0.50781 1.2344-0.91016 2.0156-1.2031 0.78125-0.28906 1.6719-0.4375 2.6719-0.4375h7.4688v16.547h-2.6406v-5.2969h-5.2969l-2.9062 5.2969h-3.0469zm7.9375-1.8125v-6.2969h-4.7969c-1.2617 0-2.2148 0.29297-2.8594 0.875-0.63672 0.58594-0.95312 1.3398-0.95312 2.2656 0 0.92969 0.31641 1.6875 0.95312 2.2812 0.64453 0.58594 1.5977 0.875 2.8594 0.875z"/>
  </g>
  <g transform="translate(562.87 87.418)">
   <path d="m5.9531-14.062h-5.7812v-2.4844h14.219v2.4844h-5.7969v14.062h-2.6406z"/>
  </g>
  <g transform="translate(577.42 87.418)">
   <path d="m9.9219 0.32812c-1.2305 0-2.375-0.21484-3.4375-0.64062s-1.9766-1.0195-2.7344-1.7812c-0.76172-0.75781-1.3555-1.6719-1.7812-2.7344-0.42969-1.0625-0.64062-2.207-0.64062-3.4375 0-1.2383 0.21094-2.3828 0.64062-3.4375 0.42578-1.0625 1.0195-1.9727 1.7812-2.7344 0.75781-0.75781 1.6719-1.3516 2.7344-1.7812 1.0625-0.4375 2.207-0.65625 3.4375-0.65625 1.2383 0 2.3828 0.21875 3.4375 0.65625 1.0625 0.42969 1.9727 1.0234 2.7344 1.7812 0.75781 0.76172 1.3516 1.6719 1.7812 2.7344 0.4375 1.0547 0.65625 2.1992 0.65625 3.4375 0 1.2305-0.21875 2.375-0.65625 3.4375-0.42969 1.0625-1.0234 1.9766-1.7812 2.7344-0.76172 0.76172-1.6719 1.3555-2.7344 1.7812-1.0547 0.42578-2.1992 0.64062-3.4375 0.64062zm0-2.4844c0.86328 0 1.6562-0.14453 2.375-0.4375 0.72656-0.30078 1.3594-0.71875 1.8906-1.25 0.53125-0.53906 0.94141-1.1875 1.2344-1.9375 0.30078-0.75 0.45312-1.5781 0.45312-2.4844s-0.15234-1.7344-0.45312-2.4844c-0.29297-0.75-0.70312-1.3945-1.2344-1.9375-0.53125-0.53906-1.1641-0.95703-1.8906-1.25-0.71875-0.30078-1.5117-0.45312-2.375-0.45312-0.85547 0-1.6484 0.15234-2.375 0.45312-0.73047 0.29297-1.3594 0.71094-1.8906 1.25-0.53125 0.54297-0.94922 1.1875-1.25 1.9375-0.29297 0.75-0.4375 1.5781-0.4375 2.4844s0.14453 1.7344 0.4375 2.4844c0.30078 0.75 0.71875 1.3984 1.25 1.9375 0.53125 0.53125 1.1602 0.94922 1.8906 1.25 0.72656 0.29297 1.5195 0.4375 2.375 0.4375z"/>
  </g>
  <g transform="translate(597.26 87.418)">
   <path d="m2.3125-16.547h2.6562v2.6562h0.03125s0.10156-0.16016 0.3125-0.48438c0.20703-0.32031 0.54688-0.66016 1.0156-1.0156 0.47656-0.36328 1.0938-0.70312 1.8438-1.0156s1.6641-0.46875 2.75-0.46875c1.0703 0 2.0859 0.21875 3.0469 0.65625 0.96875 0.42969 1.8125 1.0234 2.5312 1.7812 0.72656 0.76172 1.3008 1.6719 1.7188 2.7344 0.42578 1.0547 0.64062 2.1992 0.64062 3.4375 0 1.2305-0.21484 2.375-0.64062 3.4375-0.41797 1.0625-0.99219 1.9766-1.7188 2.7344-0.71875 0.76172-1.5625 1.3555-2.5312 1.7812-0.96094 0.42578-1.9766 0.64062-3.0469 0.64062-1.0859 0-2-0.15234-2.75-0.45312-0.75-0.3125-1.3672-0.64844-1.8438-1.0156-0.46875-0.36328-0.80859-0.70312-1.0156-1.0156-0.21094-0.32031-0.3125-0.48438-0.3125-0.48438h-0.03125v8.9219h-2.6562zm8.2656 14.391c0.80078 0 1.5391-0.14453 2.2188-0.4375 0.6875-0.30078 1.2812-0.71875 1.7812-1.25 0.50781-0.53906 0.90625-1.1875 1.1875-1.9375 0.28906-0.75 0.4375-1.5781 0.4375-2.4844s-0.14844-1.7344-0.4375-2.4844c-0.28125-0.75-0.67969-1.3945-1.1875-1.9375-0.5-0.53906-1.0938-0.95703-1.7812-1.25-0.67969-0.30078-1.418-0.45312-2.2188-0.45312-0.79297 0-1.5312 0.15234-2.2188 0.45312-0.67969 0.29297-1.2734 0.71094-1.7812 1.25-0.5 0.54297-0.89844 1.1875-1.1875 1.9375-0.28125 0.75-0.42188 1.5781-0.42188 2.4844s0.14062 1.7344 0.42188 2.4844c0.28906 0.75 0.6875 1.3984 1.1875 1.9375 0.50781 0.53125 1.1016 0.94922 1.7812 1.25 0.6875 0.29297 1.4258 0.4375 2.2188 0.4375z"/>
  </g>
  <g transform="translate(309.98 124.82)">
   <path d="m9.5938 0.32812c-1.168 0-2.2578-0.21484-3.2656-0.64062-1-0.42578-1.8711-1.0195-2.6094-1.7812-0.74219-0.75781-1.3242-1.6719-1.75-2.7344-0.42969-1.0625-0.64062-2.207-0.64062-3.4375 0-1.2383 0.21094-2.3828 0.64062-3.4375 0.42578-1.0625 1.0078-1.9727 1.75-2.7344 0.73828-0.75781 1.6094-1.3516 2.6094-1.7812 1.0078-0.4375 2.0977-0.65625 3.2656-0.65625 0.8125 0 1.5508 0.08594 2.2188 0.25 0.67578 0.16797 1.2812 0.39062 1.8125 0.67188 0.53125 0.27344 0.99219 0.58594 1.3906 0.9375 0.39453 0.35547 0.73828 0.71094 1.0312 1.0625 0.67578 0.85547 1.1719 1.8125 1.4844 2.875h-2.6406c-0.27344-0.61328-0.63672-1.1641-1.0938-1.6562-0.39844-0.41406-0.9375-0.79688-1.625-1.1406s-1.5469-0.51562-2.5781-0.51562c-0.79297 0-1.5312 0.15234-2.2188 0.45312-0.6875 0.29297-1.2891 0.71094-1.7969 1.25-0.5 0.54297-0.89844 1.1875-1.1875 1.9375-0.28125 0.75-0.42188 1.5781-0.42188 2.4844 0 0.92969 0.14844 1.7656 0.45312 2.5156 0.3125 0.75 0.72266 1.3906 1.2344 1.9219 0.50781 0.52344 1.1016 0.93359 1.7812 1.2344 0.6875 0.29297 1.4062 0.4375 2.1562 0.4375 1.082 0 1.9688-0.1875 2.6562-0.5625 0.69531-0.375 1.2539-0.78906 1.6719-1.25 0.48828-0.53125 0.86328-1.1328 1.125-1.8125h2.6562c-0.3125 1.168-0.82422 2.1875-1.5312 3.0625-0.30469 0.375-0.65625 0.74609-1.0625 1.1094-0.39844 0.36719-0.86719 0.69531-1.4062 0.98438-0.53125 0.28125-1.1406 0.51172-1.8281 0.6875s-1.4492 0.26562-2.2812 0.26562z"/>
  </g>
  <g transform="translate(328.67 124.82)">
   <path d="m9.7656 0.17188c-1.2422-0.09375-2.3906-0.36719-3.4531-0.82812-1.0547-0.46875-1.9609-1.082-2.7188-1.8438-0.76172-0.75781-1.3594-1.6289-1.7969-2.6094-0.42969-0.97656-0.64062-2.0312-0.64062-3.1562s0.21094-2.1758 0.64062-3.1562c0.4375-0.98828 1.0352-1.8633 1.7969-2.625 0.75781-0.75781 1.6641-1.3672 2.7188-1.8281 1.0625-0.46875 2.2109-0.74219 3.4531-0.82812v-6.4531h2.6406v6.4531c1.2266 0.08594 2.375 0.35938 3.4375 0.82812 1.0625 0.46094 1.9727 1.0703 2.7344 1.8281 0.75781 0.76172 1.3516 1.6367 1.7812 2.625 0.42578 0.98047 0.64062 2.0312 0.64062 3.1562s-0.21484 2.1797-0.64062 3.1562c-0.42969 0.98047-1.0234 1.8516-1.7812 2.6094-0.76172 0.76172-1.6719 1.375-2.7344 1.8438-1.0625 0.46094-2.2109 0.73438-3.4375 0.82812v6.1094h-2.6406zm0-14.391c-0.86719 0.042969-1.6641 0.21875-2.3906 0.53125-0.73047 0.30469-1.3594 0.71875-1.8906 1.25-0.52344 0.53125-0.93359 1.1562-1.2344 1.875-0.30469 0.71094-0.45312 1.4766-0.45312 2.2969 0 0.83594 0.14844 1.6055 0.45312 2.3125 0.30078 0.71094 0.71094 1.3281 1.2344 1.8594 0.53125 0.52344 1.1602 0.9375 1.8906 1.25 0.72656 0.3125 1.5234 0.49219 2.3906 0.53125zm2.6406 11.906c0.85156-0.039062 1.6445-0.21875 2.375-0.53125 0.72656-0.3125 1.3594-0.72656 1.8906-1.25 0.53125-0.53125 0.94141-1.1484 1.2344-1.8594 0.30078-0.70703 0.45312-1.4766 0.45312-2.3125 0-0.82031-0.15234-1.5859-0.45312-2.2969-0.29297-0.71875-0.70312-1.3438-1.2344-1.875s-1.1641-0.94531-1.8906-1.25c-0.73047-0.3125-1.5234-0.48828-2.375-0.53125z"/>
  </g>
  <g transform="translate(350.83 124.82)">
   <path d="m9.7656 0.32812c-1.1992 0-2.3203-0.21484-3.3594-0.64062-1.0312-0.42578-1.9219-1.0195-2.6719-1.7812-0.75-0.75781-1.3398-1.6719-1.7656-2.7344-0.42969-1.0625-0.64062-2.207-0.64062-3.4375 0-1.2383 0.21094-2.3828 0.64062-3.4375 0.42578-1.0625 1.0156-1.9727 1.7656-2.7344 0.75-0.75781 1.6406-1.3516 2.6719-1.7812 1.0391-0.4375 2.1602-0.65625 3.3594-0.65625 1.1875 0 2.2969 0.21875 3.3281 0.65625 1.0391 0.42969 1.9375 1.0156 2.6875 1.7656s1.3359 1.6484 1.7656 2.6875c0.42578 1.0312 0.64062 2.1406 0.64062 3.3281v1h-14.219c0.09375 0.77344 0.30078 1.4844 0.625 2.1406 0.33203 0.64844 0.75 1.2031 1.25 1.6719 0.50781 0.46094 1.1016 0.82031 1.7812 1.0781 0.67578 0.26172 1.3906 0.39062 2.1406 0.39062 0.98828 0 1.8203-0.14844 2.5-0.45312 0.6875-0.3125 1.25-0.65625 1.6875-1.0312 0.50781-0.41406 0.92969-0.91016 1.2656-1.4844h2.6406c-0.39844 1.0312-0.96094 1.9492-1.6875 2.75-0.63672 0.67969-1.4766 1.2969-2.5156 1.8594-1.0312 0.5625-2.3281 0.84375-3.8906 0.84375zm5.6094-10.094c-0.085938-0.61328-0.27734-1.2031-0.57812-1.7656-0.29297-0.5625-0.68359-1.0508-1.1719-1.4688-0.48047-0.41406-1.0469-0.75-1.7031-1-0.64844-0.25781-1.3672-0.39062-2.1562-0.39062-0.80469 0-1.5312 0.13281-2.1875 0.39062-0.64844 0.25-1.2188 0.58594-1.7188 1-0.49219 0.41797-0.89062 0.90625-1.2031 1.4688-0.30469 0.5625-0.51172 1.1523-0.625 1.7656z"/>
  </g>
  <g transform="translate(370.34 124.82)">
   <path d="m2.3125-16.547h2.6562v2.6562h0.03125s0.10156-0.16016 0.3125-0.48438c0.20703-0.32031 0.54688-0.66016 1.0156-1.0156 0.47656-0.36328 1.0938-0.70312 1.8438-1.0156s1.6641-0.46875 2.75-0.46875c1.0703 0 2.0859 0.21875 3.0469 0.65625 0.96875 0.42969 1.8125 1.0234 2.5312 1.7812 0.72656 0.76172 1.3008 1.6719 1.7188 2.7344 0.42578 1.0547 0.64062 2.1992 0.64062 3.4375 0 1.2305-0.21484 2.375-0.64062 3.4375-0.41797 1.0625-0.99219 1.9766-1.7188 2.7344-0.71875 0.76172-1.5625 1.3555-2.5312 1.7812-0.96094 0.42578-1.9766 0.64062-3.0469 0.64062-1.0859 0-2-0.15234-2.75-0.45312-0.75-0.3125-1.3672-0.64844-1.8438-1.0156-0.46875-0.36328-0.80859-0.70312-1.0156-1.0156-0.21094-0.32031-0.3125-0.48438-0.3125-0.48438h-0.03125v8.9219h-2.6562zm8.2656 14.391c0.80078 0 1.5391-0.14453 2.2188-0.4375 0.6875-0.30078 1.2812-0.71875 1.7812-1.25 0.50781-0.53906 0.90625-1.1875 1.1875-1.9375 0.28906-0.75 0.4375-1.5781 0.4375-2.4844s-0.14844-1.7344-0.4375-2.4844c-0.28125-0.75-0.67969-1.3945-1.1875-1.9375-0.5-0.53906-1.0938-0.95703-1.7812-1.25-0.67969-0.30078-1.418-0.45312-2.2188-0.45312-0.79297 0-1.5312 0.15234-2.2188 0.45312-0.67969 0.29297-1.2734 0.71094-1.7812 1.25-0.5 0.54297-0.89844 1.1875-1.1875 1.9375-0.28125 0.75-0.42188 1.5781-0.42188 2.4844s0.14062 1.7344 0.42188 2.4844c0.28906 0.75 0.6875 1.3984 1.1875 1.9375 0.50781 0.53125 1.1016 0.94922 1.7812 1.25 0.6875 0.29297 1.4258 0.4375 2.2188 0.4375z"/>
  </g>
  <g transform="translate(390.52 124.82)">
   <path d="m2.3125-16.547h2.6562v5.625h3.9688c0.94531 0 1.8047 0.14844 2.5781 0.4375 0.76953 0.28125 1.4297 0.67188 1.9844 1.1719 0.55078 0.5 0.97266 1.0859 1.2656 1.75 0.30078 0.65625 0.45312 1.3594 0.45312 2.1094s-0.15234 1.4609-0.45312 2.125c-0.29297 0.65625-0.71484 1.2344-1.2656 1.7344-0.55469 0.49219-1.2148 0.88281-1.9844 1.1719-0.77344 0.28125-1.6328 0.42188-2.5781 0.42188h-6.625zm6.625 14.062c1.1641 0 2.0625-0.28516 2.6875-0.85938 0.625-0.57031 0.9375-1.2734 0.9375-2.1094 0-0.84375-0.3125-1.5508-0.9375-2.125-0.625-0.57031-1.5234-0.85938-2.6875-0.85938h-3.9688v5.9531zm8.4219-14.062h2.6562v16.547h-2.6562z"/>
  </g>
  <g transform="translate(422.1 124.82)">
   <path d="m8.9375 0h-3.8125l-4.4688-16.547h2.8125l3.6406 14.062h2.4844l4.2969-14.062h2.8125l-6.9375 22.828h-2.8125z"/>
  </g>
  <g transform="translate(438.81 124.82)">
   <path d="m9.5938 0.32812c-1.168 0-2.2578-0.21484-3.2656-0.64062-1-0.42578-1.8711-1.0195-2.6094-1.7812-0.74219-0.75781-1.3242-1.6719-1.75-2.7344-0.42969-1.0625-0.64062-2.207-0.64062-3.4375 0-1.2383 0.21094-2.3828 0.64062-3.4375 0.42578-1.0625 1.0078-1.9727 1.75-2.7344 0.73828-0.75781 1.6094-1.3516 2.6094-1.7812 1.0078-0.4375 2.0977-0.65625 3.2656-0.65625 0.8125 0 1.5508 0.08594 2.2188 0.25 0.67578 0.16797 1.2812 0.39062 1.8125 0.67188 0.53125 0.27344 0.99219 0.58594 1.3906 0.9375 0.39453 0.35547 0.73828 0.71094 1.0312 1.0625 0.67578 0.85547 1.1719 1.8125 1.4844 2.875h-2.6406c-0.27344-0.61328-0.63672-1.1641-1.0938-1.6562-0.39844-0.41406-0.9375-0.79688-1.625-1.1406s-1.5469-0.51562-2.5781-0.51562c-0.79297 0-1.5312 0.15234-2.2188 0.45312-0.6875 0.29297-1.2891 0.71094-1.7969 1.25-0.5 0.54297-0.89844 1.1875-1.1875 1.9375-0.28125 0.75-0.42188 1.5781-0.42188 2.4844 0 0.92969 0.14844 1.7656 0.45312 2.5156 0.3125 0.75 0.72266 1.3906 1.2344 1.9219 0.50781 0.52344 1.1016 0.93359 1.7812 1.2344 0.6875 0.29297 1.4062 0.4375 2.1562 0.4375 1.082 0 1.9688-0.1875 2.6562-0.5625 0.69531-0.375 1.2539-0.78906 1.6719-1.25 0.48828-0.53125 0.86328-1.1328 1.125-1.8125h2.6562c-0.3125 1.168-0.82422 2.1875-1.5312 3.0625-0.30469 0.375-0.65625 0.74609-1.0625 1.1094-0.39844 0.36719-0.86719 0.69531-1.4062 0.98438-0.53125 0.28125-1.1406 0.51172-1.8281 0.6875s-1.4492 0.26562-2.2812 0.26562z"/>
  </g>
  <g transform="translate(457.5 124.82)">
   <path d="m4.9688-16.547h6.9375l4.6406 16.547h-2.8125l-3.8125-14.062h-2.9688l-3.8125 14.062h-2.8125z"/>
  </g>
  <g transform="translate(474.36 124.82)">
   <path d="m8.9375 0h-3.8125l-4.4688-16.547h2.8125l3.6406 14.062h2.4844l4.2969-14.062h2.8125l-6.9375 22.828h-2.8125z"/>
  </g>
  <g transform="translate(491.07 124.82)">
   <path d="m2.3125-16.547h11.422v2.4844h-8.7656v14.062h-2.6562z"/>
  </g>
  <g transform="translate(514.39 124.82)">
   <path d="m2.3125-16.547h2.6562v12.406l-0.046875 0.34375h0.078125l8.8906-12.75h2.9844v16.547h-2.6562v-12.406l0.03125-0.32812h-0.0625l-8.8906 12.734h-2.9844z"/>
  </g>
  <g transform="translate(542.83 124.82)">
   <path d="m4.9688-16.547h6.9375l4.6406 16.547h-2.8125l-3.8125-14.062h-2.9688l-3.8125 14.062h-2.8125z"/>
  </g>
  <g transform="translate(559.7 124.82)">
   <path d="m9.9219 0.32812c-1.2305 0-2.375-0.21484-3.4375-0.64062s-1.9766-1.0195-2.7344-1.7812c-0.76172-0.75781-1.3555-1.6719-1.7812-2.7344-0.42969-1.0625-0.64062-2.207-0.64062-3.4375 0-1.2383 0.21094-2.3828 0.64062-3.4375 0.42578-1.0625 1.0195-1.9727 1.7812-2.7344 0.75781-0.75781 1.6719-1.3516 2.7344-1.7812 1.0625-0.4375 2.207-0.65625 3.4375-0.65625 1.2383 0 2.3828 0.21875 3.4375 0.65625 1.0625 0.42969 1.9727 1.0234 2.7344 1.7812 0.75781 0.76172 1.3516 1.6719 1.7812 2.7344 0.4375 1.0547 0.65625 2.1992 0.65625 3.4375 0 1.2305-0.21875 2.375-0.65625 3.4375-0.42969 1.0625-1.0234 1.9766-1.7812 2.7344-0.76172 0.76172-1.6719 1.3555-2.7344 1.7812-1.0547 0.42578-2.1992 0.64062-3.4375 0.64062zm0-2.4844c0.86328 0 1.6562-0.14453 2.375-0.4375 0.72656-0.30078 1.3594-0.71875 1.8906-1.25 0.53125-0.53906 0.94141-1.1875 1.2344-1.9375 0.30078-0.75 0.45312-1.5781 0.45312-2.4844s-0.15234-1.7344-0.45312-2.4844c-0.29297-0.75-0.70312-1.3945-1.2344-1.9375-0.53125-0.53906-1.1641-0.95703-1.8906-1.25-0.71875-0.30078-1.5117-0.45312-2.375-0.45312-0.85547 0-1.6484 0.15234-2.375 0.45312-0.73047 0.29297-1.3594 0.71094-1.8906 1.25-0.53125 0.54297-0.94922 1.1875-1.25 1.9375-0.29297 0.75-0.4375 1.5781-0.4375 2.4844s0.14453 1.7344 0.4375 2.4844c0.30078 0.75 0.71875 1.3984 1.25 1.9375 0.53125 0.53125 1.1602 0.94922 1.8906 1.25 0.72656 0.29297 1.5195 0.4375 2.375 0.4375z"/>
  </g>
  <g transform="translate(579.55 124.82)">
   <path d="m2.3125-16.547h11.422v2.4844h-8.7656v14.062h-2.6562z"/>
  </g>
  <g transform="translate(593.6 124.82)">
   <path d="m2.3125-16.547h2.6562v12.406l-0.046875 0.34375h0.078125l8.8906-12.75h2.9844v16.547h-2.6562v-12.406l0.03125-0.32812h-0.0625l-8.8906 12.734h-2.9844z"/>
  </g>
 </g>
</svg>
