<svg width="551.89" height="295.03" preserveAspectRatio="xMidYMid" version="1.0" viewBox="0 0 413.92 221.28" xmlns="http://www.w3.org/2000/svg" zoomAndPan="magnify">
 <defs>
  <clipPath id="8ea3e6599e">
   <path d="m0.0078125 91h45.992v58h-45.992z"/>
  </clipPath>
  <clipPath id="ecf817df93">
   <path d="m194 32.332h119v118.67h-119z"/>
  </clipPath>
 </defs>
 <g>
  <g transform="translate(-.0078125 -32.332)" fill="#fff">
   <g transform="translate(.024174 208.43)">
    <path d="m6.8438-23.953h9.4062l6.1562 23.953h-3.0781l-1.875-7.0156h-11.812l-1.875 7.0156h-3.0781zm9.9219 14.031-2.9062-11.125h-4.625l-2.9062 11.125z"/>
   </g>
   <g transform="translate(23.114 208.43)">
    <path d="m2.3906-17.109h8.3906c1.6445 0 2.9102 0.41406 3.7969 1.2344 0.88281 0.82422 1.3281 1.8398 1.3281 3.0469 0 0.77344-0.12109 1.3984-0.35938 1.875-0.24219 0.48047-0.51562 0.85938-0.82812 1.1406-0.30469 0.27344-0.58984 0.46094-0.85938 0.5625-0.27344 0.09375-0.44531 0.14062-0.51562 0.14062v0.046875c0.03906 0 0.23438 0.054688 0.57812 0.15625 0.34375 0.09375 0.71094 0.29297 1.1094 0.59375 0.40625 0.29297 0.76562 0.71094 1.0781 1.25 0.32031 0.53125 0.48438 1.2305 0.48438 2.0938 0 1.4688-0.49609 2.668-1.4844 3.5938-0.99219 0.91797-2.4219 1.375-4.2969 1.375h-8.4219zm8.3906 14.547c1.0195 0 1.7852-0.23438 2.2969-0.70312 0.51953-0.46875 0.78125-1.0938 0.78125-1.875 0-0.76953-0.26172-1.3906-0.78125-1.8594-0.51172-0.46875-1.2773-0.70312-2.2969-0.70312h-5.6406v5.1406zm-0.17188-7.5312c0.86328 0 1.5039-0.19531 1.9219-0.59375 0.42578-0.40625 0.64062-0.94531 0.64062-1.625 0-0.6875-0.21484-1.2266-0.64062-1.625-0.41797-0.40625-1.0586-0.60938-1.9219-0.60938h-5.4688v4.4531z"/>
   </g>
   <g transform="translate(41.072 208.43)">
    <path d="m6.1562-14.547h-5.9844v-2.5625h14.719v2.5625h-6v14.547h-2.7344z"/>
   </g>
   <g transform="translate(56.124 208.43)">
    <path d="m10.266 0.34375c-1.2812 0-2.4688-0.22656-3.5625-0.67188s-2.0391-1.0625-2.8281-1.8438c-0.78125-0.78906-1.3984-1.7344-1.8438-2.8281-0.4375-1.0938-0.65625-2.2812-0.65625-3.5625 0-1.2695 0.21875-2.4531 0.65625-3.5469 0.44531-1.0938 1.0625-2.0312 1.8438-2.8125 0.78906-0.78906 1.7344-1.4102 2.8281-1.8594 1.0938-0.44531 2.2812-0.67188 3.5625-0.67188s2.4688 0.22656 3.5625 0.67188c1.0938 0.44922 2.0312 1.0703 2.8125 1.8594 0.78906 0.78125 1.4062 1.7188 1.8438 2.8125 0.44531 1.0938 0.67188 2.2773 0.67188 3.5469 0 1.2812-0.22656 2.4688-0.67188 3.5625-0.4375 1.0938-1.0547 2.0391-1.8438 2.8281-0.78125 0.78125-1.7188 1.3984-2.8125 1.8438s-2.2812 0.67188-3.5625 0.67188zm0-2.5625c0.88281 0 1.7031-0.14844 2.4531-0.45312 0.75781-0.3125 1.4102-0.75 1.9531-1.3125 0.55078-0.5625 0.97656-1.2266 1.2812-2 0.3125-0.78125 0.46875-1.6406 0.46875-2.5781 0-0.92578-0.15625-1.7734-0.46875-2.5469-0.30469-0.78125-0.73047-1.4531-1.2812-2.0156-0.54297-0.5625-1.1953-0.99219-1.9531-1.2969-0.75-0.3125-1.5703-0.46875-2.4531-0.46875-0.88672 0-1.7109 0.15625-2.4688 0.46875-0.75 0.30469-1.4023 0.73438-1.9531 1.2969-0.54297 0.5625-0.96875 1.2344-1.2812 2.0156-0.30469 0.77344-0.45312 1.6211-0.45312 2.5469 0 0.9375 0.14844 1.7969 0.45312 2.5781 0.3125 0.77344 0.73828 1.4375 1.2812 2 0.55078 0.5625 1.2031 1 1.9531 1.3125 0.75781 0.30469 1.582 0.45312 2.4688 0.45312z"/>
   </g>
   <g transform="translate(76.648 208.43)">
    <path d="m2.3906-17.109h4.1094l5.1406 10.609h0.84375l5.1406-10.609h4.1094v17.109h-2.75v-13.688l0.04687-0.34375h-0.07813l-5.0938 10.609h-3.5938l-5.0937-10.609h-0.078125l0.046875 0.34375v13.688h-2.75z"/>
   </g>
   <g transform="translate(100.76 208.43)">
    <path d="m9.5781 0.34375c-1.1172 0-2.1719-0.22656-3.1719-0.67188-0.99219-0.44531-1.8594-1.0625-2.6094-1.8438-0.75-0.78906-1.3438-1.7344-1.7812-2.8281-0.42969-1.0938-0.64062-2.2812-0.64062-3.5625 0-1.2695 0.21094-2.4531 0.64062-3.5469 0.4375-1.0938 1.0312-2.0312 1.7812-2.8125 0.75-0.78906 1.6172-1.4102 2.6094-1.8594 1-0.44531 2.0547-0.67188 3.1719-0.67188 1.125 0 2.0703 0.16406 2.8438 0.48438 0.76953 0.3125 1.3984 0.66797 1.8906 1.0625 0.5 0.38672 0.85156 0.74609 1.0625 1.0781 0.21875 0.32422 0.32812 0.48438 0.32812 0.48438h0.03125v-2.7656h2.75v17.109h-2.75v-2.7344h-0.03125s-0.10938 0.16797-0.32812 0.5c-0.21094 0.32422-0.5625 0.67969-1.0625 1.0625-0.49219 0.375-1.1211 0.72656-1.8906 1.0469-0.77344 0.3125-1.7188 0.46875-2.8438 0.46875zm0.34375-2.5625c0.82031 0 1.5859-0.14844 2.2969-0.45312 0.70703-0.3125 1.3203-0.75 1.8438-1.3125 0.51953-0.5625 0.92578-1.2266 1.2188-2 0.30078-0.78125 0.45312-1.6406 0.45312-2.5781 0-0.92578-0.15234-1.7734-0.45312-2.5469-0.29297-0.78125-0.69922-1.4531-1.2188-2.0156-0.52344-0.5625-1.1367-0.99219-1.8438-1.2969-0.71094-0.3125-1.4766-0.46875-2.2969-0.46875-0.82422 0-1.5898 0.15625-2.2969 0.46875-0.71094 0.30469-1.3242 0.73438-1.8438 1.2969-0.52344 0.5625-0.93359 1.2344-1.2344 2.0156-0.29297 0.77344-0.4375 1.6211-0.4375 2.5469 0 0.9375 0.14453 1.7969 0.4375 2.5781 0.30078 0.77344 0.71094 1.4375 1.2344 2 0.51953 0.5625 1.1328 1 1.8438 1.3125 0.70703 0.30469 1.4727 0.45312 2.2969 0.45312z"/>
   </g>
   <g transform="translate(121.63 208.43)">
    <path d="m6.1562-14.547h-5.9844v-2.5625h14.719v2.5625h-6v14.547h-2.7344z"/>
   </g>
   <g transform="translate(136.68 208.43)">
    <path d="m2.3906-17.109h2.75v12.828l-0.046875 0.34375h0.078125l9.2031-13.172h3.0781v17.109h-2.7344v-12.828l0.03125-0.34375h-0.0625l-9.2188 13.172h-3.0781z"/>
   </g>
   <g transform="translate(156.52 208.43)">
    <path d="m8.2188 0.34375c-0.875 0-1.6484-0.085938-2.3125-0.25-0.65625-0.15625-1.2422-0.36328-1.75-0.625-0.51172-0.25781-0.95312-0.5625-1.3281-0.90625s-0.69531-0.6875-0.95312-1.0312c-0.58594-0.82031-0.98047-1.7656-1.1875-2.8281h2.7344c0.13281 0.58594 0.39453 1.0938 0.78125 1.5312 0.32031 0.38672 0.79688 0.74219 1.4219 1.0625 0.625 0.32422 1.4883 0.48438 2.5938 0.48438 1.457 0 2.5312-0.28516 3.2188-0.85938 0.69531-0.57031 1.0469-1.2031 1.0469-1.8906 0-0.67578-0.32031-1.2695-0.95312-1.7812-0.63672-0.51953-1.6836-0.78125-3.1406-0.78125h-2.0625v-2.5625h2.0625c1.3633 0 2.3281-0.22656 2.8906-0.6875 0.57031-0.45703 0.85938-1.0234 0.85938-1.7031 0-0.59375-0.3125-1.1406-0.9375-1.6406-0.625-0.50781-1.6211-0.76562-2.9844-0.76562-0.91797 0-1.6523 0.14062-2.2031 0.42188-0.54297 0.27344-0.97656 0.57031-1.2969 0.89062-0.36719 0.38672-0.625 0.80859-0.78125 1.2656h-2.7344c0.19531-0.95703 0.59375-1.8164 1.1875-2.5781 0.25-0.3125 0.54688-0.61719 0.89062-0.92188 0.34375-0.3125 0.75391-0.58594 1.2344-0.82812 0.47656-0.23828 1.0195-0.42969 1.625-0.57812 0.60156-0.15625 1.2969-0.23438 2.0781-0.23438 1.1133 0 2.0859 0.13281 2.9219 0.39062 0.83203 0.26172 1.5234 0.60938 2.0781 1.0469 0.5625 0.4375 0.97656 0.94922 1.25 1.5312 0.28125 0.57422 0.42188 1.1836 0.42188 1.8281 0 0.73047-0.14062 1.3359-0.42188 1.8125-0.27344 0.48047-0.58594 0.86719-0.9375 1.1562-0.35547 0.28125-0.6875 0.48047-1 0.59375-0.30469 0.10547-0.48438 0.17188-0.54688 0.20312v0.03125c0.03906 0 0.23438 0.058594 0.57812 0.17188 0.34375 0.11719 0.71094 0.32812 1.1094 0.64062 0.39453 0.30469 0.75391 0.71875 1.0781 1.25 0.32031 0.52344 0.48438 1.1875 0.48438 2 0 0.6875-0.15234 1.3398-0.45312 1.9531-0.29297 0.61719-0.73438 1.1641-1.3281 1.6406-0.59375 0.48047-1.3281 0.85938-2.2031 1.1406-0.86719 0.26953-1.875 0.40625-3.0312 0.40625z"/>
   </g>
   <g transform="translate(173.11 208.43)">
    <path d="m9.5781 0.34375c-1.1172 0-2.1719-0.22656-3.1719-0.67188-0.99219-0.44531-1.8594-1.0625-2.6094-1.8438-0.75-0.78906-1.3438-1.7344-1.7812-2.8281-0.42969-1.0938-0.64062-2.2812-0.64062-3.5625 0-1.2695 0.21094-2.4531 0.64062-3.5469 0.4375-1.0938 1.0312-2.0312 1.7812-2.8125 0.75-0.78906 1.6172-1.4102 2.6094-1.8594 1-0.44531 2.0547-0.67188 3.1719-0.67188 1.125 0 2.0703 0.16406 2.8438 0.48438 0.76953 0.3125 1.3984 0.66797 1.8906 1.0625 0.5 0.38672 0.85156 0.74609 1.0625 1.0781 0.21875 0.32422 0.32812 0.48438 0.32812 0.48438h0.03125v-2.7656h2.75v17.109h-2.75v-2.7344h-0.03125s-0.10938 0.16797-0.32812 0.5c-0.21094 0.32422-0.5625 0.67969-1.0625 1.0625-0.49219 0.375-1.1211 0.72656-1.8906 1.0469-0.77344 0.3125-1.7188 0.46875-2.8438 0.46875zm0.34375-2.5625c0.82031 0 1.5859-0.14844 2.2969-0.45312 0.70703-0.3125 1.3203-0.75 1.8438-1.3125 0.51953-0.5625 0.92578-1.2266 1.2188-2 0.30078-0.78125 0.45312-1.6406 0.45312-2.5781 0-0.92578-0.15234-1.7734-0.45312-2.5469-0.29297-0.78125-0.69922-1.4531-1.2188-2.0156-0.52344-0.5625-1.1367-0.99219-1.8438-1.2969-0.71094-0.3125-1.4766-0.46875-2.2969-0.46875-0.82422 0-1.5898 0.15625-2.2969 0.46875-0.71094 0.30469-1.3242 0.73438-1.8438 1.2969-0.52344 0.5625-0.93359 1.2344-1.2344 2.0156-0.29297 0.77344-0.4375 1.6211-0.4375 2.5469 0 0.9375 0.14453 1.7969 0.4375 2.5781 0.30078 0.77344 0.71094 1.4375 1.2344 2 0.51953 0.5625 1.1328 1 1.8438 1.3125 0.70703 0.30469 1.4727 0.45312 2.2969 0.45312z"/>
   </g>
   <g transform="translate(193.98 208.43)">
    <path d="m16.422 0h-14.031v-17.109h2.75v14.547h8.8906v-14.547h2.7344v14.547h2.3906v6.5h-2.7344z"/>
   </g>
   <g transform="translate(213.65 208.43)">
    <path d="m2.3906-17.109h2.75v12.828l-0.046875 0.34375h0.078125l9.2031-13.172h3.0781v17.109h-2.7344v-12.828l0.03125-0.34375h-0.0625l-9.2188 13.172h-3.0781z"/>
   </g>
   <g transform="translate(233.49 208.43)">
    <path d="m5.1406-6.1562c-0.64844-0.26953-1.2188-0.63281-1.7188-1.0938-0.4375-0.39453-0.83594-0.91406-1.1875-1.5625-0.34375-0.64453-0.51562-1.4727-0.51562-2.4844 0-0.82031 0.14844-1.582 0.45312-2.2812 0.3125-0.70703 0.75391-1.3203 1.3281-1.8438 0.58203-0.53125 1.2812-0.94141 2.0938-1.2344 0.8125-0.30078 1.7266-0.45312 2.75-0.45312h7.7344v17.109h-2.7344v-5.4688h-5.4688l-3.0156 5.4688h-3.1406zm8.2031-1.8906v-6.5h-4.9531c-1.3047 0-2.2891 0.30469-2.9531 0.90625-0.65625 0.60547-0.98438 1.3867-0.98438 2.3438 0 0.96094 0.32812 1.7422 0.98438 2.3438 0.66406 0.60547 1.6484 0.90625 2.9531 0.90625z"/>
   </g>
   <g transform="translate(251.96 208.43)"></g>
   <g transform="translate(261.54 208.43)">
    <path d="m6.1562-14.547h-5.9844v-2.5625h14.719v2.5625h-6v14.547h-2.7344z"/>
   </g>
   <g transform="translate(276.59 208.43)">
    <path d="m10.266 0.34375c-1.2812 0-2.4688-0.22656-3.5625-0.67188s-2.0391-1.0625-2.8281-1.8438c-0.78125-0.78906-1.3984-1.7344-1.8438-2.8281-0.4375-1.0938-0.65625-2.2812-0.65625-3.5625 0-1.2695 0.21875-2.4531 0.65625-3.5469 0.44531-1.0938 1.0625-2.0312 1.8438-2.8125 0.78906-0.78906 1.7344-1.4102 2.8281-1.8594 1.0938-0.44531 2.2812-0.67188 3.5625-0.67188s2.4688 0.22656 3.5625 0.67188c1.0938 0.44922 2.0312 1.0703 2.8125 1.8594 0.78906 0.78125 1.4062 1.7188 1.8438 2.8125 0.44531 1.0938 0.67188 2.2773 0.67188 3.5469 0 1.2812-0.22656 2.4688-0.67188 3.5625-0.4375 1.0938-1.0547 2.0391-1.8438 2.8281-0.78125 0.78125-1.7188 1.3984-2.8125 1.8438s-2.2812 0.67188-3.5625 0.67188zm0-2.5625c0.88281 0 1.7031-0.14844 2.4531-0.45312 0.75781-0.3125 1.4102-0.75 1.9531-1.3125 0.55078-0.5625 0.97656-1.2266 1.2812-2 0.3125-0.78125 0.46875-1.6406 0.46875-2.5781 0-0.92578-0.15625-1.7734-0.46875-2.5469-0.30469-0.78125-0.73047-1.4531-1.2812-2.0156-0.54297-0.5625-1.1953-0.99219-1.9531-1.2969-0.75-0.3125-1.5703-0.46875-2.4531-0.46875-0.88672 0-1.7109 0.15625-2.4688 0.46875-0.75 0.30469-1.4023 0.73438-1.9531 1.2969-0.54297 0.5625-0.96875 1.2344-1.2812 2.0156-0.30469 0.77344-0.45312 1.6211-0.45312 2.5469 0 0.9375 0.14844 1.7969 0.45312 2.5781 0.3125 0.77344 0.73828 1.4375 1.2812 2 0.55078 0.5625 1.2031 1 1.9531 1.3125 0.75781 0.30469 1.582 0.45312 2.4688 0.45312z"/>
   </g>
   <g transform="translate(297.11 208.43)">
    <path d="m2.3906-17.109h2.75v2.7344h0.03125s0.10156-0.16016 0.3125-0.48438c0.21875-0.33203 0.57031-0.6875 1.0625-1.0625 0.48828-0.38281 1.1172-0.73438 1.8906-1.0469 0.78125-0.32031 1.7344-0.48438 2.8594-0.48438 1.1133 0 2.1641 0.22656 3.1562 0.67188 1 0.44922 1.875 1.0703 2.625 1.8594 0.75 0.78125 1.3359 1.7188 1.7656 2.8125 0.4375 1.0938 0.65625 2.2773 0.65625 3.5469 0 1.2812-0.21875 2.4688-0.65625 3.5625-0.42969 1.0938-1.0156 2.0391-1.7656 2.8281-0.75 0.78125-1.625 1.3984-2.625 1.8438-0.99219 0.44531-2.043 0.67188-3.1562 0.67188-1.125 0-2.0781-0.15625-2.8594-0.46875-0.77344-0.32031-1.4023-0.67188-1.8906-1.0469-0.49219-0.38281-0.84375-0.73828-1.0625-1.0625-0.21094-0.33203-0.3125-0.5-0.3125-0.5h-0.03125v9.2344h-2.75zm8.5625 14.891c0.82031 0 1.582-0.14844 2.2812-0.45312 0.70703-0.3125 1.3203-0.75 1.8438-1.3125 0.53125-0.5625 0.94141-1.2266 1.2344-2 0.30078-0.78125 0.45312-1.6406 0.45312-2.5781 0-0.92578-0.15234-1.7734-0.45312-2.5469-0.29297-0.78125-0.70312-1.4531-1.2344-2.0156-0.52344-0.5625-1.1367-0.99219-1.8438-1.2969-0.69922-0.3125-1.4609-0.46875-2.2812-0.46875-0.82422 0-1.5898 0.15625-2.2969 0.46875-0.71094 0.30469-1.3281 0.73438-1.8594 1.2969-0.52344 0.5625-0.92969 1.2344-1.2188 2.0156-0.29297 0.77344-0.4375 1.6211-0.4375 2.5469 0 0.9375 0.14453 1.7969 0.4375 2.5781 0.28906 0.77344 0.69531 1.4375 1.2188 2 0.53125 0.5625 1.1484 1 1.8594 1.3125 0.70703 0.30469 1.4727 0.45312 2.2969 0.45312z"/>
   </g>
   <g transform="translate(317.98 208.43)">
    <path d="m2.3906-17.109h11.812v2.5625h-9.0625v14.547h-2.75z"/>
   </g>
   <g transform="translate(332.52 208.43)">
    <path d="m10.266 0.34375c-1.2812 0-2.4688-0.22656-3.5625-0.67188s-2.0391-1.0625-2.8281-1.8438c-0.78125-0.78906-1.3984-1.7344-1.8438-2.8281-0.4375-1.0938-0.65625-2.2812-0.65625-3.5625 0-1.2695 0.21875-2.4531 0.65625-3.5469 0.44531-1.0938 1.0625-2.0312 1.8438-2.8125 0.78906-0.78906 1.7344-1.4102 2.8281-1.8594 1.0938-0.44531 2.2812-0.67188 3.5625-0.67188s2.4688 0.22656 3.5625 0.67188c1.0938 0.44922 2.0312 1.0703 2.8125 1.8594 0.78906 0.78125 1.4062 1.7188 1.8438 2.8125 0.44531 1.0938 0.67188 2.2773 0.67188 3.5469 0 1.2812-0.22656 2.4688-0.67188 3.5625-0.4375 1.0938-1.0547 2.0391-1.8438 2.8281-0.78125 0.78125-1.7188 1.3984-2.8125 1.8438s-2.2812 0.67188-3.5625 0.67188zm0-2.5625c0.88281 0 1.7031-0.14844 2.4531-0.45312 0.75781-0.3125 1.4102-0.75 1.9531-1.3125 0.55078-0.5625 0.97656-1.2266 1.2812-2 0.3125-0.78125 0.46875-1.6406 0.46875-2.5781 0-0.92578-0.15625-1.7734-0.46875-2.5469-0.30469-0.78125-0.73047-1.4531-1.2812-2.0156-0.54297-0.5625-1.1953-0.99219-1.9531-1.2969-0.75-0.3125-1.5703-0.46875-2.4531-0.46875-0.88672 0-1.7109 0.15625-2.4688 0.46875-0.75 0.30469-1.4023 0.73438-1.9531 1.2969-0.54297 0.5625-0.96875 1.2344-1.2812 2.0156-0.30469 0.77344-0.45312 1.6211-0.45312 2.5469 0 0.9375 0.14844 1.7969 0.45312 2.5781 0.3125 0.77344 0.73828 1.4375 1.2812 2 0.55078 0.5625 1.2031 1 1.9531 1.3125 0.75781 0.30469 1.582 0.45312 2.4688 0.45312z"/>
   </g>
   <g transform="translate(353.04 208.43)">
    <path d="m2.3906-17.109h8.3906c1.6445 0 2.9102 0.41406 3.7969 1.2344 0.88281 0.82422 1.3281 1.8398 1.3281 3.0469 0 0.77344-0.12109 1.3984-0.35938 1.875-0.24219 0.48047-0.51562 0.85938-0.82812 1.1406-0.30469 0.27344-0.58984 0.46094-0.85938 0.5625-0.27344 0.09375-0.44531 0.14062-0.51562 0.14062v0.046875c0.03906 0 0.23438 0.054688 0.57812 0.15625 0.34375 0.09375 0.71094 0.29297 1.1094 0.59375 0.40625 0.29297 0.76562 0.71094 1.0781 1.25 0.32031 0.53125 0.48438 1.2305 0.48438 2.0938 0 1.4688-0.49609 2.668-1.4844 3.5938-0.99219 0.91797-2.4219 1.375-4.2969 1.375h-8.4219zm8.3906 14.547c1.0195 0 1.7852-0.23438 2.2969-0.70312 0.51953-0.46875 0.78125-1.0938 0.78125-1.875 0-0.76953-0.26172-1.3906-0.78125-1.8594-0.51172-0.46875-1.2773-0.70312-2.2969-0.70312h-5.6406v5.1406zm-0.17188-7.5312c0.86328 0 1.5039-0.19531 1.9219-0.59375 0.42578-0.40625 0.64062-0.94531 0.64062-1.625 0-0.6875-0.21484-1.2266-0.64062-1.625-0.41797-0.40625-1.0586-0.60938-1.9219-0.60938h-5.4688v4.4531z"/>
   </g>
   <g transform="translate(371 208.43)">
    <path d="m5.1406-17.109h7.1719l4.7969 17.109h-2.9062l-3.9375-14.547h-3.0781l-3.9375 14.547h-2.9062z"/>
   </g>
   <g transform="translate(388.44 208.43)">
    <path d="m2.3906-17.109h2.75v12.828l-0.046875 0.34375h0.078125l9.2031-13.172h3.0781v17.109h-2.7344v-12.828l0.03125-0.34375h-0.0625l-9.2188 13.172h-3.0781z"/>
   </g>
   <g transform="translate(408.28 208.43)">
    <path d="m1.7188 2.9062c1.3633-0.15625 2.0469-0.89844 2.0469-2.2188v-0.51562c-0.042969 0.039063-0.10938 0.078125-0.20312 0.10938-0.1875 0.039062-0.35156 0.0625-0.48438 0.0625-0.4375 0-0.80469-0.15625-1.0938-0.46875-0.29297-0.32031-0.4375-0.75781-0.4375-1.3125 0-0.65625 0.19141-1.1758 0.57812-1.5625 0.38281-0.39453 0.875-0.59375 1.4688-0.59375s1.082 0.23438 1.4688 0.70312c0.38281 0.46875 0.57812 1.2617 0.57812 2.375 0 1.5508-0.35547 2.7109-1.0625 3.4844-0.69922 0.78125-1.6523 1.2188-2.8594 1.3125z"/>
   </g>
   <g transform="translate(0 247.11)">
    <path d="m9.9219 0.34375c-1.2109 0-2.3359-0.22656-3.375-0.67188-1.0312-0.44531-1.9336-1.0625-2.7031-1.8438-0.76172-0.78906-1.3672-1.7344-1.8125-2.8281-0.4375-1.0938-0.65625-2.2812-0.65625-3.5625 0-1.2695 0.21875-2.4531 0.65625-3.5469 0.44531-1.0938 1.0508-2.0312 1.8125-2.8125 0.76953-0.78906 1.6719-1.4102 2.7031-1.8594 1.0391-0.44531 2.1641-0.67188 3.375-0.67188 0.84375 0 1.6133 0.08984 2.3125 0.26562 0.69531 0.16797 1.3164 0.39844 1.8594 0.6875 0.55078 0.28125 1.0312 0.60547 1.4375 0.96875 0.41406 0.36719 0.76953 0.73047 1.0625 1.0938 0.70703 0.88672 1.2227 1.875 1.5469 2.9688h-2.7344c-0.28125-0.63281-0.66406-1.2031-1.1406-1.7031-0.40625-0.4375-0.96484-0.83203-1.6719-1.1875-0.71094-0.35156-1.6016-0.53125-2.6719-0.53125-0.82422 0-1.5898 0.15625-2.2969 0.46875-0.71094 0.30469-1.3242 0.73438-1.8438 1.2969-0.52344 0.5625-0.93359 1.2344-1.2344 2.0156-0.29297 0.77344-0.4375 1.6211-0.4375 2.5469 0 0.96094 0.15625 1.8281 0.46875 2.6094 0.32031 0.77344 0.74219 1.4336 1.2656 1.9844 0.53125 0.55469 1.1484 0.98438 1.8594 1.2969 0.70703 0.30469 1.4453 0.45312 2.2188 0.45312 1.1133 0 2.0312-0.19141 2.75-0.57812 0.71875-0.39453 1.2969-0.83203 1.7344-1.3125 0.5-0.53906 0.88281-1.1641 1.1562-1.875h2.75c-0.32422 1.2109-0.85156 2.2656-1.5781 3.1719-0.32422 0.39844-0.69531 0.78125-1.1094 1.1562-0.40625 0.375-0.89062 0.71484-1.4531 1.0156-0.55469 0.29297-1.1836 0.52734-1.8906 0.70312-0.71094 0.1875-1.4961 0.28125-2.3594 0.28125z"/>
   </g>
   <g transform="translate(19.327 247.11)">
    <path d="m10.094 0.17188c-1.2812-0.09375-2.4688-0.37891-3.5625-0.85938-1.0938-0.47656-2.0391-1.1094-2.8281-1.8906-0.78125-0.78906-1.3984-1.6914-1.8438-2.7031-0.4375-1.0195-0.65625-2.1133-0.65625-3.2812 0-1.1562 0.21875-2.2383 0.65625-3.25 0.44531-1.0195 1.0625-1.9219 1.8438-2.7031 0.78906-0.78906 1.7344-1.4258 2.8281-1.9062 1.0938-0.47656 2.2812-0.76562 3.5625-0.85938v-6.6719h2.7344v6.6719c1.2812 0.09375 2.4688 0.38281 3.5625 0.85938 1.0938 0.48047 2.0312 1.1172 2.8125 1.9062 0.78906 0.78125 1.4102 1.6836 1.8594 2.7031 0.44531 1.0117 0.67188 2.0938 0.67188 3.25 0 1.168-0.22656 2.2617-0.67188 3.2812-0.44922 1.0117-1.0703 1.9141-1.8594 2.7031-0.78125 0.78125-1.7188 1.4141-2.8125 1.8906-1.0938 0.48047-2.2812 0.76562-3.5625 0.85938v6.3281h-2.7344zm0-14.891c-0.88672 0.05469-1.7109 0.24219-2.4688 0.5625-0.75 0.3125-1.4023 0.74609-1.9531 1.2969-0.54297 0.54297-0.96875 1.1836-1.2812 1.9219-0.30469 0.74219-0.45312 1.5312-0.45312 2.375 0 0.875 0.14844 1.6797 0.45312 2.4062 0.3125 0.73047 0.73828 1.3711 1.2812 1.9219 0.55078 0.54297 1.2031 0.97656 1.9531 1.2969 0.75781 0.3125 1.582 0.49609 2.4688 0.54688zm2.7344 12.328c0.89453-0.050781 1.7188-0.23438 2.4688-0.54688 0.75-0.32031 1.3945-0.75391 1.9375-1.2969 0.55078-0.55078 0.97656-1.1914 1.2812-1.9219 0.3125-0.72656 0.46875-1.5312 0.46875-2.4062 0-0.84375-0.15625-1.6328-0.46875-2.375-0.30469-0.73828-0.73047-1.3789-1.2812-1.9219-0.54297-0.55078-1.1875-0.98438-1.9375-1.2969-0.75-0.32031-1.5742-0.50781-2.4688-0.5625z"/>
   </g>
   <g transform="translate(42.246 247.11)">
    <path d="m10.094 0.34375c-1.2305 0-2.3828-0.22656-3.4531-0.67188-1.0742-0.44531-2-1.0625-2.7812-1.8438-0.77344-0.78906-1.3828-1.7344-1.8281-2.8281-0.4375-1.0938-0.65625-2.2812-0.65625-3.5625 0-1.2695 0.21875-2.4531 0.65625-3.5469 0.44531-1.0938 1.0547-2.0312 1.8281-2.8125 0.78125-0.78906 1.707-1.4102 2.7812-1.8594 1.0703-0.44531 2.2227-0.67188 3.4531-0.67188 1.2266 0 2.3789 0.22656 3.4531 0.67188 1.0703 0.44922 1.9922 1.0586 2.7656 1.8281 0.78125 0.77344 1.3945 1.6953 1.8438 2.7656 0.44531 1.0742 0.67188 2.2305 0.67188 3.4688v1.0156h-14.719c0.09375 0.80469 0.30469 1.543 0.64062 2.2188 0.34375 0.66797 0.77344 1.2422 1.2969 1.7188 0.53125 0.48047 1.1445 0.85938 1.8438 1.1406 0.69531 0.27344 1.4297 0.40625 2.2031 0.40625 1.0312 0 1.8945-0.16016 2.5938-0.48438 0.70703-0.32031 1.2891-0.67578 1.75-1.0625 0.53125-0.4375 0.96094-0.94531 1.2969-1.5312h2.75c-0.41797 1.0625-1 2.0078-1.75 2.8281-0.66797 0.71094-1.5391 1.3555-2.6094 1.9375-1.0625 0.58203-2.4062 0.875-4.0312 0.875zm5.8125-10.438c-0.085938-0.63281-0.28125-1.2422-0.59375-1.8281-0.3125-0.58203-0.71875-1.0859-1.2188-1.5156-0.5-0.4375-1.0898-0.78516-1.7656-1.0469-0.66797-0.26953-1.4141-0.40625-2.2344-0.40625-0.82422 0-1.5742 0.13672-2.25 0.40625-0.66797 0.26172-1.2617 0.60938-1.7812 1.0469-0.51172 0.42969-0.92969 0.93359-1.25 1.5156-0.3125 0.58594-0.52734 1.1953-0.64062 1.8281z"/>
   </g>
   <g transform="translate(62.428 247.11)">
    <path d="m2.3906-17.109h2.75v2.7344h0.03125s0.10156-0.16016 0.3125-0.48438c0.21875-0.33203 0.57031-0.6875 1.0625-1.0625 0.48828-0.38281 1.1172-0.73438 1.8906-1.0469 0.78125-0.32031 1.7344-0.48438 2.8594-0.48438 1.1133 0 2.1641 0.22656 3.1562 0.67188 1 0.44922 1.875 1.0703 2.625 1.8594 0.75 0.78125 1.3359 1.7188 1.7656 2.8125 0.4375 1.0938 0.65625 2.2773 0.65625 3.5469 0 1.2812-0.21875 2.4688-0.65625 3.5625-0.42969 1.0938-1.0156 2.0391-1.7656 2.8281-0.75 0.78125-1.625 1.3984-2.625 1.8438-0.99219 0.44531-2.043 0.67188-3.1562 0.67188-1.125 0-2.0781-0.15625-2.8594-0.46875-0.77344-0.32031-1.4023-0.67188-1.8906-1.0469-0.49219-0.38281-0.84375-0.73828-1.0625-1.0625-0.21094-0.33203-0.3125-0.5-0.3125-0.5h-0.03125v9.2344h-2.75zm8.5625 14.891c0.82031 0 1.582-0.14844 2.2812-0.45312 0.70703-0.3125 1.3203-0.75 1.8438-1.3125 0.53125-0.5625 0.94141-1.2266 1.2344-2 0.30078-0.78125 0.45312-1.6406 0.45312-2.5781 0-0.92578-0.15234-1.7734-0.45312-2.5469-0.29297-0.78125-0.70312-1.4531-1.2344-2.0156-0.52344-0.5625-1.1367-0.99219-1.8438-1.2969-0.69922-0.3125-1.4609-0.46875-2.2812-0.46875-0.82422 0-1.5898 0.15625-2.2969 0.46875-0.71094 0.30469-1.3281 0.73438-1.8594 1.2969-0.52344 0.5625-0.92969 1.2344-1.2188 2.0156-0.29297 0.77344-0.4375 1.6211-0.4375 2.5469 0 0.9375 0.14453 1.7969 0.4375 2.5781 0.28906 0.77344 0.69531 1.4375 1.2188 2 0.53125 0.5625 1.1484 1 1.8594 1.3125 0.70703 0.30469 1.4727 0.45312 2.2969 0.45312z"/>
   </g>
   <g transform="translate(83.294 247.11)">
    <path d="m2.3906-17.109h2.75v5.8125h4.0938c0.97656 0 1.8672 0.15234 2.6719 0.45312 0.80078 0.29297 1.4844 0.69922 2.0469 1.2188 0.57031 0.51172 1.0078 1.1094 1.3125 1.7969 0.3125 0.67969 0.46875 1.4062 0.46875 2.1875 0 0.77344-0.15625 1.5-0.46875 2.1875-0.30469 0.6875-0.74219 1.2891-1.3125 1.7969-0.5625 0.51172-1.2461 0.91797-2.0469 1.2188-0.80469 0.29297-1.6953 0.4375-2.6719 0.4375h-6.8438zm6.8438 14.547c1.207 0 2.1328-0.29688 2.7812-0.89062 0.65625-0.59375 0.98438-1.3203 0.98438-2.1875 0-0.875-0.32812-1.6016-0.98438-2.1875-0.64844-0.59375-1.5742-0.89062-2.7812-0.89062h-4.0938v6.1562zm8.7344-14.547h2.7344v17.109h-2.7344z"/>
   </g>
   <g transform="translate(106.38 247.11)"></g>
   <g transform="translate(115.96 247.11)">
    <path d="m9.2344 0h-3.9375l-4.6094-17.109h2.9062l3.7656 14.547h2.5625l4.4531-14.547h2.9062l-7.1875 23.609h-2.9062z"/>
   </g>
   <g transform="translate(133.24 247.11)">
    <path d="m9.9219 0.34375c-1.2109 0-2.3359-0.22656-3.375-0.67188-1.0312-0.44531-1.9336-1.0625-2.7031-1.8438-0.76172-0.78906-1.3672-1.7344-1.8125-2.8281-0.4375-1.0938-0.65625-2.2812-0.65625-3.5625 0-1.2695 0.21875-2.4531 0.65625-3.5469 0.44531-1.0938 1.0508-2.0312 1.8125-2.8125 0.76953-0.78906 1.6719-1.4102 2.7031-1.8594 1.0391-0.44531 2.1641-0.67188 3.375-0.67188 0.84375 0 1.6133 0.08984 2.3125 0.26562 0.69531 0.16797 1.3164 0.39844 1.8594 0.6875 0.55078 0.28125 1.0312 0.60547 1.4375 0.96875 0.41406 0.36719 0.76953 0.73047 1.0625 1.0938 0.70703 0.88672 1.2227 1.875 1.5469 2.9688h-2.7344c-0.28125-0.63281-0.66406-1.2031-1.1406-1.7031-0.40625-0.4375-0.96484-0.83203-1.6719-1.1875-0.71094-0.35156-1.6016-0.53125-2.6719-0.53125-0.82422 0-1.5898 0.15625-2.2969 0.46875-0.71094 0.30469-1.3242 0.73438-1.8438 1.2969-0.52344 0.5625-0.93359 1.2344-1.2344 2.0156-0.29297 0.77344-0.4375 1.6211-0.4375 2.5469 0 0.96094 0.15625 1.8281 0.46875 2.6094 0.32031 0.77344 0.74219 1.4336 1.2656 1.9844 0.53125 0.55469 1.1484 0.98438 1.8594 1.2969 0.70703 0.30469 1.4453 0.45312 2.2188 0.45312 1.1133 0 2.0312-0.19141 2.75-0.57812 0.71875-0.39453 1.2969-0.83203 1.7344-1.3125 0.5-0.53906 0.88281-1.1641 1.1562-1.875h2.75c-0.32422 1.2109-0.85156 2.2656-1.5781 3.1719-0.32422 0.39844-0.69531 0.78125-1.1094 1.1562-0.40625 0.375-0.89062 0.71484-1.4531 1.0156-0.55469 0.29297-1.1836 0.52734-1.8906 0.70312-0.71094 0.1875-1.4961 0.28125-2.3594 0.28125z"/>
   </g>
   <g transform="translate(152.56 247.11)">
    <path d="m5.1406-17.109h7.1719l4.7969 17.109h-2.9062l-3.9375-14.547h-3.0781l-3.9375 14.547h-2.9062z"/>
   </g>
   <g transform="translate(170.01 247.11)">
    <path d="m9.2344 0h-3.9375l-4.6094-17.109h2.9062l3.7656 14.547h2.5625l4.4531-14.547h2.9062l-7.1875 23.609h-2.9062z"/>
   </g>
   <g transform="translate(187.28 247.11)">
    <path d="m2.3906-17.109h11.812v2.5625h-9.0625v14.547h-2.75z"/>
   </g>
   <g transform="translate(201.82 247.11)"></g>
   <g transform="translate(211.4 247.11)">
    <path d="m2.3906-17.109h2.75v12.828l-0.046875 0.34375h0.078125l9.2031-13.172h3.0781v17.109h-2.7344v-12.828l0.03125-0.34375h-0.0625l-9.2188 13.172h-3.0781z"/>
   </g>
   <g transform="translate(231.24 247.11)"></g>
   <g transform="translate(240.82 247.11)">
    <path d="m5.1406-17.109h7.1719l4.7969 17.109h-2.9062l-3.9375-14.547h-3.0781l-3.9375 14.547h-2.9062z"/>
   </g>
   <g transform="translate(258.26 247.11)">
    <path d="m10.266 0.34375c-1.2812 0-2.4688-0.22656-3.5625-0.67188s-2.0391-1.0625-2.8281-1.8438c-0.78125-0.78906-1.3984-1.7344-1.8438-2.8281-0.4375-1.0938-0.65625-2.2812-0.65625-3.5625 0-1.2695 0.21875-2.4531 0.65625-3.5469 0.44531-1.0938 1.0625-2.0312 1.8438-2.8125 0.78906-0.78906 1.7344-1.4102 2.8281-1.8594 1.0938-0.44531 2.2812-0.67188 3.5625-0.67188s2.4688 0.22656 3.5625 0.67188c1.0938 0.44922 2.0312 1.0703 2.8125 1.8594 0.78906 0.78125 1.4062 1.7188 1.8438 2.8125 0.44531 1.0938 0.67188 2.2773 0.67188 3.5469 0 1.2812-0.22656 2.4688-0.67188 3.5625-0.4375 1.0938-1.0547 2.0391-1.8438 2.8281-0.78125 0.78125-1.7188 1.3984-2.8125 1.8438s-2.2812 0.67188-3.5625 0.67188zm0-2.5625c0.88281 0 1.7031-0.14844 2.4531-0.45312 0.75781-0.3125 1.4102-0.75 1.9531-1.3125 0.55078-0.5625 0.97656-1.2266 1.2812-2 0.3125-0.78125 0.46875-1.6406 0.46875-2.5781 0-0.92578-0.15625-1.7734-0.46875-2.5469-0.30469-0.78125-0.73047-1.4531-1.2812-2.0156-0.54297-0.5625-1.1953-0.99219-1.9531-1.2969-0.75-0.3125-1.5703-0.46875-2.4531-0.46875-0.88672 0-1.7109 0.15625-2.4688 0.46875-0.75 0.30469-1.4023 0.73438-1.9531 1.2969-0.54297 0.5625-0.96875 1.2344-1.2812 2.0156-0.30469 0.77344-0.45312 1.6211-0.45312 2.5469 0 0.9375 0.14844 1.7969 0.45312 2.5781 0.3125 0.77344 0.73828 1.4375 1.2812 2 0.55078 0.5625 1.2031 1 1.9531 1.3125 0.75781 0.30469 1.582 0.45312 2.4688 0.45312z"/>
   </g>
   <g transform="translate(278.79 247.11)">
    <path d="m2.3906-17.109h11.812v2.5625h-9.0625v14.547h-2.75z"/>
   </g>
   <g transform="translate(293.32 247.11)">
    <path d="m2.3906-17.109h2.75v12.828l-0.046875 0.34375h0.078125l9.2031-13.172h3.0781v17.109h-2.7344v-12.828l0.03125-0.34375h-0.0625l-9.2188 13.172h-3.0781z"/>
   </g>
   <g transform="translate(313.16 247.11)">
    <path d="m9.9219 0.34375c-1.2109 0-2.3359-0.22656-3.375-0.67188-1.0312-0.44531-1.9336-1.0625-2.7031-1.8438-0.76172-0.78906-1.3672-1.7344-1.8125-2.8281-0.4375-1.0938-0.65625-2.2812-0.65625-3.5625 0-1.2695 0.21875-2.4531 0.65625-3.5469 0.44531-1.0938 1.0508-2.0312 1.8125-2.8125 0.76953-0.78906 1.6719-1.4102 2.7031-1.8594 1.0391-0.44531 2.1641-0.67188 3.375-0.67188 0.84375 0 1.6133 0.08984 2.3125 0.26562 0.69531 0.16797 1.3164 0.39844 1.8594 0.6875 0.55078 0.28125 1.0312 0.60547 1.4375 0.96875 0.41406 0.36719 0.76953 0.73047 1.0625 1.0938 0.70703 0.88672 1.2227 1.875 1.5469 2.9688h-2.7344c-0.28125-0.63281-0.66406-1.2031-1.1406-1.7031-0.40625-0.4375-0.96484-0.83203-1.6719-1.1875-0.71094-0.35156-1.6016-0.53125-2.6719-0.53125-0.82422 0-1.5898 0.15625-2.2969 0.46875-0.71094 0.30469-1.3242 0.73438-1.8438 1.2969-0.52344 0.5625-0.93359 1.2344-1.2344 2.0156-0.29297 0.77344-0.4375 1.6211-0.4375 2.5469 0 0.96094 0.15625 1.8281 0.46875 2.6094 0.32031 0.77344 0.74219 1.4336 1.2656 1.9844 0.53125 0.55469 1.1484 0.98438 1.8594 1.2969 0.70703 0.30469 1.4453 0.45312 2.2188 0.45312 1.1133 0 2.0312-0.19141 2.75-0.57812 0.71875-0.39453 1.2969-0.83203 1.7344-1.3125 0.5-0.53906 0.88281-1.1641 1.1562-1.875h2.75c-0.32422 1.2109-0.85156 2.2656-1.5781 3.1719-0.32422 0.39844-0.69531 0.78125-1.1094 1.1562-0.40625 0.375-0.89062 0.71484-1.4531 1.0156-0.55469 0.29297-1.1836 0.52734-1.8906 0.70312-0.71094 0.1875-1.4961 0.28125-2.3594 0.28125z"/>
   </g>
   <g transform="translate(332.49 247.11)">
    <path d="m6.1562-14.547h-5.9844v-2.5625h14.719v2.5625h-6v14.547h-2.7344z"/>
   </g>
   <g transform="translate(347.54 247.11)">
    <path d="m2.3906-17.109h2.75v12.828l-0.046875 0.34375h0.078125l9.2031-13.172h3.0781v17.109h-2.7344v-12.828l0.03125-0.34375h-0.0625l-9.2188 13.172h-3.0781z"/>
   </g>
   <g transform="translate(367.38 247.11)">
    <path d="m2.3906-17.109h2.75v6.8438h3.4219l5.4688-6.8438h3.25l-6.3281 8.0469 6.8438 9.0625h-3.4219l-5.8125-7.7031h-3.4219v7.7031h-2.75z"/>
   </g>
   <g transform="translate(385.34 247.11)">
    <path d="m2.3906-17.109h2.75v12.828l-0.046875 0.34375h0.078125l9.2031-13.172h3.0781v17.109h-2.7344v-12.828l0.03125-0.34375h-0.0625l-9.2188 13.172h-3.0781z"/>
   </g>
  </g>
  <path d="m193.2 2.1406h-98.949c-0.40625 0-0.73438 0.33203-0.73438 0.74219v27.094c0 0.41016 0.32812 0.74219 0.73438 0.74219h33.512c0.40624 0 0.73828 0.33203 0.73828 0.74219v84.27c0 0.41016 0.32812 0.74219 0.73437 0.74219h28.973c0.40625 0 0.73437-0.33203 0.73437-0.74219v-84.27c0-0.41016 0.32813-0.74219 0.73438-0.74219h33.523c0.40625 0 0.73438-0.33203 0.73438-0.74219v-27.094c0-0.41016-0.32813-0.74219-0.73438-0.74219z" fill="#de3030"/>
  <path d="m77.23 2.707c-0.08203-0.33203-0.375-0.56641-0.71094-0.56641h-30.883c-0.47656 0-0.82422 0.45312-0.71484 0.91797l27.16 112.85c0.08203 0.33203 0.375 0.56641 0.71484 0.56641h30.871c0.47266 0 0.82422-0.44922 0.71094-0.91797z" fill="#de3030"/>
 </g>
 <g transform="translate(-.0078125 -32.332)" clip-path="url(#8ea3e6599e)">
  <path d="m45.02 91.648h-30.883c-0.33594 0-0.63281 0.23437-0.71094 0.56641l-13.398 55.672c-0.10938 0.46875 0.23828 0.91797 0.71484 0.91797h30.879c0.33984 0 0.63281-0.23438 0.71484-0.56641l13.395-55.672c0.11328-0.46875-0.23828-0.91797-0.71094-0.91797z" fill="#de3030"/>
 </g>
 <path d="m368.03 2.1406h-30.879c-0.33985 0-0.63282 0.23438-0.71485 0.56641l-27.148 112.85c-0.11328 0.46875 0.23829 0.91797 0.71094 0.91797h30.883c0.33594 0 0.63282-0.23438 0.71094-0.56641l27.148-112.85c0.11328-0.46875-0.23828-0.91797-0.71094-0.91797z" fill="#de3030"/>
 <path d="m413.65 115.55-13.395-55.672c-0.082-0.33203-0.375-0.56641-0.71485-0.56641h-30.867c-0.47657 0-0.82813 0.44922-0.71485 0.91797l13.395 55.672c0.082 0.33203 0.375 0.56641 0.71485 0.56641h30.871c0.47656 0 0.82422-0.44922 0.71094-0.91797z" fill="#de3030"/>
 <g transform="translate(-.0078125 -32.332)" clip-path="url(#ecf817df93)">
  <path d="m276.58 115.03c-6.1328 6.1875-14.445 9.6641-23.117 9.6641-8.6719 0-16.988-3.4766-23.121-9.6641-6.1289-6.1914-9.5781-14.586-9.5781-23.34-8e-3 -4.3398 0.83594-8.6367 2.4766-12.645 1.6406-4.0117 4.0469-7.6562 7.0859-10.727 3.0391-3.0703 6.6445-5.5039 10.613-7.168 3.9688-1.6602 8.2266-2.5156 12.523-2.5156 4.2969 0 8.5508 0.85547 12.523 2.5195 3.9688 1.6602 7.5742 4.0938 10.609 7.1641 3.0391 3.0703 5.4453 6.7148 7.0859 10.727 1.6367 4.0078 2.4805 8.3047 2.4727 12.645 0 8.7539-3.4453 17.148-9.5742 23.34zm18.457-65.312c-11.027-11.129-25.98-17.383-41.574-17.383-7.7226-0.0039-15.367 1.5312-22.5 4.5156-7.1367 2.9805-13.617 7.3516-19.078 12.863-5.4609 5.5117-9.793 12.059-12.746 19.262-2.957 7.1992-4.4766 14.918-4.4766 22.715 0.0117 15.734 6.2109 30.824 17.238 41.945 11.027 11.121 25.977 17.363 41.562 17.363 15.586 0 30.531-6.2461 41.555-17.367 11.027-11.121 17.227-26.207 17.238-41.941 0-15.742-6.1953-30.84-17.219-41.973z" fill="#de3030"/>
 </g>
</svg>
