<svg width="176" height="192" viewBox="0 0 176 192" fill="none" xmlns="http://www.w3.org/2000/svg">
<g filter="url(#filter0_di_1205_8202)">
<path d="M79.1391 44.6548C81.2027 42.5187 84.1522 41.4799 87.0989 41.8516L126.636 46.838C130.787 47.3615 134.096 50.5583 134.763 54.6886L141.114 94.0295C141.587 96.9616 140.651 99.9453 138.587 102.081L75.941 166.933C72.3237 170.678 66.3557 170.781 62.6111 167.164L16.7234 122.836C12.9788 119.219 12.8756 113.251 16.4929 109.506L79.1391 44.6548Z" fill="#DF192C"/>
<path d="M79.1391 44.6548C81.2027 42.5187 84.1522 41.4799 87.0989 41.8516L126.636 46.838C130.787 47.3615 134.096 50.5583 134.763 54.6886L141.114 94.0295C141.587 96.9616 140.651 99.9453 138.587 102.081L75.941 166.933C72.3237 170.678 66.3557 170.781 62.6111 167.164L16.7234 122.836C12.9788 119.219 12.8756 113.251 16.4929 109.506L79.1391 44.6548Z" fill="url(#paint0_linear_1205_8202)" fill-opacity="0.1"/>
</g>
<g filter="url(#filter1_i_1205_8202)">
<circle cx="115.063" cy="66.9551" r="8.17713" transform="rotate(-120.84 115.063 66.9551)" fill="#15141D"/>
</g>
<circle cx="115.063" cy="66.9551" r="5.82037" transform="rotate(-120.84 115.063 66.9551)" stroke="white" stroke-width="4.71352"/>
<g filter="url(#filter2_di_1205_8202)">
<path d="M82.0396 69.4605C82.7508 66.5769 84.7793 64.197 87.514 63.0381L124.205 47.4886C128.057 45.8561 132.525 46.9579 135.176 50.1943L160.43 81.0209C162.312 83.3185 163.001 86.3687 162.29 89.2523L140.7 176.797C139.453 181.852 134.344 184.939 129.29 183.693L67.3443 168.416C62.2894 167.169 59.2022 162.06 60.4489 157.005L82.0396 69.4605Z" fill="#ED1B2F"/>
<path d="M82.0396 69.4605C82.7508 66.5769 84.7793 64.197 87.514 63.0381L124.205 47.4886C128.057 45.8561 132.525 46.9579 135.176 50.1943L160.43 81.0209C162.312 83.3185 163.001 86.3687 162.29 89.2523L140.7 176.797C139.453 181.852 134.344 184.939 129.29 183.693L67.3443 168.416C62.2894 167.169 59.2022 162.06 60.4489 157.005L82.0396 69.4605Z" fill="url(#paint1_linear_1205_8202)" fill-opacity="0.2"/>
</g>
<g filter="url(#filter3_di_1205_8202)">
<path d="M87.6508 109.48C85.6964 106.313 85.1778 102.869 86.0951 99.15C87.0124 95.4307 89.0725 92.6235 92.2754 90.7283C95.4783 88.833 99.0137 88.3624 102.882 89.3163C106.75 90.2703 109.661 92.3308 111.615 95.4979C113.57 98.6651 114.088 102.108 113.171 105.828C112.254 109.547 110.194 112.354 106.991 114.249C103.788 116.145 100.252 116.615 96.3844 115.661C92.5164 114.707 89.6052 112.647 87.6508 109.48ZM83.8986 142.995L129.766 96.7687L139.823 99.249L93.9554 145.475L83.8986 142.995ZM97.1283 98.3366C96.035 98.9985 95.3227 100.001 94.9915 101.344C94.6602 102.687 94.8247 103.906 95.4849 105C96.145 106.095 97.1456 106.807 98.4865 107.138C99.8274 107.469 101.044 107.303 102.138 106.641C103.231 105.979 103.943 104.977 104.275 103.634C104.606 102.29 104.441 101.072 103.781 99.9773C103.121 98.8829 102.121 98.1704 100.78 97.8397C99.4387 97.509 98.2216 97.6746 97.1283 98.3366ZM112.107 146.746C110.152 143.579 109.634 140.136 110.551 136.417C111.468 132.697 113.528 129.89 116.731 127.995C119.934 126.1 123.469 125.629 127.337 126.583C131.205 127.537 134.117 129.597 136.071 132.765C138.025 135.932 138.544 139.375 137.627 143.094C136.709 146.814 134.649 149.621 131.446 151.516C128.244 153.411 124.708 153.882 120.84 152.928C116.972 151.974 114.061 149.913 112.107 146.746ZM121.584 135.603C120.491 136.265 119.778 137.268 119.447 138.611C119.116 139.954 119.28 141.173 119.941 142.267C120.601 143.361 121.601 144.074 122.942 144.405C124.283 144.735 125.5 144.57 126.594 143.908C127.687 143.246 128.399 142.243 128.73 140.9C129.062 139.557 128.897 138.338 128.237 137.244C127.577 136.15 126.576 135.437 125.235 135.106C123.894 134.776 122.677 134.941 121.584 135.603Z" fill="white"/>
</g>
<g filter="url(#filter4_i_1205_8202)">
<circle cx="124.595" cy="70.236" r="8.17713" transform="rotate(-150.995 124.595 70.236)" fill="#15141D"/>
</g>
<circle cx="124.595" cy="70.236" r="5.82037" transform="rotate(-150.995 124.595 70.236)" stroke="white" stroke-width="4.71352"/>
<g filter="url(#filter5_i_1205_8202)">
<path d="M119.844 71.1897C140.206 70.0594 156.872 41.8741 136.59 25.4702C126.591 17.3824 103.947 24.9315 101.381 43.6467" stroke="white" stroke-width="4.71352"/>
</g>
<mask id="path-9-inside-1_1205_8202" fill="white">
<path d="M117.482 66.2711C116.513 68.0192 116.218 70.0618 116.652 72.0129C117.086 73.964 118.22 75.6884 119.84 76.8603C121.459 78.0322 123.451 78.5705 125.44 78.3733C127.429 78.1761 129.277 77.2573 130.635 75.7903L127.666 73.0423C126.98 73.7834 126.046 74.2477 125.041 74.3473C124.036 74.4469 123.03 74.175 122.211 73.5829C121.393 72.9908 120.82 72.1196 120.601 71.1338C120.382 70.148 120.531 69.116 121.02 68.2328L117.482 66.2711Z"/>
</mask>
<g filter="url(#filter6_i_1205_8202)">
<path d="M117.482 66.2711C116.513 68.0192 116.218 70.0618 116.652 72.0129C117.086 73.964 118.22 75.6884 119.84 76.8603C121.459 78.0322 123.451 78.5705 125.44 78.3733C127.429 78.1761 129.277 77.2573 130.635 75.7903L127.666 73.0423C126.98 73.7834 126.046 74.2477 125.041 74.3473C124.036 74.4469 123.03 74.175 122.211 73.5829C121.393 72.9908 120.82 72.1196 120.601 71.1338C120.382 70.148 120.531 69.116 121.02 68.2328L117.482 66.2711Z" fill="#15141D"/>
</g>
<path d="M117.482 66.2711C116.513 68.0192 116.218 70.0618 116.652 72.0129C117.086 73.964 118.22 75.6884 119.84 76.8603C121.459 78.0322 123.451 78.5705 125.44 78.3733C127.429 78.1761 129.277 77.2573 130.635 75.7903L127.666 73.0423C126.98 73.7834 126.046 74.2477 125.041 74.3473C124.036 74.4469 123.03 74.175 122.211 73.5829C121.393 72.9908 120.82 72.1196 120.601 71.1338C120.382 70.148 120.531 69.116 121.02 68.2328L117.482 66.2711Z" stroke="white" stroke-width="9.42703" mask="url(#path-9-inside-1_1205_8202)"/>
<defs>
<filter id="filter0_di_1205_8202" x="10.0729" y="38.0065" width="136.818" height="137.46" filterUnits="userSpaceOnUse" color-interpolation-filters="sRGB">
<feFlood flood-opacity="0" result="BackgroundImageFix"/>
<feColorMatrix in="SourceAlpha" type="matrix" values="0 0 0 0 0 0 0 0 0 0 0 0 0 0 0 0 0 0 127 0" result="hardAlpha"/>
<feOffset dx="0.942703" dy="0.942703"/>
<feGaussianBlur stdDeviation="2.35676"/>
<feComposite in2="hardAlpha" operator="out"/>
<feColorMatrix type="matrix" values="0 0 0 0 0 0 0 0 0 0 0 0 0 0 0 0 0 0 0.15 0"/>
<feBlend mode="normal" in2="BackgroundImageFix" result="effect1_dropShadow_1205_8202"/>
<feBlend mode="normal" in="SourceGraphic" in2="effect1_dropShadow_1205_8202" result="shape"/>
<feColorMatrix in="SourceAlpha" type="matrix" values="0 0 0 0 0 0 0 0 0 0 0 0 0 0 0 0 0 0 127 0" result="hardAlpha"/>
<feOffset dx="1.88541" dy="1.88541"/>
<feGaussianBlur stdDeviation="4.71352"/>
<feComposite in2="hardAlpha" operator="arithmetic" k2="-1" k3="1"/>
<feColorMatrix type="matrix" values="0 0 0 0 0 0 0 0 0 0 0 0 0 0 0 0 0 0 0.15 0"/>
<feBlend mode="normal" in2="shape" result="effect2_innerShadow_1205_8202"/>
</filter>
<filter id="filter1_i_1205_8202" x="106.883" y="57.8337" width="16.3594" height="17.3001" filterUnits="userSpaceOnUse" color-interpolation-filters="sRGB">
<feFlood flood-opacity="0" result="BackgroundImageFix"/>
<feBlend mode="normal" in="SourceGraphic" in2="BackgroundImageFix" result="shape"/>
<feColorMatrix in="SourceAlpha" type="matrix" values="0 0 0 0 0 0 0 0 0 0 0 0 0 0 0 0 0 0 127 0" result="hardAlpha"/>
<feOffset dy="-0.942703"/>
<feGaussianBlur stdDeviation="2.35676"/>
<feComposite in2="hardAlpha" operator="arithmetic" k2="-1" k3="1"/>
<feColorMatrix type="matrix" values="0 0 0 0 0 0 0 0 0 0 0 0 0 0 0 0 0 0 0.05 0"/>
<feBlend mode="normal" in2="shape" result="effect1_innerShadow_1205_8202"/>
</filter>
<filter id="filter2_di_1205_8202" x="48.1719" y="40.6839" width="116.391" height="151.228" filterUnits="userSpaceOnUse" color-interpolation-filters="sRGB">
<feFlood flood-opacity="0" result="BackgroundImageFix"/>
<feColorMatrix in="SourceAlpha" type="matrix" values="0 0 0 0 0 0 0 0 0 0 0 0 0 0 0 0 0 0 127 0" result="hardAlpha"/>
<feOffset dx="-5" dy="0.942703"/>
<feGaussianBlur stdDeviation="3.5"/>
<feComposite in2="hardAlpha" operator="out"/>
<feColorMatrix type="matrix" values="0 0 0 0 0 0 0 0 0 0 0 0 0 0 0 0 0 0 0.2 0"/>
<feBlend mode="normal" in2="BackgroundImageFix" result="effect1_dropShadow_1205_8202"/>
<feBlend mode="normal" in="SourceGraphic" in2="effect1_dropShadow_1205_8202" result="shape"/>
<feColorMatrix in="SourceAlpha" type="matrix" values="0 0 0 0 0 0 0 0 0 0 0 0 0 0 0 0 0 0 127 0" result="hardAlpha"/>
<feOffset dx="2" dy="2"/>
<feGaussianBlur stdDeviation="2.5"/>
<feComposite in2="hardAlpha" operator="arithmetic" k2="-1" k3="1"/>
<feColorMatrix type="matrix" values="0 0 0 0 0 0 0 0 0 0 0 0 0 0 0 0 0 0 0.15 0"/>
<feBlend mode="normal" in2="shape" result="effect2_innerShadow_1205_8202"/>
</filter>
<filter id="filter3_di_1205_8202" x="78.2422" y="83.1807" width="65.3489" height="73.9973" filterUnits="userSpaceOnUse" color-interpolation-filters="sRGB">
<feFlood flood-opacity="0" result="BackgroundImageFix"/>
<feColorMatrix in="SourceAlpha" type="matrix" values="0 0 0 0 0 0 0 0 0 0 0 0 0 0 0 0 0 0 127 0" result="hardAlpha"/>
<feOffset dx="-0.942703" dy="-0.942703"/>
<feGaussianBlur stdDeviation="2.35676"/>
<feComposite in2="hardAlpha" operator="out"/>
<feColorMatrix type="matrix" values="0 0 0 0 0 0 0 0 0 0 0 0 0 0 0 0 0 0 0.05 0"/>
<feBlend mode="normal" in2="BackgroundImageFix" result="effect1_dropShadow_1205_8202"/>
<feBlend mode="normal" in="SourceGraphic" in2="effect1_dropShadow_1205_8202" result="shape"/>
<feColorMatrix in="SourceAlpha" type="matrix" values="0 0 0 0 0 0 0 0 0 0 0 0 0 0 0 0 0 0 127 0" result="hardAlpha"/>
<feOffset dy="1.88541"/>
<feGaussianBlur stdDeviation="0.942703"/>
<feComposite in2="hardAlpha" operator="arithmetic" k2="-1" k3="1"/>
<feColorMatrix type="matrix" values="0 0 0 0 0 0 0 0 0 0 0 0 0 0 0 0 0 0 0.25 0"/>
<feBlend mode="normal" in2="shape" result="effect2_innerShadow_1205_8202"/>
</filter>
<filter id="filter4_i_1205_8202" x="116.414" y="61.1149" width="16.3594" height="17.3001" filterUnits="userSpaceOnUse" color-interpolation-filters="sRGB">
<feFlood flood-opacity="0" result="BackgroundImageFix"/>
<feBlend mode="normal" in="SourceGraphic" in2="BackgroundImageFix" result="shape"/>
<feColorMatrix in="SourceAlpha" type="matrix" values="0 0 0 0 0 0 0 0 0 0 0 0 0 0 0 0 0 0 127 0" result="hardAlpha"/>
<feOffset dy="-0.942703"/>
<feGaussianBlur stdDeviation="2.35676"/>
<feComposite in2="hardAlpha" operator="arithmetic" k2="-1" k3="1"/>
<feColorMatrix type="matrix" values="0 0 0 0 0 0 0 0 0 0 0 0 0 0 0 0 0 0 0.05 0"/>
<feBlend mode="normal" in2="shape" result="effect1_innerShadow_1205_8202"/>
</filter>
<filter id="filter5_i_1205_8202" x="99.0469" y="19.8945" width="49.1094" height="55.5338" filterUnits="userSpaceOnUse" color-interpolation-filters="sRGB">
<feFlood flood-opacity="0" result="BackgroundImageFix"/>
<feBlend mode="normal" in="SourceGraphic" in2="BackgroundImageFix" result="shape"/>
<feColorMatrix in="SourceAlpha" type="matrix" values="0 0 0 0 0 0 0 0 0 0 0 0 0 0 0 0 0 0 127 0" result="hardAlpha"/>
<feOffset dy="1.88541"/>
<feGaussianBlur stdDeviation="0.942703"/>
<feComposite in2="hardAlpha" operator="arithmetic" k2="-1" k3="1"/>
<feColorMatrix type="matrix" values="0 0 0 0 0 0 0 0 0 0 0 0 0 0 0 0 0 0 0.25 0"/>
<feBlend mode="normal" in2="shape" result="effect1_innerShadow_1205_8202"/>
</filter>
<filter id="filter6_i_1205_8202" x="116.453" y="65.3288" width="14.1797" height="13.0843" filterUnits="userSpaceOnUse" color-interpolation-filters="sRGB">
<feFlood flood-opacity="0" result="BackgroundImageFix"/>
<feBlend mode="normal" in="SourceGraphic" in2="BackgroundImageFix" result="shape"/>
<feColorMatrix in="SourceAlpha" type="matrix" values="0 0 0 0 0 0 0 0 0 0 0 0 0 0 0 0 0 0 127 0" result="hardAlpha"/>
<feOffset dy="-0.942703"/>
<feGaussianBlur stdDeviation="2.35676"/>
<feComposite in2="hardAlpha" operator="arithmetic" k2="-1" k3="1"/>
<feColorMatrix type="matrix" values="0 0 0 0 0 0 0 0 0 0 0 0 0 0 0 0 0 0 0.05 0"/>
<feBlend mode="normal" in2="shape" result="effect1_innerShadow_1205_8202"/>
</filter>
<linearGradient id="paint0_linear_1205_8202" x1="84.3872" y1="58.862" x2="39.6673" y2="145" gradientUnits="userSpaceOnUse">
<stop offset="0.61083" stop-color="white"/>
<stop offset="0.816374" stop-color="white" stop-opacity="0"/>
</linearGradient>
<linearGradient id="paint1_linear_1205_8202" x1="191.357" y1="52.4174" x2="136.798" y2="94.089" gradientUnits="userSpaceOnUse">
<stop offset="0.398033"/>
<stop offset="1" stop-opacity="0"/>
</linearGradient>
</defs>
</svg>
