<svg width="30" height="30" viewBox="0 0 30 30" fill="none" xmlns="http://www.w3.org/2000/svg">
<circle cx="15" cy="15" r="15" fill="white"/>
<path d="M21.3513 10.2718C21.5337 10.0965 21.7764 10 22.0344 10C22.2927 10 22.5351 10.0965 22.7176 10.2718C23.0941 10.6337 23.0941 11.2228 22.7175 11.5849L13.2053 20.7282C13.023 20.9035 12.7803 21 12.5222 21C12.2641 21 12.0214 20.9035 11.839 20.7282L7.28252 16.3486C6.90585 15.9865 6.90585 15.3974 7.28237 15.0355C7.46479 14.8602 7.70747 14.7636 7.96563 14.7636C8.22378 14.7636 8.46632 14.86 8.64866 15.0353L11.9764 18.2341C12.1212 18.3732 12.3174 18.4513 12.5221 18.4513C12.7268 18.4513 12.923 18.3732 13.0677 18.2341L21.3513 10.2718Z" fill="#ED1B2F"/>
<path d="M21.3513 10.2718C21.5337 10.0965 21.7764 10 22.0344 10C22.2927 10 22.5351 10.0965 22.7176 10.2718C23.0941 10.6337 23.0941 11.2228 22.7175 11.5849L13.2053 20.7282C13.023 20.9035 12.7803 21 12.5222 21C12.2641 21 12.0214 20.9035 11.839 20.7282L7.28252 16.3486C6.90585 15.9865 6.90585 15.3974 7.28237 15.0355C7.46479 14.8602 7.70747 14.7636 7.96563 14.7636C8.22378 14.7636 8.46632 14.86 8.64866 15.0353L11.9764 18.2341C12.1212 18.3732 12.3174 18.4513 12.5221 18.4513C12.7268 18.4513 12.923 18.3732 13.0677 18.2341L21.3513 10.2718Z" fill="#ED1B2F"/>
</svg>
