<svg width="321" height="40" viewBox="0 0 321 40" fill="none" xmlns="http://www.w3.org/2000/svg">
<g clip-path="url(#clip0_1219_977)">
<path d="M-0.0078125 40L9.74264 -0.050312H21.2187L11.4663 40H-0.0078125Z" fill="white" fill-opacity="0.3"/>
<path d="M21.2188 -0.050312L30.9692 40H42.4453L32.6929 -0.050312H21.2188Z" fill="white" fill-opacity="0.3"/>
<path d="M42.4453 40L52.1958 -0.050312H63.6719L53.9194 40H42.4453Z" fill="white" fill-opacity="0.3"/>
<path d="M63.6641 -0.050312L73.4145 40H84.8906L75.1382 -0.050312H63.6641Z" fill="white" fill-opacity="0.3"/>
<path d="M84.8984 40L94.6489 -0.050312H106.125L96.3726 40H84.8984Z" fill="white" fill-opacity="0.3"/>
<path d="M106.125 -0.050312L115.875 40H127.352L117.599 -0.050312H106.125Z" fill="white" fill-opacity="0.3"/>
</g>
<g clip-path="url(#clip1_1219_977)">
<path d="M126.992 40L136.716 -0.050312H148.16L138.434 40H126.992Z" fill="white" fill-opacity="0.3"/>
<path d="M148.156 -0.050312L157.88 40H169.324L159.599 -0.050312H148.156Z" fill="white" fill-opacity="0.3"/>
<path d="M169.328 40L179.052 -0.050312H190.496L180.77 40H169.328Z" fill="white" fill-opacity="0.3"/>
<path d="M190.484 -0.050312L200.208 40H211.652L201.927 -0.050312H190.484Z" fill="white" fill-opacity="0.3"/>
<path d="M211.664 40L221.387 -0.050312H232.832L223.106 40H211.664Z" fill="white" fill-opacity="0.3"/>
<path d="M232.828 -0.050312L242.552 40H253.996L244.27 -0.050312H232.828Z" fill="white" fill-opacity="0.3"/>
</g>
<g clip-path="url(#clip2_1219_977)">
<path d="M253.992 40L263.743 -0.050312H275.219L265.466 40H253.992Z" fill="white" fill-opacity="0.3"/>
<path d="M275.219 -0.050312L284.969 40H296.445L286.693 -0.050312H275.219Z" fill="white" fill-opacity="0.3"/>
<path d="M296.445 40L306.196 -0.050312H317.672L307.919 40H296.445Z" fill="white" fill-opacity="0.3"/>
</g>
<defs>
<clipPath id="clip0_1219_977">
<path d="M0 40L0 3.19999C0 1.43268 1.43268 0 3.19999 0L123.8 0C125.567 0 127 1.43269 127 3.19999V40L0 40Z" fill="white"/>
</clipPath>
<clipPath id="clip1_1219_977">
<path d="M127 40V3.19999C127 1.43268 128.433 0 130.2 0L250.99 0C252.758 0 254.19 1.43269 254.19 3.19999V40L127 40Z" fill="white"/>
</clipPath>
<clipPath id="clip2_1219_977">
<path d="M254 40V3.19999C254 1.43268 255.433 0 257.2 0L317.8 0C319.567 0 321 1.43269 321 3.19999V40L254 40Z" fill="white"/>
</clipPath>
</defs>
</svg>
