<svg width="64" height="64" viewBox="0 0 64 64" fill="none" xmlns="http://www.w3.org/2000/svg">
<circle cx="32" cy="32" r="30.5" stroke="url(#paint0_linear_1205_7999)" stroke-width="3"/>
<g clip-path="url(#clip0_1205_7999)">
<path d="M32.1201 39.04L50.8301 20.61C51.0145 20.4279 51.1485 20.2011 51.2192 19.9517C51.2899 19.7024 51.2947 19.439 51.2333 19.1872C51.1718 18.9354 51.0462 18.7038 50.8687 18.5151C50.6911 18.3263 50.4676 18.1867 50.2201 18.11C49.8101 17.98 40.1501 15 32.1401 15C24.1301 15 14.4601 18 14.0601 18.11C13.7598 18.2028 13.4965 18.3882 13.3079 18.6396C13.1193 18.8911 13.0151 19.1957 13.0101 19.51C13.0101 20.04 12.7801 32.62 16.9501 40.14C21.1201 47.66 30.4301 54.21 30.8301 54.45C31.0811 54.6285 31.3821 54.723 31.6901 54.72H32.5901C32.8981 54.723 33.1991 54.6285 33.4501 54.45C33.8401 54.17 43.1801 47.56 47.3301 40.1C48.9903 36.8197 50.0728 33.2779 50.5301 29.63H47.5301C47.0959 32.7631 46.15 35.8036 44.7301 38.63C41.3901 44.63 34.0001 50.33 32.1701 51.68C30.3401 50.34 22.9501 44.68 19.6001 38.63C16.4901 33.02 16.0801 23.77 16.0401 20.63C18.7301 19.86 26.1001 17.96 32.1701 17.96C37.1561 18.1442 42.1032 18.9128 46.9101 20.25L31.0601 35.88L24.3801 29.45L23.5201 32.8L30.0201 39.1C30.3071 39.3694 30.689 39.5143 31.0825 39.5031C31.4759 39.4918 31.849 39.3254 32.1201 39.04Z" fill="white"/>
<path d="M50.8434 18.4497C50.7049 18.3094 50.5398 18.198 50.3578 18.122C50.1759 18.046 49.9806 18.0068 49.7834 18.0068C49.5862 18.0068 49.391 18.046 49.209 18.122C49.0271 18.198 48.862 18.3094 48.7234 18.4497L31.0634 35.8797L24.3834 29.4497L23.5234 32.7997L30.0234 39.0997C30.2917 39.3624 30.6482 39.5157 31.0234 39.5297C31.2204 39.5301 31.4156 39.4914 31.5975 39.4159C31.7794 39.3403 31.9446 39.2295 32.0834 39.0897L50.8334 20.6097C50.9793 20.4704 51.0955 20.3032 51.1752 20.118C51.255 19.9328 51.2966 19.7335 51.2975 19.5318C51.2984 19.3302 51.2587 19.1304 51.1807 18.9445C51.1027 18.7586 50.988 18.5903 50.8434 18.4497Z" fill="#ED1B2F"/>
</g>
<defs>
<linearGradient id="paint0_linear_1205_7999" x1="7.17241" y1="9.93103" x2="57.931" y2="55.1724" gradientUnits="userSpaceOnUse">
<stop offset="0.140625" stop-color="#F6F7FA"/>
<stop offset="1" stop-color="#C9CDDD"/>
</linearGradient>
<clipPath id="clip0_1205_7999">
<rect width="38.27" height="39.77" fill="white" transform="translate(13 15)"/>
</clipPath>
</defs>
</svg>
