<svg width="64" height="64" viewBox="0 0 64 64" fill="none" xmlns="http://www.w3.org/2000/svg">
<circle cx="32" cy="32" r="30.5" stroke="url(#paint0_linear_1205_8020)" stroke-width="3"/>
<mask id="path-2-outside-1_1205_8020" maskUnits="userSpaceOnUse" x="15" y="14" width="34" height="37" fill="black">
<rect fill="white" x="15" y="14" width="34" height="37"/>
<path fill-rule="evenodd" clip-rule="evenodd" d="M31.4433 46.3333C29.9214 47.9735 27.7472 48.9998 25.3333 48.9998C20.731 48.9998 17 45.2689 17 40.6665C17 36.4022 20.203 32.8859 24.3344 32.3924V17.2336C24.3344 16.5523 24.8867 16 25.568 16H39.9791C40.6334 16 41.261 16.2599 41.7237 16.7227L46.9451 21.944C47.4078 22.4067 47.6677 23.0343 47.6677 23.6887V45.0997C47.6677 45.781 47.1154 46.3333 46.4341 46.3333H31.4433Z"/>
</mask>
<path fill-rule="evenodd" clip-rule="evenodd" d="M31.4433 46.3333C29.9214 47.9735 27.7472 48.9998 25.3333 48.9998C20.731 48.9998 17 45.2689 17 40.6665C17 36.4022 20.203 32.8859 24.3344 32.3924V17.2336C24.3344 16.5523 24.8867 16 25.568 16H39.9791C40.6334 16 41.261 16.2599 41.7237 16.7227L46.9451 21.944C47.4078 22.4067 47.6677 23.0343 47.6677 23.6887V45.0997C47.6677 45.781 47.1154 46.3333 46.4341 46.3333H31.4433Z" fill="#17181C"/>
<path d="M31.4433 46.3333V45.0997H30.9051L30.539 45.4942L31.4433 46.3333ZM24.3344 32.3924L24.4807 33.6173L25.568 33.4874V32.3924H24.3344ZM41.7237 16.7227L42.596 15.8503V15.8503L41.7237 16.7227ZM46.9451 21.944L46.0728 22.8163V22.8163L46.9451 21.944ZM30.539 45.4942C29.2408 46.8933 27.3899 47.7662 25.3333 47.7662V50.2335C28.1046 50.2335 30.6021 49.0536 32.3476 47.1725L30.539 45.4942ZM25.3333 47.7662C21.4123 47.7662 18.2336 44.5875 18.2336 40.6665H15.7664C15.7664 45.9502 20.0496 50.2335 25.3333 50.2335V47.7662ZM18.2336 40.6665C18.2336 37.0343 20.9622 34.0377 24.4807 33.6173L24.1881 31.1675C19.4438 31.7342 15.7664 35.77 15.7664 40.6665H18.2336ZM25.568 32.3924V17.2336H23.1008V32.3924H25.568ZM25.568 17.2336H25.568V14.7664C24.2054 14.7664 23.1008 15.871 23.1008 17.2336H25.568ZM25.568 17.2336H39.9791V14.7664H25.568V17.2336ZM39.9791 17.2336C40.3063 17.2336 40.62 17.3636 40.8514 17.595L42.596 15.8503C41.902 15.1563 40.9606 14.7664 39.9791 14.7664V17.2336ZM40.8514 17.595L46.0728 22.8163L47.8174 21.0717L42.596 15.8503L40.8514 17.595ZM46.0728 22.8163C46.3041 23.0477 46.4341 23.3615 46.4341 23.6887H48.9014C48.9014 22.7071 48.5115 21.7658 47.8174 21.0717L46.0728 22.8163ZM46.4341 23.6887V45.0997H48.9014V23.6887H46.4341ZM46.4341 45.0997H46.4341V47.567C47.7967 47.567 48.9014 46.4623 48.9014 45.0997H46.4341ZM46.4341 45.0997H31.4433V47.567H46.4341V45.0997Z" fill="#F5F5F5" mask="url(#path-2-outside-1_1205_8020)"/>
<path d="M25.3259 36.5605V44.7848M25.3259 44.7848L21.625 40.9563M25.3259 44.7848L29.0269 40.9563" stroke="#ED1B2F" stroke-width="1.23364" stroke-linecap="round" stroke-linejoin="round"/>
<path d="M29.6667 30.667C29.2985 30.667 29 30.3685 29 30.0003C29 29.6321 29.2985 29.3337 29.6667 29.3337H41.6667C42.0349 29.3337 42.3333 29.6321 42.3333 30.0003C42.3333 30.3685 42.0349 30.667 41.6667 30.667H29.6667Z" fill="#ED1B2F"/>
<path fill-rule="evenodd" clip-rule="evenodd" d="M29.6697 26.6663C29.3015 26.6663 29.0031 26.3679 29.0031 25.9997C29.0031 25.6315 29.3015 25.333 29.6697 25.333H41.6697C42.0379 25.333 42.3364 25.6315 42.3364 25.9997C42.3364 26.3679 42.0379 26.6663 41.6697 26.6663H29.6697ZM37.0017 34.6664C36.6335 34.6664 36.3351 34.3679 36.3351 33.9997C36.3351 33.6315 36.6335 33.333 37.0017 33.333H41.6684C42.0366 33.333 42.3351 33.6315 42.3351 33.9997C42.3351 34.3679 42.0366 34.6664 41.6684 34.6664H37.0017ZM25.3333 51C31.0403 51 35.6667 46.3736 35.6667 40.6667C35.6667 34.9597 31.0403 30.3334 25.3333 30.3334C19.6264 30.3334 15 34.9597 15 40.6667C15 46.3736 19.6264 51 25.3333 51ZM33.6667 40.6667C33.6667 45.2691 29.9357 49 25.3333 49C20.731 49 17 45.2691 17 40.6667C17 36.0643 20.731 32.3334 25.3333 32.3334C29.9357 32.3334 33.6667 36.0643 33.6667 40.6667Z" fill="#F5F5F5"/>
<path d="M23.5 31V17.5C23.5 16.3954 24.3954 15.5 25.5 15.5H40.1716C40.702 15.5 41.2107 15.7107 41.5858 16.0858L47.8969 22.3969C48.2822 22.7822 48.4936 23.308 48.4822 23.8528L48.0408 45.0417C48.0181 46.1298 47.1296 47 46.0412 47H32" stroke="#F5F5F5" stroke-width="2"/>
<defs>
<linearGradient id="paint0_linear_1205_8020" x1="7.17241" y1="9.93103" x2="57.931" y2="55.1724" gradientUnits="userSpaceOnUse">
<stop offset="0.140625" stop-color="#F6F7FA"/>
<stop offset="1" stop-color="#C9CDDD"/>
</linearGradient>
</defs>
</svg>
