<svg width="64" height="64" viewBox="0 0 64 64" fill="none" xmlns="http://www.w3.org/2000/svg">
<circle cx="32" cy="32" r="30.5" stroke="url(#paint0_linear_1205_8004)" stroke-width="3"/>
<path fill-rule="evenodd" clip-rule="evenodd" d="M40.0125 16H46.625C47.3872 16.0009 48.118 16.3041 48.657 16.843C49.1959 17.382 49.4991 18.1128 49.5 18.875V25.4875C49.5 25.8687 49.3486 26.2344 49.079 26.504C48.8094 26.7735 48.4437 26.925 48.0625 26.925C47.6813 26.925 47.3156 26.7735 47.046 26.504C46.7764 26.2344 46.625 25.8687 46.625 25.4875V18.875H40.0125C39.6313 18.875 39.2656 18.7235 38.996 18.454C38.7264 18.1844 38.575 17.8187 38.575 17.4375C38.575 17.0563 38.7264 16.6906 38.996 16.421C39.2656 16.1515 39.6313 16 40.0125 16ZM47.046 39.996C47.3156 39.7265 47.6813 39.575 48.0625 39.575C48.4437 39.575 48.8094 39.7265 49.079 39.996C49.3485 40.2656 49.5 40.6313 49.5 41.0125V47.625C49.4991 48.3872 49.1959 49.118 48.657 49.657C48.118 50.1959 47.3872 50.4991 46.625 50.5H40.0125C39.6313 50.5 39.2656 50.3486 38.996 50.079C38.7264 49.8094 38.575 49.4437 38.575 49.0625C38.575 48.6813 38.7264 48.3156 38.996 48.046C39.2656 47.7764 39.6313 47.625 40.0125 47.625H46.625V41.0125C46.625 40.6313 46.7765 40.2656 47.046 39.996ZM17.875 47.625H24.4875C24.8687 47.625 25.2344 47.7764 25.504 48.046C25.7735 48.3156 25.925 48.6813 25.925 49.0625C25.925 49.4437 25.7735 49.8094 25.504 50.079C25.2344 50.3486 24.8687 50.5 24.4875 50.5H17.875C17.1128 50.4991 16.382 50.1959 15.843 49.657C15.3041 49.118 15.0009 48.3872 15 47.625V41.0125C15 40.6313 15.1515 40.2656 15.421 39.996C15.6906 39.7264 16.0563 39.575 16.4375 39.575C16.8187 39.575 17.1844 39.7264 17.454 39.996C17.7235 40.2656 17.875 40.6313 17.875 41.0125V47.625ZM17.454 26.504C17.1844 26.7735 16.8187 26.925 16.4375 26.925C16.0563 26.925 15.6906 26.7735 15.421 26.504C15.1515 26.2344 15 25.8687 15 25.4875V18.875C15.0009 18.1128 15.3041 17.382 15.843 16.843C16.382 16.3041 17.1128 16.0009 17.875 16H24.4875C24.8687 16 25.2344 16.1515 25.504 16.421C25.7735 16.6906 25.925 17.0563 25.925 17.4375C25.925 17.8187 25.7735 18.1844 25.504 18.454C25.2344 18.7235 24.8687 18.875 24.4875 18.875H17.875V25.4875C17.875 25.8687 17.7235 26.2344 17.454 26.504ZM23.625 43.3125H40.875C41.2562 43.3125 41.6219 43.161 41.8915 42.8915C42.161 42.6219 42.3125 42.2562 42.3125 41.875V24.625C42.3125 24.2438 42.161 23.8781 41.8915 23.6085C41.6219 23.339 41.2562 23.1875 40.875 23.1875H23.625C23.2438 23.1875 22.8781 23.339 22.6085 23.6085C22.339 23.8781 22.1875 24.2438 22.1875 24.625V41.875C22.1875 42.2562 22.339 42.6219 22.6085 42.8915C22.8781 43.161 23.2438 43.3125 23.625 43.3125ZM26.7295 26.1171H29.2594C29.5981 26.1171 29.8727 26.3917 29.8727 26.7304C29.8727 27.0691 29.5981 27.3437 29.2594 27.3437H27.3428V29.2603C27.3428 29.5991 27.0682 29.8737 26.7295 29.8737C26.3908 29.8737 26.1161 29.5991 26.1161 29.2603V26.7304C26.1161 26.3917 26.3908 26.1171 26.7295 26.1171ZM26.1161 37.7701C26.1161 38.1088 26.3908 38.3834 26.7295 38.3834H29.2594C29.5981 38.3834 29.8727 38.1088 29.8727 37.7701C29.8727 37.4313 29.5981 37.1567 29.2594 37.1567H27.3428V35.2401C27.3428 34.9014 27.0682 34.6268 26.7295 34.6268C26.3908 34.6268 26.1161 34.9014 26.1161 35.2401V37.7701ZM37.7706 34.6268H35.2407C34.902 34.6268 34.6273 34.9014 34.6273 35.2401V37.7701C34.6273 38.1088 34.902 38.3834 35.2407 38.3834H37.7706C38.1093 38.3834 38.3839 38.1088 38.3839 37.7701V35.2401C38.3839 34.9014 38.1093 34.6268 37.7706 34.6268ZM37.1573 37.1567H35.854V35.8534H37.1573V37.1567ZM37.7706 29.8737C38.1093 29.8737 38.3839 29.5991 38.3839 29.2603V26.7304C38.3839 26.3917 38.1093 26.1171 37.7706 26.1171H35.2407C34.902 26.1171 34.6273 26.3917 34.6273 26.7304C34.6273 27.0691 34.902 27.3437 35.2407 27.3437H37.1573V29.2603C37.1573 29.5991 37.4319 29.8737 37.7706 29.8737ZM37.7687 32.8639H32.2489C31.9102 32.8639 31.6355 32.5893 31.6355 32.2506C31.6355 31.9119 31.9102 31.6373 32.2489 31.6373H37.7687C38.1074 31.6373 38.382 31.9119 38.382 32.2506C38.382 32.5893 38.1074 32.8639 37.7687 32.8639ZM26.7295 32.8639H29.1085C29.4472 32.8639 29.7218 32.5893 29.7218 32.2506C29.7218 31.9119 29.4472 31.6373 29.1085 31.6373H26.7295C26.3908 31.6373 26.1161 31.9119 26.1161 32.2506C26.1161 32.5893 26.3908 32.8639 26.7295 32.8639ZM31.6355 26.7304C31.6355 26.3917 31.9102 26.1171 32.2489 26.1171C32.5876 26.1171 32.8622 26.3917 32.8622 26.7304V28.9537H35.0088C35.3475 28.9537 35.6221 29.2283 35.6221 29.567C35.6221 29.9057 35.3475 30.1803 35.0088 30.1803H32.2489C31.9102 30.1803 31.6355 29.9057 31.6355 29.567V26.7304ZM29.0301 35.2401C29.0301 35.5788 29.3047 35.8534 29.6434 35.8534H31.6367V37.7701C31.6367 38.1088 31.9113 38.3834 32.25 38.3834C32.5887 38.3834 32.8633 38.1088 32.8633 37.7701V35.2401C32.8633 34.9014 32.5887 34.6268 32.25 34.6268H29.6434C29.3047 34.6268 29.0301 34.9014 29.0301 35.2401Z" fill="white"/>
<path d="M40.0125 16H46.625C47.3872 16.0009 48.118 16.3041 48.657 16.843C49.1959 17.382 49.4991 18.1128 49.5 18.875V25.4875C49.5 25.8687 49.3486 26.2344 49.079 26.504C48.8094 26.7735 48.4437 26.925 48.0625 26.925C47.6813 26.925 47.3156 26.7735 47.046 26.504C46.7764 26.2344 46.625 25.8687 46.625 25.4875V18.875H40.0125C39.6313 18.875 39.2656 18.7235 38.996 18.454C38.7264 18.1844 38.575 17.8187 38.575 17.4375C38.575 17.0563 38.7264 16.6906 38.996 16.421C39.2656 16.1515 39.6313 16 40.0125 16Z" fill="#ED1B2F"/>
<path d="M17.875 41.0125V47.625H24.4875C24.8687 47.625 25.2344 47.7764 25.504 48.046C25.7735 48.3156 25.925 48.6813 25.925 49.0625C25.925 49.4437 25.7735 49.8094 25.504 50.079C25.2344 50.3486 24.8687 50.5 24.4875 50.5H17.875C17.1128 50.4991 16.382 50.1959 15.843 49.657C15.3041 49.118 15.0009 48.3872 15 47.625V41.0125C15 40.6313 15.1515 40.2656 15.421 39.996C15.6906 39.7264 16.0563 39.575 16.4375 39.575C16.8187 39.575 17.1844 39.7264 17.454 39.996C17.7235 40.2656 17.875 40.6313 17.875 41.0125Z" fill="#ED1B2F"/>
<defs>
<linearGradient id="paint0_linear_1205_8004" x1="7.17241" y1="9.93103" x2="57.931" y2="55.1724" gradientUnits="userSpaceOnUse">
<stop offset="0.140625" stop-color="#F6F7FA"/>
<stop offset="1" stop-color="#C9CDDD"/>
</linearGradient>
</defs>
</svg>
