<svg width="64" height="64" viewBox="0 0 64 64" fill="none" xmlns="http://www.w3.org/2000/svg">
<g clip-path="url(#clip0_1205_7991)">
<path d="M51.2896 26.0401C50.4185 25.1664 49.3836 24.4729 48.2443 23.9993C47.105 23.5258 45.8835 23.2814 44.6496 23.2801H43.9396C43.5228 20.2632 42.0307 17.4982 39.7378 15.4937C37.4448 13.4892 34.5052 12.38 31.4596 12.3701C28.1186 12.3754 24.9158 13.7043 22.5524 16.0658C20.189 18.4273 18.8576 21.6291 18.8496 24.9701V26.3301H18.1996C16.1221 26.3301 14.1295 27.1547 12.6595 28.6229C11.1895 30.091 10.3623 32.0826 10.3596 34.1601C10.3512 35.1904 10.5484 36.212 10.94 37.165C11.3315 38.1181 11.9093 38.9833 12.6396 39.7101C13.3685 40.4425 14.2349 41.0237 15.1891 41.4201C16.1432 41.8166 17.1664 42.0205 18.1996 42.0201H19.5396L20.4196 38.5701H18.1996C17.0703 38.5162 16.005 38.0297 15.2248 37.2113C14.4446 36.393 14.0093 35.3058 14.0093 34.1751C14.0093 33.0445 14.4446 31.9572 15.2248 31.1389C16.005 30.3206 17.0703 29.834 18.1996 29.7801H22.2496V24.9701C22.2549 22.5415 23.2234 20.2143 24.9425 18.4989C26.6617 16.7835 28.9911 15.8201 31.4196 15.8201C33.8483 15.8307 36.174 16.8022 37.8886 18.5224C39.6031 20.2425 40.567 22.5714 40.5696 25.0001V26.7201H44.6196C46.1902 26.7384 47.6909 27.3718 48.7996 28.4842C49.9083 29.5967 50.5367 31.0995 50.5496 32.6701C50.547 34.2438 49.92 35.7521 48.8063 36.8639C47.6926 37.9757 46.1833 38.6001 44.6096 38.6001H23.9496L23.0696 42.0401H44.5996C46.4495 42.0316 48.2557 41.4775 49.7921 40.4472C51.3284 39.4168 52.5266 37.9561 53.2366 36.2479C53.9466 34.5397 54.1367 32.66 53.7833 30.8442C53.4298 29.0284 52.5485 27.3573 51.2496 26.0401H51.2896Z" fill="#ED1B2F"/>
<mask id="path-2-inside-1_1205_7991" fill="white">
<path d="M44.64 42.4299H22.64L23.71 38.2299H44.71C45.4401 38.2299 46.1631 38.0861 46.8377 37.8067C47.5123 37.5272 48.1252 37.1177 48.6415 36.6014C49.1578 36.0851 49.5674 35.4722 49.8468 34.7976C50.1262 34.123 50.27 33.4 50.27 32.6699C50.27 31.9397 50.1262 31.2167 49.8468 30.5422C49.5674 29.8676 49.1578 29.2547 48.6415 28.7384C48.1252 28.2221 47.5123 27.8125 46.8377 27.5331C46.1631 27.2537 45.4401 27.1099 44.71 27.1099H40.2V25.0099C40.2 22.6786 39.2739 20.4429 37.6255 18.7944C35.977 17.146 33.7413 16.2199 31.41 16.2199C29.0787 16.2199 26.843 17.146 25.1945 18.7944C23.5461 20.4429 22.62 22.6786 22.62 25.0099V30.1999H18.2C17.1391 30.1999 16.1217 30.6213 15.3716 31.3715C14.6214 32.1216 14.2 33.139 14.2 34.1999C14.2 35.2608 14.6214 36.2782 15.3716 37.0283C16.1217 37.7785 17.1391 38.1999 18.2 38.1999H20.9L19.83 42.3899H18.2C16.0225 42.3819 13.9368 41.5114 12.3999 39.9688C10.863 38.4262 9.99999 36.3374 10 34.1599C10.0079 31.9875 10.8744 29.9064 12.4105 28.3703C13.9465 26.8343 16.0277 25.9678 18.2 25.9599H18.43V24.9599C18.4413 21.6979 19.6785 18.5594 21.8961 16.1671C24.1137 13.7749 27.1496 12.3037 30.4014 12.0457C33.6532 11.7876 36.8832 12.7614 39.4503 14.7739C42.0175 16.7864 43.7343 19.6905 44.26 22.9099H44.65C45.933 22.9066 47.2038 23.1587 48.3884 23.6514C49.5731 24.1441 50.6478 24.8677 51.55 25.7799C52.9116 27.146 53.8379 28.8848 54.212 30.777C54.586 32.6691 54.3911 34.6296 53.6518 36.411C52.9125 38.1925 51.6619 39.7149 50.058 40.7861C48.4541 41.8574 46.5687 42.4294 44.64 42.4299ZM23.58 41.6499H44.58C46.3643 41.6583 48.1109 41.136 49.5978 40.1495C51.0847 39.1631 52.2448 37.7569 52.9307 36.1096C53.6166 34.4623 53.7974 32.6484 53.45 30.8981C53.1027 29.1479 52.243 27.5404 50.98 26.2799C50.1474 25.4373 49.1553 24.7691 48.0616 24.3141C46.9679 23.8591 45.7945 23.6265 44.61 23.6299H43.61V23.2999C43.2902 20.1387 41.7536 17.2257 39.3252 15.1768C36.8967 13.1279 33.7667 12.1036 30.5967 12.3204C27.4268 12.5373 24.4654 13.9783 22.3386 16.3389C20.2118 18.6995 19.0863 21.7946 19.2 24.9699V26.7099H18.2C16.2214 26.7099 14.3233 27.4938 12.9214 28.8901C11.5195 30.2864 10.7279 32.1813 10.72 34.1599C10.72 36.1437 11.5081 38.0463 12.9108 39.449C14.3136 40.8518 16.2162 41.6399 18.2 41.6399H19.2L19.89 38.9399H18.2C17.5559 38.9694 16.9125 38.868 16.3086 38.6419C15.7048 38.4157 15.1531 38.0695 14.6869 37.6241C14.2206 37.1787 13.8495 36.6435 13.5959 36.0506C13.3424 35.4578 13.2117 34.8197 13.2117 34.1749C13.2117 33.5301 13.3424 32.892 13.5959 32.2992C13.8495 31.7063 14.2206 31.171 14.6869 30.7257C15.1531 30.2803 15.7048 29.9341 16.3086 29.7079C16.9125 29.4818 17.5559 29.3804 18.2 29.4099H21.87V24.9699C21.8779 22.4431 22.8859 20.0222 24.6736 18.2364C26.4612 16.4506 28.8832 15.4452 31.41 15.4399C33.942 15.4452 36.3685 16.4547 38.157 18.247C39.9455 20.0393 40.95 22.4679 40.95 24.9999V26.3499H44.62C46.2935 26.3499 47.8985 27.0147 49.0818 28.198C50.2652 29.3814 50.93 30.9864 50.93 32.6599C50.93 34.3334 50.2652 35.9384 49.0818 37.1217C47.8985 38.3051 46.2935 38.9699 44.62 38.9699H24.24L23.58 41.6499Z"/>
</mask>
<path d="M44.64 42.4299H22.64L23.71 38.2299H44.71C45.4401 38.2299 46.1631 38.0861 46.8377 37.8067C47.5123 37.5272 48.1252 37.1177 48.6415 36.6014C49.1578 36.0851 49.5674 35.4722 49.8468 34.7976C50.1262 34.123 50.27 33.4 50.27 32.6699C50.27 31.9397 50.1262 31.2167 49.8468 30.5422C49.5674 29.8676 49.1578 29.2547 48.6415 28.7384C48.1252 28.2221 47.5123 27.8125 46.8377 27.5331C46.1631 27.2537 45.4401 27.1099 44.71 27.1099H40.2V25.0099C40.2 22.6786 39.2739 20.4429 37.6255 18.7944C35.977 17.146 33.7413 16.2199 31.41 16.2199C29.0787 16.2199 26.843 17.146 25.1945 18.7944C23.5461 20.4429 22.62 22.6786 22.62 25.0099V30.1999H18.2C17.1391 30.1999 16.1217 30.6213 15.3716 31.3715C14.6214 32.1216 14.2 33.139 14.2 34.1999C14.2 35.2608 14.6214 36.2782 15.3716 37.0283C16.1217 37.7785 17.1391 38.1999 18.2 38.1999H20.9L19.83 42.3899H18.2C16.0225 42.3819 13.9368 41.5114 12.3999 39.9688C10.863 38.4262 9.99999 36.3374 10 34.1599C10.0079 31.9875 10.8744 29.9064 12.4105 28.3703C13.9465 26.8343 16.0277 25.9678 18.2 25.9599H18.43V24.9599C18.4413 21.6979 19.6785 18.5594 21.8961 16.1671C24.1137 13.7749 27.1496 12.3037 30.4014 12.0457C33.6532 11.7876 36.8832 12.7614 39.4503 14.7739C42.0175 16.7864 43.7343 19.6905 44.26 22.9099H44.65C45.933 22.9066 47.2038 23.1587 48.3884 23.6514C49.5731 24.1441 50.6478 24.8677 51.55 25.7799C52.9116 27.146 53.8379 28.8848 54.212 30.777C54.586 32.6691 54.3911 34.6296 53.6518 36.411C52.9125 38.1925 51.6619 39.7149 50.058 40.7861C48.4541 41.8574 46.5687 42.4294 44.64 42.4299ZM23.58 41.6499H44.58C46.3643 41.6583 48.1109 41.136 49.5978 40.1495C51.0847 39.1631 52.2448 37.7569 52.9307 36.1096C53.6166 34.4623 53.7974 32.6484 53.45 30.8981C53.1027 29.1479 52.243 27.5404 50.98 26.2799C50.1474 25.4373 49.1553 24.7691 48.0616 24.3141C46.9679 23.8591 45.7945 23.6265 44.61 23.6299H43.61V23.2999C43.2902 20.1387 41.7536 17.2257 39.3252 15.1768C36.8967 13.1279 33.7667 12.1036 30.5967 12.3204C27.4268 12.5373 24.4654 13.9783 22.3386 16.3389C20.2118 18.6995 19.0863 21.7946 19.2 24.9699V26.7099H18.2C16.2214 26.7099 14.3233 27.4938 12.9214 28.8901C11.5195 30.2864 10.7279 32.1813 10.72 34.1599C10.72 36.1437 11.5081 38.0463 12.9108 39.449C14.3136 40.8518 16.2162 41.6399 18.2 41.6399H19.2L19.89 38.9399H18.2C17.5559 38.9694 16.9125 38.868 16.3086 38.6419C15.7048 38.4157 15.1531 38.0695 14.6869 37.6241C14.2206 37.1787 13.8495 36.6435 13.5959 36.0506C13.3424 35.4578 13.2117 34.8197 13.2117 34.1749C13.2117 33.5301 13.3424 32.892 13.5959 32.2992C13.8495 31.7063 14.2206 31.171 14.6869 30.7257C15.1531 30.2803 15.7048 29.9341 16.3086 29.7079C16.9125 29.4818 17.5559 29.3804 18.2 29.4099H21.87V24.9699C21.8779 22.4431 22.8859 20.0222 24.6736 18.2364C26.4612 16.4506 28.8832 15.4452 31.41 15.4399C33.942 15.4452 36.3685 16.4547 38.157 18.247C39.9455 20.0393 40.95 22.4679 40.95 24.9999V26.3499H44.62C46.2935 26.3499 47.8985 27.0147 49.0818 28.198C50.2652 29.3814 50.93 30.9864 50.93 32.6599C50.93 34.3334 50.2652 35.9384 49.0818 37.1217C47.8985 38.3051 46.2935 38.9699 44.62 38.9699H24.24L23.58 41.6499Z" fill="#ED1B2F"/>
<path d="M44.64 42.4299V43.4299H44.6403L44.64 42.4299ZM22.64 42.4299L21.671 42.183L21.3533 43.4299H22.64V42.4299ZM23.71 38.2299V37.2299H22.9328L22.741 37.983L23.71 38.2299ZM44.71 38.2299V37.2299V38.2299ZM44.71 27.1099V28.1099V27.1099ZM40.2 27.1099H39.2V28.1099H40.2V27.1099ZM22.62 25.0099H21.62H22.62ZM22.62 30.1999V31.1999H23.62V30.1999H22.62ZM20.9 38.1999L21.8689 38.4473L22.1875 37.1999H20.9V38.1999ZM19.83 42.3899V43.3899H20.6067L20.7989 42.6373L19.83 42.3899ZM18.2 42.3899L18.1964 43.3899H18.2V42.3899ZM10 34.1599L9 34.1562V34.1599L10 34.1599ZM18.2 25.9599V24.9599L18.1964 24.9599L18.2 25.9599ZM18.43 25.9599V26.9599H19.43V25.9599H18.43ZM18.43 24.9599L17.43 24.9564V24.9599H18.43ZM44.26 22.9099L43.2731 23.071L43.41 23.9099H44.26V22.9099ZM44.65 22.9099V23.9099L44.6526 23.9099L44.65 22.9099ZM51.55 25.7799L50.839 26.4831L50.8417 26.4858L51.55 25.7799ZM23.58 41.6499L22.609 41.4108L22.3039 42.6499H23.58V41.6499ZM44.58 41.6499L44.5847 40.6499H44.58V41.6499ZM50.98 26.2799L50.2687 26.9828L50.2736 26.9877L50.98 26.2799ZM44.61 23.6299V24.6299L44.6128 24.6299L44.61 23.6299ZM43.61 23.6299H42.61V24.6299H43.61V23.6299ZM43.61 23.2999H44.61V23.2494L44.6049 23.1992L43.61 23.2999ZM19.2 24.9699H20.2V24.952L20.1994 24.9341L19.2 24.9699ZM19.2 26.7099V27.7099H20.2V26.7099H19.2ZM18.2 26.7099L18.2 27.7099H18.2V26.7099ZM10.72 34.1599L9.72 34.1559V34.1599H10.72ZM18.2 41.6399V42.6399V41.6399ZM19.2 41.6399V42.6399H19.9766L20.1689 41.8875L19.2 41.6399ZM19.89 38.9399L20.8589 39.1875L21.1777 37.9399H19.89V38.9399ZM18.2 38.9399V37.9399H18.1771L18.1542 37.9409L18.2 38.9399ZM13.2117 34.1749H14.2117H13.2117ZM18.2 29.4099L18.1542 30.4088L18.1771 30.4099H18.2V29.4099ZM21.87 29.4099V30.4099H22.87V29.4099H21.87ZM21.87 24.9699L20.87 24.9668V24.9699H21.87ZM31.41 15.4399L31.4121 14.4399L31.4079 14.4399L31.41 15.4399ZM40.95 24.9999L39.95 24.9999V24.9999H40.95ZM40.95 26.3499H39.95V27.3499H40.95V26.3499ZM44.62 26.3499V25.3499V26.3499ZM50.93 32.6599H51.93H50.93ZM44.62 38.9699V39.9699V38.9699ZM24.24 38.9699V37.9699H23.4564L23.269 38.7308L24.24 38.9699ZM44.64 41.4299H22.64V43.4299H44.64V41.4299ZM23.609 42.6768L24.679 38.4768L22.741 37.983L21.671 42.183L23.609 42.6768ZM23.71 39.2299H44.71V37.2299H23.71V39.2299ZM44.71 39.2299C45.5715 39.2299 46.4245 39.0602 47.2204 38.7305L46.455 36.8828C45.9018 37.1119 45.3088 37.2299 44.71 37.2299V39.2299ZM47.2204 38.7305C48.0163 38.4009 48.7395 37.9177 49.3486 37.3085L47.9344 35.8943C47.511 36.3177 47.0083 36.6536 46.455 36.8828L47.2204 38.7305ZM49.3486 37.3085C49.9578 36.6994 50.441 35.9762 50.7706 35.1803L48.9229 34.4149C48.6937 34.9682 48.3578 35.4709 47.9344 35.8943L49.3486 37.3085ZM50.7706 35.1803C51.1003 34.3844 51.27 33.5314 51.27 32.6699H49.27C49.27 33.2687 49.1521 33.8617 48.9229 34.4149L50.7706 35.1803ZM51.27 32.6699C51.27 31.8084 51.1003 30.9554 50.7706 30.1595L48.9229 30.9249C49.1521 31.4781 49.27 32.0711 49.27 32.6699H51.27ZM50.7706 30.1595C50.441 29.3636 49.9578 28.6404 49.3486 28.0313L47.9344 29.4455C48.3578 29.8689 48.6937 30.3716 48.9229 30.9249L50.7706 30.1595ZM49.3486 28.0313C48.7395 27.4221 48.0163 26.9389 47.2204 26.6092L46.455 28.457C47.0083 28.6862 47.511 29.022 47.9344 29.4455L49.3486 28.0313ZM47.2204 26.6092C46.4245 26.2796 45.5715 26.1099 44.71 26.1099V28.1099C45.3088 28.1099 45.9018 28.2278 46.455 28.457L47.2204 26.6092ZM44.71 26.1099H40.2V28.1099H44.71V26.1099ZM41.2 27.1099V25.0099H39.2V27.1099H41.2ZM41.2 25.0099C41.2 22.4134 40.1686 19.9233 38.3326 18.0873L36.9184 19.5015C38.3793 20.9624 39.2 22.9439 39.2 25.0099H41.2ZM38.3326 18.0873C36.4966 16.2513 34.0065 15.2199 31.41 15.2199V17.2199C33.476 17.2199 35.4575 18.0406 36.9184 19.5015L38.3326 18.0873ZM31.41 15.2199C28.8135 15.2199 26.3234 16.2513 24.4874 18.0873L25.9016 19.5015C27.3625 18.0406 29.344 17.2199 31.41 17.2199V15.2199ZM24.4874 18.0873C22.6514 19.9233 21.62 22.4134 21.62 25.0099H23.62C23.62 22.9439 24.4407 20.9624 25.9016 19.5015L24.4874 18.0873ZM21.62 25.0099V30.1999H23.62V25.0099H21.62ZM22.62 29.1999H18.2V31.1999H22.62V29.1999ZM18.2 29.1999C16.8739 29.1999 15.6021 29.7267 14.6645 30.6644L16.0787 32.0786C16.6413 31.516 17.4044 31.1999 18.2 31.1999V29.1999ZM14.6645 30.6644C13.7268 31.602 13.2 32.8738 13.2 34.1999H15.2C15.2 33.4042 15.5161 32.6412 16.0787 32.0786L14.6645 30.6644ZM13.2 34.1999C13.2 35.526 13.7268 36.7977 14.6645 37.7354L16.0787 36.3212C15.5161 35.7586 15.2 34.9955 15.2 34.1999H13.2ZM14.6645 37.7354C15.6021 38.6731 16.8739 39.1999 18.2 39.1999V37.1999C17.4044 37.1999 16.6413 36.8838 16.0787 36.3212L14.6645 37.7354ZM18.2 39.1999H20.9V37.1999H18.2V39.1999ZM19.9311 37.9525L18.8611 42.1425L20.7989 42.6373L21.8689 38.4473L19.9311 37.9525ZM19.83 41.3899H18.2V43.3899H19.83V41.3899ZM18.2036 41.3899C16.2907 41.3829 14.4585 40.6181 13.1083 39.263L11.6915 40.6746C13.4152 42.4046 15.7542 43.381 18.1964 43.3899L18.2036 41.3899ZM13.1083 39.263C11.7581 37.9079 11 36.0729 11 34.1599L9 34.1599C8.99998 36.602 9.96781 38.9446 11.6915 40.6746L13.1083 39.263ZM11 34.1635C11.0069 32.2551 11.7681 30.4269 13.1176 29.0775L11.7033 27.6632C9.98062 29.386 9.00887 31.72 9.00001 34.1562L11 34.1635ZM13.1176 29.0775C14.467 27.728 16.2952 26.9668 18.2036 26.9599L18.1964 24.9599C15.7601 24.9688 13.4261 25.9405 11.7033 27.6632L13.1176 29.0775ZM18.2 26.9599H18.43V24.9599H18.2V26.9599ZM19.43 25.9599V24.9599H17.43V25.9599H19.43ZM19.43 24.9634C19.4404 21.9523 20.5825 19.0552 22.6295 16.847L21.1627 15.4873C18.7745 18.0636 17.4422 21.4435 17.43 24.9564L19.43 24.9634ZM22.6295 16.847C24.6765 14.6387 27.4789 13.2807 30.4805 13.0425L30.3223 11.0488C26.8204 11.3267 23.5509 12.911 21.1627 15.4873L22.6295 16.847ZM30.4805 13.0425C33.4822 12.8043 36.4637 13.7032 38.8334 15.5609L40.0673 13.9869C37.3026 11.8196 33.8242 10.7709 30.3223 11.0488L30.4805 13.0425ZM38.8334 15.5609C41.2031 17.4186 42.7878 20.0993 43.2731 23.071L45.2469 22.7487C44.6808 19.2817 42.832 16.1542 40.0673 13.9869L38.8334 15.5609ZM44.26 23.9099H44.65V21.9099H44.26V23.9099ZM44.6526 23.9099C45.8029 23.9069 46.9423 24.1329 48.0044 24.5747L48.7725 22.7281C47.4654 22.1844 46.0631 21.9063 44.6474 21.9099L44.6526 23.9099ZM48.0044 24.5747C49.0665 25.0165 50.0301 25.6652 50.839 26.4831L52.261 25.0767C51.2655 24.0701 50.0796 23.2718 48.7725 22.7281L48.0044 24.5747ZM50.8417 26.4858C52.0638 27.7119 52.8952 29.2726 53.231 30.9709L55.193 30.583C54.7806 28.497 53.7594 26.58 52.2583 25.0739L50.8417 26.4858ZM53.231 30.9709C53.5667 32.6692 53.3918 34.4288 52.7282 36.0277L54.5754 36.7944C55.3905 34.8304 55.6054 32.669 55.193 30.583L53.231 30.9709ZM52.7282 36.0277C52.0646 37.6266 50.9422 38.9931 49.5026 39.9546L50.6134 41.6177C52.3817 40.4367 53.7604 38.7583 54.5754 36.7944L52.7282 36.0277ZM49.5026 39.9546C48.063 40.916 46.3709 41.4294 44.6397 41.4299L44.6403 43.4299C46.7666 43.4293 48.8452 42.7987 50.6134 41.6177L49.5026 39.9546ZM23.58 42.6499H44.58V40.6499H23.58V42.6499ZM44.5753 42.6499C46.5579 42.6592 48.4985 42.0789 50.1506 40.9828L49.0449 39.3163C47.7233 40.1931 46.1708 40.6573 44.5847 40.6499L44.5753 42.6499ZM50.1506 40.9828C51.8027 39.8867 53.0917 38.3243 53.8538 36.494L52.0075 35.7252C51.3978 37.1894 50.3666 38.4394 49.0449 39.3163L50.1506 40.9828ZM53.8538 36.494C54.616 34.6637 54.8168 32.6482 54.4309 30.7035L52.4692 31.0928C52.7779 32.6485 52.6172 34.261 52.0075 35.7252L53.8538 36.494ZM54.4309 30.7035C54.045 28.7588 53.0897 26.9727 51.6864 25.5721L50.2736 26.9877C51.3962 28.1081 52.1604 29.537 52.4692 31.0928L54.4309 30.7035ZM51.6913 25.577C50.7653 24.64 49.662 23.8968 48.4457 23.3908L47.6775 25.2374C48.6486 25.6414 49.5294 26.2347 50.2687 26.9828L51.6913 25.577ZM48.4457 23.3908C47.2294 22.8848 45.9245 22.6261 44.6072 22.6299L44.6128 24.6299C45.6646 24.6269 46.7064 24.8334 47.6775 25.2374L48.4457 23.3908ZM44.61 22.6299H43.61V24.6299H44.61V22.6299ZM44.61 23.6299V23.2999H42.61V23.6299H44.61ZM44.6049 23.1992C44.259 19.7798 42.5969 16.6288 39.97 14.4125L38.6803 15.9411C40.9104 17.8226 42.3214 20.4976 42.6151 23.4005L44.6049 23.1992ZM39.97 14.4125C37.3432 12.1962 33.9574 11.0882 30.5285 11.3228L30.665 13.3181C33.5759 13.119 36.4503 14.0596 38.6803 15.9411L39.97 14.4125ZM30.5285 11.3228C27.0995 11.5574 23.8962 13.1161 21.5957 15.6696L23.0815 17.0083C25.0346 14.8406 27.754 13.5173 30.665 13.3181L30.5285 11.3228ZM21.5957 15.6696C19.2951 18.223 18.0777 21.5709 18.2006 25.0057L20.1994 24.9341C20.095 22.0182 21.1285 19.176 23.0815 17.0083L21.5957 15.6696ZM18.2 24.9699V26.7099H20.2V24.9699H18.2ZM19.2 25.7099H18.2V27.7099H19.2V25.7099ZM18.2 25.7099C15.9569 25.7099 13.8051 26.5986 12.2157 28.1816L13.6271 29.5986C14.8416 28.389 16.4859 27.7099 18.2 27.7099L18.2 25.7099ZM12.2157 28.1816C10.6264 29.7645 9.729 31.9127 9.72001 34.1559L11.72 34.1639C11.7269 32.4498 12.4126 30.8083 13.6271 29.5986L12.2157 28.1816ZM9.72 34.1599C9.72 36.4089 10.6134 38.5658 12.2037 40.1562L13.6179 38.7419C12.4027 37.5267 11.72 35.8785 11.72 34.1599H9.72ZM12.2037 40.1562C13.794 41.7465 15.951 42.6399 18.2 42.6399V40.6399C16.4814 40.6399 14.8332 39.9572 13.6179 38.7419L12.2037 40.1562ZM18.2 42.6399H19.2V40.6399H18.2V42.6399ZM20.1689 41.8875L20.8589 39.1875L18.9211 38.6923L18.2311 41.3923L20.1689 41.8875ZM19.89 37.9399H18.2V39.9399H19.89V37.9399ZM18.1542 37.9409C17.6451 37.9643 17.1366 37.8841 16.6594 37.7054L15.9579 39.5783C16.6883 39.8519 17.4666 39.9745 18.2458 39.9388L18.1542 37.9409ZM16.6594 37.7054C16.1821 37.5267 15.7461 37.253 15.3776 36.901L13.9961 38.3472C14.5601 38.886 15.2275 39.3048 15.9579 39.5783L16.6594 37.7054ZM15.3776 36.901C15.0091 36.549 14.7158 36.1259 14.5154 35.6574L12.6765 36.4438C12.9832 37.161 13.4321 37.8085 13.9961 38.3472L15.3776 36.901ZM14.5154 35.6574C14.315 35.1888 14.2117 34.6845 14.2117 34.1749H12.2117C12.2117 34.9549 12.3698 35.7267 12.6765 36.4438L14.5154 35.6574ZM14.2117 34.1749C14.2117 33.6653 14.315 33.1609 14.5154 32.6924L12.6765 31.9059C12.3698 32.6231 12.2117 33.3949 12.2117 34.1749H14.2117ZM14.5154 32.6924C14.7158 32.2238 15.0091 31.8008 15.3776 31.4488L13.9961 30.0025C13.4321 30.5413 12.9832 31.1888 12.6765 31.9059L14.5154 32.6924ZM15.3776 31.4488C15.7461 31.0968 16.1821 30.8231 16.6594 30.6444L15.9579 28.7714C15.2275 29.045 14.5601 29.4638 13.9961 30.0025L15.3776 31.4488ZM16.6594 30.6444C17.1366 30.4656 17.6451 30.3855 18.1542 30.4088L18.2458 28.4109C17.4666 28.3752 16.6883 28.4979 15.9579 28.7714L16.6594 30.6444ZM18.2 30.4099H21.87V28.4099H18.2V30.4099ZM22.87 29.4099V24.9699H20.87V29.4099H22.87ZM22.87 24.973C22.8771 22.7105 23.7796 20.5429 25.3803 18.9439L23.9668 17.5289C21.9922 19.5015 20.8788 22.1756 20.87 24.9668L22.87 24.973ZM25.3803 18.9439C26.981 17.3449 29.1496 16.4446 31.4121 16.4399L31.4079 14.4399C28.6168 14.4457 25.9415 15.5563 23.9668 17.5289L25.3803 18.9439ZM31.4079 16.4399C33.6751 16.4446 35.8477 17.3486 37.4492 18.9534L38.8649 17.5406C36.8893 15.5609 34.2089 14.4457 31.4121 14.4399L31.4079 16.4399ZM37.4492 18.9534C39.0506 20.5582 39.95 22.7327 39.95 24.9999L41.95 24.9999C41.95 22.203 40.8405 19.5204 38.8649 17.5406L37.4492 18.9534ZM39.95 24.9999V26.3499H41.95V24.9999H39.95ZM40.95 27.3499H44.62V25.3499H40.95V27.3499ZM44.62 27.3499C46.0283 27.3499 47.3789 27.9093 48.3747 28.9052L49.789 27.4909C48.4181 26.12 46.5587 25.3499 44.62 25.3499V27.3499ZM48.3747 28.9052C49.3706 29.901 49.93 31.2516 49.93 32.6599H51.93C51.93 30.7212 51.1598 28.8618 49.789 27.4909L48.3747 28.9052ZM49.93 32.6599C49.93 34.0682 49.3706 35.4188 48.3747 36.4146L49.789 37.8288C51.1598 36.4579 51.93 34.5986 51.93 32.6599H49.93ZM48.3747 36.4146C47.3789 37.4104 46.0283 37.9699 44.62 37.9699V39.9699C46.5587 39.9699 48.4181 39.1997 49.789 37.8288L48.3747 36.4146ZM44.62 37.9699H24.24V39.9699H44.62V37.9699ZM23.269 38.7308L22.609 41.4108L24.551 41.889L25.211 39.209L23.269 38.7308Z" fill="#15141D" mask="url(#path-2-inside-1_1205_7991)"/>
<path d="M34.2013 27.9398C34.09 27.7869 33.9441 27.6625 33.7755 27.5768C33.6069 27.491 33.4205 27.4463 33.2313 27.4463C33.0422 27.4463 32.8557 27.491 32.6871 27.5768C32.5186 27.6625 32.3727 27.7869 32.2613 27.9398L21.7513 40.9398C21.2213 41.5998 21.4813 42.1398 22.3313 42.1398H44.2013C45.0513 42.1398 45.3113 41.5998 44.7813 40.9398L34.2013 27.9398Z" fill="white"/>
<path d="M37.1378 53.8504H29.1378C28.7735 53.8504 28.424 53.7063 28.1655 53.4497C27.907 53.1931 27.7605 52.8446 27.7578 52.4804V40.4804C27.7604 40.1178 27.9056 39.7709 28.162 39.5145C28.4183 39.2581 28.7653 39.113 29.1278 39.1104H37.1278C37.309 39.1104 37.4885 39.146 37.6559 39.2154C37.8233 39.2847 37.9755 39.3864 38.1036 39.5145C38.2318 39.6427 38.3334 39.7948 38.4028 39.9622C38.4721 40.1297 38.5078 40.3091 38.5078 40.4904V52.4904C38.5026 52.8511 38.3563 53.1955 38.1002 53.4498C37.8441 53.704 37.4986 53.8478 37.1378 53.8504ZM30.4978 51.1104H35.7678V41.8204H30.4978V51.1104Z" fill="white"/>
<path d="M40.1384 39.5599L33.2684 31.1699L26.3984 39.5599H30.4684V51.4599H35.7784V39.5599H40.1384Z" fill="white"/>
</g>
<circle cx="32" cy="32" r="30.5" stroke="url(#paint0_linear_1205_7991)" stroke-width="3"/>
<defs>
<linearGradient id="paint0_linear_1205_7991" x1="7.17241" y1="9.93103" x2="57.931" y2="55.1724" gradientUnits="userSpaceOnUse">
<stop offset="0.140625" stop-color="#F6F7FA"/>
<stop offset="1" stop-color="#C9CDDD"/>
</linearGradient>
<clipPath id="clip0_1205_7991">
<rect width="44.4" height="41.85" fill="white" transform="translate(10 12)"/>
</clipPath>
</defs>
</svg>
