<svg width="21" height="18" viewBox="0 0 21 18" fill="none" xmlns="http://www.w3.org/2000/svg">
<path d="M19.2656 0.813154C19.2656 0.813154 21.1158 0.0917248 20.9616 1.84377C20.9102 2.56521 20.4477 5.09021 20.0879 7.82135L18.8545 15.9117C18.8545 15.9117 18.7517 17.0969 17.8266 17.303C16.9015 17.5091 15.5139 16.5816 15.2569 16.3755C15.0514 16.2209 11.4025 13.902 10.1177 12.7683C9.7579 12.4591 9.34676 11.8407 10.169 11.1193L15.5653 5.96626C16.182 5.34788 16.7988 3.90502 14.2291 5.65707L7.03409 10.5525C7.03409 10.5525 6.2118 11.0678 4.67004 10.604L1.32948 9.5734C1.32948 9.5734 0.096041 8.80045 2.20316 8.02745C7.34247 5.60549 13.6638 3.13202 19.2656 0.813154Z" fill="#13141C"/>
</svg>
