<svg width="21" height="15" viewBox="0 0 21 15" fill="none" xmlns="http://www.w3.org/2000/svg">
<path d="M19.4939 1.54224C18.772 0.684049 17.439 0.333984 14.8935 0.333984H5.65318C3.04937 0.333984 1.69389 0.70663 0.974663 1.62031C0.273438 2.51115 0.273438 3.82373 0.273438 5.64037V9.10289C0.273438 12.6223 1.10544 14.4092 5.65318 14.4092H14.8936C17.101 14.4092 18.3243 14.1003 19.1156 13.343C19.9272 12.5663 20.2734 11.2982 20.2734 9.10289V5.64037C20.2734 3.72457 20.2192 2.40424 19.4939 1.54224ZM13.1135 7.84966L8.9175 10.0426C8.8237 10.0917 8.72111 10.116 8.61866 10.116C8.50266 10.116 8.38692 10.0848 8.2844 10.0227C8.09137 9.90573 7.9735 9.6965 7.9735 9.47082V5.09895C7.9735 4.87366 8.09105 4.66463 8.2837 4.5476C8.47641 4.43056 8.71608 4.42256 8.91602 4.52644L13.112 6.70527C13.3255 6.81611 13.4596 7.0365 13.4599 7.27695C13.4601 7.5176 13.3267 7.73831 13.1135 7.84966Z" fill="#13141C"/>
</svg>
